<svg width="99" height="26" viewBox="0 0 99 26" fill="none" xmlns="http://www.w3.org/2000/svg">
<path id="Vector" d="M9.22778 25.15C3.83889 25.15 0.291667 22.6111 0.0138889 18.3972L0 18.1528H4.01944L4.05278 18.3472C4.35833 20.3667 6.42778 21.6194 9.375 21.6194C12.3361 21.6194 14.1917 20.3 14.1917 18.2833V18.2667C14.1917 16.5083 12.9694 15.5639 9.94167 14.9306L7.41945 14.4083C2.79722 13.45 0.519444 11.3 0.519444 7.8V7.78611C0.536111 3.65 4.16667 0.849998 9.22778 0.849998C14.3556 0.849998 17.7083 3.55278 17.95 7.57222L17.9667 7.85H13.9472L13.9139 7.65555C13.6361 5.60278 11.8306 4.38333 9.19444 4.38333C6.44444 4.4 4.73611 5.68611 4.73611 7.55833V7.57222C4.73611 9.23333 6.02222 10.2111 8.85278 10.7944L11.3917 11.3167C16.275 12.325 18.4083 14.3111 18.4083 17.9722V17.9889C18.4083 22.3694 14.9556 25.15 9.22778 25.15ZM31.9 25.15C25.0306 25.15 20.75 20.4806 20.75 13.0111V12.9778C20.75 5.52222 25.0639 0.849998 31.9 0.849998C38.7528 0.849998 43.0333 5.52222 43.0333 12.9778V13.0083C43.0333 20.4806 38.7694 25.15 31.9 25.15ZM31.9 21.5056C36.15 21.5056 38.7694 18.1861 38.7694 13.0083V12.9778C38.7694 7.76944 36.1 4.49722 31.9 4.49722C27.7167 4.49722 25.0306 7.75278 25.0306 12.9778V13.0083C25.0306 18.2333 27.7 21.5056 31.9 21.5056ZM46.3861 24.7444V1.25833H50.1639L61.6028 17.7139H61.7V1.25833H65.8667V24.7444H62.125L50.65 8.225H50.5667V24.7444H46.3861ZM70.0194 24.7444V1.25833H74.2167V24.7444H70.0194ZM88.575 25.15C81.8194 25.15 77.5528 20.4972 77.5528 12.9944V12.9778C77.5528 5.47222 81.8333 0.849998 88.5722 0.849998C93.9778 0.849998 97.9472 4.21944 98.5667 9.00556L98.5833 9.16944H94.4639L94.3833 8.85833C93.7 6.17222 91.6333 4.49722 88.5722 4.49722C84.4722 4.49722 81.85 7.76944 81.85 12.9778V12.9944C81.85 18.2167 84.4889 21.5056 88.5722 21.5056C91.5667 21.5056 93.6667 19.8944 94.4333 16.9972L94.4806 16.8333H98.6L98.5667 16.9972C97.9639 21.8139 93.9806 25.15 88.575 25.15Z" fill="black"/>
</svg>
