<svg viewBox="0 0 154 48" fill="none" xmlns="http://www.w3.org/2000/svg">
    <g clip-path="url(#clip0_832_59)">
        <path d="M0.537109 33.9907V14.0075H5.07614V30.2795H14.9535V33.9907H0.537109ZM15.9482 33.9907V14.0075H31.1925V17.7187H20.4873V21.9723H29.8794V25.5692H20.4873V30.2795H31.2211V33.9907H15.9482ZM31.8132 33.9907L38.0366 23.9992L31.8703 14.0075H37.4085L39.8921 18.6893C40.6058 19.7741 40.6914 21.0873 40.6629 22.1435H42.0903C42.0617 21.0873 42.1474 19.7741 42.861 18.6893L45.3447 14.0075H50.8829L44.7166 23.9992L50.94 33.9907H45.3161L42.804 29.1948C42.0617 28.0243 42.0617 26.8253 42.0903 25.7976H40.6629C40.6914 26.8253 40.6914 28.0243 39.9492 29.1948L37.4371 33.9907H31.8132ZM51.7926 14.0075H56.3599V33.9907H51.7926V14.0075ZM58.4739 33.9907V14.0075H64.6402L72.9757 30.8505H74.4032V30.565C72.719 27.3963 71.8624 24.8556 71.8624 22.1435V14.0075H76.2589V33.9907H70.1783L61.6424 16.8052H60.2149V17.0907C61.7279 19.4316 62.87 22.3148 62.87 25.5692V33.9907H58.4739ZM86.9987 34.4475C80.9467 34.4475 77.5492 30.3937 77.5492 23.9706C77.5492 17.576 81.4888 13.5508 87.7411 13.5508C93.2505 13.5508 96.7904 16.3199 97.2469 20.8874H92.3369C91.9942 18.8606 90.3674 17.6616 87.7411 17.6616C84.4579 17.6616 82.4023 20.0882 82.4023 23.9706C82.4023 28.0529 84.3149 30.3367 87.7411 30.3367C90.1676 30.3367 91.7944 29.0235 92.2801 26.7968H87.7411V23.2854H97.5328V33.9907H93.7644C93.8786 32.8203 94.4207 31.4786 95.4203 30.2225V29.937H93.8212C92.7079 32.7917 90.3674 34.4475 86.9987 34.4475ZM104.306 33.9907V17.7187H97.7687V14.0075H115.411V17.7187H108.874V33.9907H104.306ZM124.194 34.4475C117.943 34.4475 114.003 30.3937 114.003 23.9706C114.003 17.576 117.943 13.5508 124.194 13.5508C130.475 13.5508 134.414 17.576 134.414 23.9706C134.414 30.3937 130.475 34.4475 124.194 34.4475ZM118.856 23.9706C118.856 27.853 120.912 30.3367 124.194 30.3367C127.506 30.3367 129.561 27.853 129.561 23.9706C129.561 20.0881 127.506 17.6616 124.194 17.6616C120.912 17.6616 118.856 20.0882 118.856 23.9706ZM135.702 33.9907V14.0075H141.868L150.204 30.8505H151.632V30.565C149.947 27.3963 149.091 24.8556 149.091 22.1435V14.0075H153.487V33.9907H147.407L138.871 16.8052H137.444V17.0907C138.957 19.4316 140.099 22.3148 140.099 25.5692V33.9907H135.702Z" fill="black"/>
    </g>
    <defs>
        <clipPath id="clip0_832_59">
            <rect width="153" height="48" fill="black" transform="translate(0.5)"/>
        </clipPath>
    </defs>
</svg>