<svg width="200" height="50" viewBox="0 0 200 50" fill="none" xmlns="http://www.w3.org/2000/svg">
<path d="M49.325 13L51.275 15.7L38.225 33.775H42.125L53.3 18.4L55.25 21.1L43.775 36.925H32L49.325 13ZM47.675 36.925H59.45L61.775 33.775L63.125 31.9L61.175 29.2L57.875 33.775H53.975L59.225 26.5L57.275 23.8L47.675 36.925Z" fill="#161742"/>
<path d="M163.476 20.2002C161.826 20.2002 160.776 20.5752 159.576 21.2502C159.051 20.5752 158.151 20.2002 156.801 20.2002C155.376 20.2002 154.401 20.7252 153.426 21.3252V20.3502H150.426V33.7752H153.576V23.6502C154.551 23.1252 155.301 22.9002 155.751 22.9002C157.101 22.9002 157.401 23.3502 157.401 25.2252V33.8502H160.551V25.1502C160.551 24.5502 160.551 23.9502 160.476 23.4252C161.301 22.9752 162.201 22.8252 162.651 22.8252C164.001 22.8252 164.376 23.2752 164.376 25.1502V33.7752H167.526V25.1502C167.376 22.3752 166.701 20.2002 163.476 20.2002Z" fill="#161742"/>
<path d="M118.024 27.7752C118.024 29.7252 117.499 31.1502 115.474 31.1502H113.224V31.0002V29.8752V28.6752V22.9752C113.899 22.9002 114.949 22.8252 115.474 22.8252C117.499 22.8252 118.024 24.2502 118.024 26.2002V27.7752ZM115.474 20.2002C114.874 20.2002 114.049 20.2752 113.224 20.3502V15.7002H110.074V28.6752V32.3502V32.5002V33.5502V33.7752H115.399H115.474C119.299 33.7752 121.174 31.5252 121.174 27.7752V26.2002C121.174 22.4502 119.374 20.2002 115.474 20.2002Z" fill="#161742"/>
<path d="M77.0754 25.9002H72.0504V25.8252C72.0504 23.9502 73.1004 22.9002 74.6004 22.9002C76.1004 22.9002 77.0754 23.9502 77.0754 25.8252V25.9002ZM74.6004 20.2002C70.9254 20.2002 68.9004 22.5252 68.9004 26.2752V28.0002C68.9004 32.6502 72.2754 34.0002 74.6754 34.0002C76.4004 34.0002 77.3754 33.9252 78.5004 33.7002C78.7254 33.6252 79.0254 33.6252 79.2504 33.5502L79.7004 33.4752V33.0252V32.9502V31.3752V31.0002H79.2504C79.1754 31.0002 79.1754 31.0002 79.1004 31.0002L78.3504 31.0752C77.3754 31.1502 76.1754 31.2252 74.8254 31.2252C72.5754 31.2252 71.9754 29.5752 71.9754 28.2252V28.1502H79.4004H79.7754H80.2254V27.5502V27.3252V26.2752C80.2254 22.6752 78.2754 20.2002 74.6004 20.2002Z" fill="#161742"/>
<path d="M131.601 25.9002H126.576V25.8252C126.576 23.9502 127.626 22.9002 129.126 22.9002C130.626 22.9002 131.601 23.9502 131.601 25.8252V25.9002ZM129.126 20.2002C125.451 20.2002 123.426 22.5252 123.426 26.2752V28.0002C123.426 32.6502 126.801 34.0002 129.201 34.0002C130.926 34.0002 131.901 33.9252 133.026 33.7002C133.251 33.6252 133.551 33.6252 133.776 33.5502L134.226 33.4752V33.0252V32.9502V31.3752V31.0002L133.701 31.0752C133.626 31.0752 133.626 31.0752 133.551 31.0752L132.801 31.1502C131.826 31.2252 130.626 31.3002 129.276 31.3002C127.026 31.3002 126.426 29.6502 126.426 28.3002V28.2252H133.851H134.226H134.676V27.6252V27.4002V26.3502C134.751 22.6752 132.801 20.2002 129.126 20.2002Z" fill="#161742"/>
<path d="M103.625 30.7752C102.95 31.1502 102.05 31.4502 101.225 31.4502C100.025 31.4502 99.4996 31.1502 99.4996 29.9502V29.8752C99.4996 28.5252 99.9496 27.8502 102.125 27.8502H103.625V30.7752ZM101.525 20.2002C100.1 20.2002 98.8246 20.3502 97.9246 20.5002H97.7746C97.6996 20.5002 97.6246 20.5002 97.5496 20.5752L97.0996 20.6502V21.0252V21.1002V22.6002V22.6752V23.0502L97.9246 22.9752C98.7496 22.9002 100.175 22.8252 101.525 22.8252C102.95 22.8252 103.625 23.2002 103.625 24.7752V25.7502H102.125C97.9996 25.7502 96.3496 27.1752 96.3496 29.8752V29.9502C96.3496 33.1752 98.5246 33.9252 100.475 33.9252C101.6 33.9252 102.725 33.5502 103.85 32.8752V32.9502V33.2502V33.7002H104.3H106.25H106.7V33.2502V32.9502V24.7002C106.775 21.7002 104.9 20.2002 101.525 20.2002Z" fill="#161742"/>
<path d="M144.201 30.7752C143.526 31.1502 142.626 31.4502 141.801 31.4502C140.601 31.4502 140.076 31.1502 140.076 29.9502V29.8752C140.076 28.5252 140.526 27.8502 142.701 27.8502H144.201V30.7752ZM142.101 20.2002C140.676 20.2002 139.401 20.3502 138.501 20.5002H138.351C138.276 20.5002 138.201 20.5002 138.126 20.5752L137.676 20.6502V21.0252V21.1002V22.6002V22.6752V23.0502L138.501 22.9752C139.326 22.9002 140.751 22.8252 142.101 22.8252C143.526 22.8252 144.201 23.2002 144.201 24.7752V25.7502H142.701C138.576 25.7502 136.926 27.1752 136.926 29.8752V29.9502C136.926 33.1752 139.101 33.9252 141.051 33.9252C142.176 33.9252 143.301 33.5502 144.426 32.8752V32.9502V33.2502V33.7002H144.876H146.901H147.351V33.2502V32.9502V24.7002C147.276 21.7002 145.476 20.2002 142.101 20.2002Z" fill="#161742"/>
<path d="M91.4746 20.3506L88.1746 24.8506L84.9496 20.3506H81.7246L86.5996 27.1006L81.7246 33.7756H84.9496L88.1746 29.2756L91.4746 33.7756H94.6996L89.8246 27.1006L94.6996 20.3506H91.4746Z" fill="#161742"/>
</svg>
