<svg width="200" height="50" viewBox="0 0 200 50" fill="none" xmlns="http://www.w3.org/2000/svg">
<path d="M46.1742 37.9027C43.7193 37.9027 40.002 36.955 40.002 31.4505V22.1575H36.9512V20.4736L40.0018 20.1581V15.0379L42.351 14.9336L42.8424 20.0183L48.8746 19.9477V22.1575H42.9835V31.0996C42.9835 34.5708 44.6312 35.3777 46.5253 35.3777C47.3314 35.3777 48.4182 35.2371 49.3304 34.9921L49.8212 37.3064C48.4887 37.7618 47.1206 37.9027 46.1742 37.9027Z" fill="#161742"/>
<path d="M62.3632 28.5041C57.8394 28.5397 54.6479 29.452 54.6479 32.1862C54.6479 34.431 56.1209 35.6584 58.4003 35.6584C59.7679 35.6584 61.2058 35.2372 62.3632 34.0446V28.5041ZM63.0641 37.4815C62.9587 37.1314 62.8544 36.6751 62.7489 36.2542C61.101 37.5169 59.3823 37.9029 57.524 37.9029C54.0871 37.9029 51.6328 35.7275 51.6328 32.2567C51.6328 27.9786 56.191 26.5412 62.3633 26.4357V25.8739C62.3633 22.4374 60.8203 21.8063 58.7862 21.8063C57.7697 21.8063 56.0868 22.1219 54.8236 22.5432L54.1224 20.3687C55.6653 19.7727 57.9097 19.3516 59.4173 19.3516C61.9077 19.3516 65.3085 19.9834 65.3085 25.4536V34.1855C65.3085 35.1321 65.4137 36.3938 65.5546 37.3775L63.0641 37.4815Z" fill="#161742"/>
<path d="M75.0081 37.9022C73.1149 37.9022 70.4492 37.1653 70.4492 32.3969V12.3723L73.3953 11.917V32.2909C73.3953 34.9557 74.5172 35.3773 75.7093 35.3773C76.1304 35.3773 76.4809 35.3416 76.7964 35.2723L77.4279 37.587C76.7616 37.7614 75.9903 37.9022 75.0081 37.9022Z" fill="#161742"/>
<path d="M90.8108 37.3758L84.8145 29.2408H82.9557V37.3758H80.0098V12.3732L82.9557 11.917V27.978L90.6002 19.9479H94.0723L86.9181 27.311L94.3524 37.3758H90.8108Z" fill="#161742"/>
<path d="M108.788 22.6477C107.841 22.2266 106.578 21.9465 105.352 21.9465C102.021 21.9465 99.6695 23.8752 99.6695 28.6089C99.6695 33.3782 102.161 35.0965 104.792 35.0965C106.263 35.0965 107.702 34.4655 108.788 33.5179V22.6477ZM109.454 37.3758L109.349 36.2185C108.087 37.2013 106.333 37.9026 104.51 37.9026C100.162 37.9026 96.6543 34.9917 96.6543 28.6091C96.6543 22.2622 100.196 19.3158 105.316 19.3158C106.509 19.3158 107.772 19.5617 108.788 19.9478V12.3732L111.77 11.917V37.3759L109.454 37.3758Z" fill="#161742"/>
<path d="M126.652 27.6077C126.686 26.1172 126.024 23.6672 123.309 23.6672C120.792 23.6672 119.732 25.951 119.567 27.6077H126.652ZM119.567 30.4551C119.666 33.3684 121.918 34.628 124.534 34.628C126.421 34.628 127.745 34.3289 129.005 33.8992L129.6 36.6808C128.21 37.2763 126.289 37.7072 123.971 37.7072C118.738 37.7072 115.66 34.4955 115.66 29.5609C115.66 25.091 118.375 20.8857 123.541 20.8857C128.772 20.8857 130.495 25.1901 130.495 28.7336C130.495 29.4949 130.428 30.091 130.361 30.4553L119.567 30.4551Z" fill="#161742"/>
<path d="M138.623 37.9029C136.309 37.9029 134.906 37.4817 133.609 36.9912L133.96 34.6062C135.222 35.2022 136.59 35.5533 138.449 35.5533C140.658 35.5533 142.727 34.8164 142.727 32.6071C142.727 31.9768 142.446 31.4506 141.64 30.8194C140.343 29.8724 138.028 29.2409 136.449 28.1544C135.082 27.2078 134.452 25.874 134.452 24.3315C134.452 21.246 136.941 19.3516 139.991 19.3516C141.674 19.3516 142.797 19.5969 144.06 20.1238L143.779 22.2983C142.832 21.9114 141.849 21.7014 140.412 21.7014C138.484 21.7014 137.397 22.6834 137.397 24.1918C137.397 25.0331 137.957 25.8394 139.536 26.6461C141.395 27.5581 142.446 27.8376 143.849 28.7501C145.181 29.6621 145.812 30.8546 145.812 32.3628C145.812 36.7453 141.64 37.9029 138.623 37.9029Z" fill="#161742"/>
<path d="M160.457 37.3758L154.461 29.2408H152.602V37.3758H149.656V12.3732L152.602 11.917V27.978L160.247 19.9479H163.718L156.565 27.311L163.999 37.3758H160.457Z" fill="#161742"/>
<path d="M115.97 21.2229C116.211 19.3008 117.846 17.8127 119.833 17.8127H126.651C128.637 17.8127 130.273 19.3008 130.513 21.2229H131.765C132.227 21.2229 132.674 21.2818 133.104 21.3835V20.6948C133.104 17.4682 130.488 14.8516 127.26 14.8516H119.225C115.997 14.8516 113.381 17.4683 113.381 20.6948V21.3835C113.811 21.2818 114.258 21.2229 114.72 21.2229H115.97Z" fill="#161742"/>
</svg>
