<svg width="200" height="50" viewBox="0 0 200 50" fill="none" xmlns="http://www.w3.org/2000/svg">
<path fill-rule="evenodd" clip-rule="evenodd" d="M94.8319 29.1107C93.9292 29.3189 93.4622 29.0412 93.4622 28.4433C93.4622 27.624 94.3093 27.296 95.5195 27.296C96.0518 27.296 96.5539 27.342 96.5539 27.342C96.5539 27.6927 95.7918 28.8894 94.8319 29.1107ZM95.7505 20.9082C92.8608 20.9082 90.7861 21.9708 90.7861 21.9708V25.0946C90.7861 25.0946 93.0767 23.7778 94.9351 23.7778C96.4176 23.7778 96.5999 24.5778 96.5327 25.2414C96.5327 25.2414 96.1047 25.1282 94.7999 25.1282C91.724 25.1282 90.1719 26.5262 90.1719 28.7673C90.1719 30.8934 91.9163 31.7818 93.3865 31.7818C95.5311 31.7818 96.4744 30.3402 96.7637 29.6565C96.9649 29.1822 97.002 28.8624 97.182 28.8624C97.3887 28.8624 97.3192 29.0918 97.3087 29.5638C97.2917 30.3908 97.3311 31.0158 97.4621 31.5427H100.306V26.4269C100.306 23.2328 99.176 20.9082 95.7505 20.9082Z" fill="#161742"/>
<path fill-rule="evenodd" clip-rule="evenodd" d="M114.471 26.3505C114.471 25.4161 115.34 24.5651 116.934 24.5651C118.671 24.5651 120.069 25.4018 120.382 25.5918V21.9755C120.382 21.9755 119.278 20.9125 116.565 20.9125C113.704 20.9125 111.322 22.5862 111.322 26.189C111.322 29.7914 113.484 31.7892 116.557 31.7892C118.958 31.7892 120.389 30.4701 120.389 30.4701V27.0357C119.936 27.2887 118.675 28.1644 116.951 28.1644C115.127 28.1644 114.471 27.3247 114.471 26.3505ZM76.4571 21.1493C76.4575 21.1516 76.6387 21.9288 76.3999 22.9451C76.2783 23.4619 76.0546 23.9015 76.3246 23.9015C76.5108 23.9015 76.5112 23.747 76.7534 23.1931C77.1076 22.3835 77.8543 20.9098 79.5991 20.9098C81.2577 20.9098 82.0392 21.9176 82.298 22.8613C82.495 23.5782 82.3227 23.9015 82.5629 23.9015C82.7337 23.9015 82.7928 23.5295 83.0029 23.059C83.3803 22.2162 84.2011 20.9098 85.8613 20.9098C88.3663 20.9098 89.3227 22.7187 89.3227 25.4323V31.5466H85.6014V25.9097C85.6014 24.9699 85.4496 24.0583 84.5928 24.0583C83.799 24.0583 83.429 25.4651 83.429 26.3733V31.549H79.6392V25.9101C79.6392 24.7077 79.4697 24.0587 78.6245 24.0587C77.8929 24.0587 77.4661 25.3531 77.4661 26.3737V31.547H73.6914V21.1493H76.4571ZM101.546 21.1636C101.548 21.1644 102.19 21.5348 103.437 21.5348C104.686 21.5348 105.32 21.1636 105.32 21.1636V31.5493H101.546V21.1636ZM132.706 21.1636C132.708 21.1644 133.35 21.5348 134.598 21.5348C135.846 21.5348 136.48 21.1636 136.48 21.1636V31.5493H132.706V21.1636ZM110.316 18.0016V31.5493H106.542V18.0016H110.316ZM124.868 18.0016C124.869 18.0027 125.025 18.3921 125.025 19.5501C125.025 21.2602 124.653 22.6519 124.477 23.1823C124.384 23.4631 124.218 23.8965 124.456 23.9042C124.594 23.9085 124.676 23.7014 124.845 23.3422C125.012 22.9826 125.842 20.9121 128.027 20.9121C131.037 20.9121 131.48 23.3766 131.48 26.0453V31.549H127.706V25.8194C127.706 24.6443 127.459 24.0607 126.672 24.0607C125.721 24.0607 125.385 25.5331 125.385 26.376V31.549H121.61V18.0012H124.868L124.868 18.0016ZM140.521 21.1493C140.521 21.1516 140.703 21.9288 140.465 22.9451C140.343 23.4619 140.119 23.9015 140.389 23.9015C140.576 23.9015 140.576 23.747 140.818 23.1931C141.172 22.3835 141.918 20.9098 143.663 20.9098C145.397 20.9098 146.086 21.9222 146.363 22.8613C146.548 23.4905 146.387 23.9015 146.628 23.9015C146.798 23.9015 146.858 23.5295 147.068 23.059C147.444 22.2162 148.266 20.9098 149.926 20.9098C152.431 20.9098 153.387 22.7187 153.387 25.4323V31.5466H149.665V25.9097C149.665 24.9699 149.514 24.0583 148.658 24.0583C147.864 24.0583 147.493 25.4651 147.493 26.3733V31.549H143.704V25.9101C143.704 24.7077 143.535 24.0587 142.689 24.0587C141.958 24.0587 141.531 25.3531 141.531 26.3737V31.547H137.756V21.1493H140.521ZM103.422 17.8965C102.146 17.8965 101.112 18.5717 101.112 19.4045C101.112 20.2373 102.146 20.9125 103.422 20.9125C104.698 20.9125 105.733 20.2373 105.733 19.4045C105.733 18.5717 104.698 17.8965 103.422 17.8965ZM134.583 17.8965C133.307 17.8965 132.271 18.5717 132.271 19.4045C132.271 20.2373 133.306 20.9125 134.583 20.9125C135.858 20.9125 136.893 20.2373 136.893 19.4045C136.893 18.5717 135.859 17.8965 134.583 17.8965Z" fill="#161742"/>
<path fill-rule="evenodd" clip-rule="evenodd" d="M159.815 29.309C158.95 29.309 158.313 28.2115 158.313 26.6822C158.313 25.197 158.967 24.0563 159.785 24.0563C160.835 24.0563 161.283 25.0193 161.283 26.6822C161.283 28.4123 160.87 29.309 159.815 29.309ZM160.851 20.9062C158.911 20.9062 158.022 22.3606 157.635 23.1891C157.38 23.7365 157.393 23.8976 157.207 23.8976C156.937 23.8976 157.161 23.458 157.282 22.9411C157.522 21.9233 157.34 21.1458 157.34 21.1458H154.576V34.4115H158.349V30.2058C158.795 30.9633 159.622 31.7725 160.897 31.7725C163.626 31.7725 164.999 29.4639 164.999 26.3447C164.999 22.8095 163.356 20.9062 160.851 20.9062Z" fill="#161742"/>
<path fill-rule="evenodd" clip-rule="evenodd" d="M60.3501 24.0451C60.6039 24.015 60.8469 24.0134 61.0705 24.0451C61.1999 23.7485 61.2219 23.2374 61.1057 22.6808C60.933 21.8534 60.6989 21.3528 60.2153 21.4308C59.7317 21.5088 59.7139 22.1083 59.887 22.9353C59.9843 23.4008 60.1574 23.7987 60.3501 24.0451Z" fill="#161742"/>
<path fill-rule="evenodd" clip-rule="evenodd" d="M56.1998 24.6999C56.5455 24.8517 56.7584 24.9525 56.8414 24.8644C56.8951 24.8096 56.8789 24.7049 56.7962 24.5701C56.6255 24.2916 56.2744 24.0088 55.9016 23.8501C55.1399 23.5221 54.231 23.631 53.5299 24.1347C53.2985 24.3043 53.0791 24.5392 53.1104 24.6817C53.1204 24.7277 53.1552 24.7624 53.2363 24.774C53.4272 24.7957 54.0939 24.4588 54.8622 24.4117C55.4041 24.3785 55.8537 24.5481 56.1998 24.6999Z" fill="#161742"/>
<path fill-rule="evenodd" clip-rule="evenodd" d="M55.5039 25.0968C55.0531 25.1679 54.8047 25.3166 54.6452 25.4545C54.5092 25.5735 54.425 25.7052 54.4258 25.7975C54.4262 25.8415 54.4451 25.867 54.4602 25.8798C54.4806 25.8979 54.505 25.908 54.5343 25.908C54.6359 25.908 54.8642 25.8164 54.8642 25.8164C55.4911 25.592 55.9048 25.6194 56.3147 25.6658C56.541 25.6913 56.6484 25.7052 56.6978 25.6275C56.7125 25.6051 56.7303 25.5568 56.6851 25.4835C56.5796 25.3123 56.1242 25.023 55.5039 25.0968Z" fill="#161742"/>
<path fill-rule="evenodd" clip-rule="evenodd" d="M58.9486 26.5538C59.2546 26.7041 59.5914 26.645 59.7011 26.4221C59.8108 26.1993 59.6517 25.8964 59.3457 25.7462C59.0398 25.5959 58.703 25.655 58.5933 25.8779C58.4836 26.1011 58.6427 26.4036 58.9486 26.5538Z" fill="#161742"/>
<path fill-rule="evenodd" clip-rule="evenodd" d="M60.9157 24.836C60.6673 24.8317 60.461 25.1044 60.4552 25.4455C60.4495 25.7866 60.6465 26.0659 60.8948 26.0701C61.1432 26.0744 61.3495 25.8017 61.3553 25.4606C61.3611 25.1199 61.1641 24.8402 60.9157 24.836Z" fill="#161742"/>
<path fill-rule="evenodd" clip-rule="evenodd" d="M44.2241 30.9817C44.1623 30.904 44.0607 30.9276 43.9622 30.9508C43.8934 30.967 43.8158 30.9848 43.7304 30.9836C43.5477 30.9801 43.3928 30.9021 43.3059 30.7685C43.1927 30.5946 43.1993 30.3354 43.3241 30.0388L43.3824 29.9059C43.5817 29.4586 43.9151 28.7104 43.5408 27.9973C43.2588 27.4604 42.7991 27.1263 42.2464 27.056C41.7156 26.9888 41.1694 27.1854 40.821 27.5697C40.2714 28.1762 40.1852 29.0016 40.2914 29.2933C40.3305 29.3999 40.3915 29.4296 40.4355 29.4358C40.529 29.4482 40.6673 29.3802 40.7538 29.1473L40.7785 29.0716C40.8172 28.9483 40.889 28.7189 41.0068 28.535C41.149 28.3133 41.3699 28.1607 41.6295 28.1047C41.8937 28.0479 42.1641 28.0985 42.3905 28.2469C42.7756 28.4987 42.9239 28.9707 42.7593 29.4208C42.6744 29.6537 42.5361 30.099 42.5666 30.4649C42.6284 31.2053 43.0838 31.5028 43.4929 31.5344C43.8907 31.5495 44.1689 31.3259 44.2392 31.1628C44.2805 31.0663 44.2457 31.0076 44.2229 30.9825" fill="#161742"/>
<path fill-rule="evenodd" clip-rule="evenodd" d="M48.006 17.38C49.3039 15.8805 50.9012 14.5768 52.3323 13.8448C52.3817 13.8193 52.4343 13.873 52.4076 13.9217C52.2941 14.1276 52.075 14.5683 52.0059 14.9024C51.9951 14.9546 52.0519 14.9936 52.0959 14.9639C52.9863 14.357 54.5348 13.7065 55.8934 13.6231C55.9517 13.6196 55.9799 13.6942 55.9335 13.7301C55.7269 13.8885 55.5009 14.1079 55.336 14.3296C55.3078 14.3675 55.3344 14.4215 55.3815 14.4219C56.3353 14.4289 57.6799 14.7626 58.5563 15.2543C58.6154 15.2876 58.5733 15.4023 58.5069 15.3872C57.1808 15.0832 55.0103 14.8526 52.7553 15.4027C50.7424 15.8936 49.2058 16.6519 48.0852 17.4669C48.0284 17.5082 47.96 17.4329 48.006 17.38ZM59.8206 32.5401C59.8592 32.5239 59.8855 32.4802 59.8812 32.4366C59.8758 32.3829 59.8279 32.3439 59.7742 32.3493C59.7742 32.3493 57.005 32.7591 54.3888 31.8015C54.6739 30.8753 55.4314 31.2098 56.5767 31.3021C58.6409 31.4253 60.4912 31.1236 61.8586 30.7312C63.0433 30.3913 64.5996 29.7207 65.8082 28.7666C66.2157 29.662 66.3598 30.6477 66.3598 30.6477C66.3598 30.6477 66.6754 30.5913 66.9392 30.7536C67.1884 30.9069 67.3711 31.2256 67.2463 32.0499C66.9922 33.5896 66.3378 34.8396 65.2377 35.9895C64.5679 36.7103 63.7552 37.3368 62.825 37.7926C62.331 38.0522 61.8053 38.2766 61.2494 38.4578C57.1024 39.8125 52.8572 38.3234 51.4891 35.1258C51.3797 34.8855 51.2874 34.6337 51.2148 34.3706C50.6319 32.2635 51.1267 29.7354 52.6741 28.1439C52.7696 28.0427 52.8669 27.9226 52.8669 27.7723C52.8669 27.6468 52.7869 27.5143 52.7178 27.42C52.1762 26.6347 50.3009 25.2967 50.6775 22.7071C50.9479 20.8468 52.5749 19.5366 54.0918 19.6142L54.4761 19.6362C55.1336 19.6752 55.7068 19.7595 56.248 19.7822C57.1538 19.8216 57.968 19.6899 58.9329 18.8861C59.2582 18.6149 59.5193 18.3797 59.9608 18.3051C60.0072 18.297 60.1227 18.2557 60.3533 18.2665C60.5889 18.2793 60.8129 18.3438 61.0142 18.4778C61.7875 18.9923 61.8972 20.2388 61.9374 21.1504C61.9602 21.6707 62.0231 22.93 62.0448 23.2915C62.0938 24.1182 62.3113 24.2344 62.7509 24.3793C62.9981 24.4608 63.2275 24.5214 63.5659 24.6165C64.5895 24.9038 65.1964 25.1955 65.5792 25.5702C65.8075 25.8043 65.9137 26.053 65.9465 26.2902C66.067 27.1709 65.2628 28.2586 63.1333 29.2471C60.8056 30.3275 57.9815 30.601 56.0305 30.3835L55.3468 30.3063C53.7862 30.0961 52.8959 32.1129 53.8326 33.495C54.4363 34.3857 56.0807 34.9651 57.7258 34.9655C61.4978 34.9659 64.3972 33.3551 65.4757 31.9642L65.5618 31.8413C65.6151 31.7614 65.5711 31.7173 65.505 31.7625C64.6239 32.3655 60.7102 34.7592 56.5238 34.0388C56.5238 34.0388 56.015 33.955 55.5507 33.7746C55.1818 33.6309 54.4093 33.2756 54.3154 32.4833C57.6938 33.5282 59.8206 32.5401 59.8206 32.5401ZM41.2644 24.5114C40.0893 24.7397 39.0537 25.4056 38.4206 26.3257C38.0421 26.0101 37.3371 25.3991 37.2124 25.1607C36.2015 23.2409 38.3156 19.5088 39.7927 17.4009C43.443 12.192 49.1598 8.24925 51.8062 8.96463C52.2365 9.08631 53.6615 10.7384 53.6615 10.7384C53.6615 10.7384 51.0159 12.2063 48.5627 14.2523C45.2569 16.7975 42.7604 20.4968 41.2644 24.5114ZM43.2386 33.3204C43.0609 33.3509 42.8794 33.3629 42.6963 33.3582C40.9283 33.3107 39.019 31.7193 38.8293 29.8319C38.6196 27.7457 39.6857 26.1403 41.573 25.7594C41.7986 25.7139 42.0713 25.6876 42.3653 25.7031C43.4229 25.761 44.9811 26.5729 45.3369 28.8767C45.6521 30.917 45.1515 32.9944 43.2386 33.3204ZM67.1861 29.626C67.171 29.5724 67.0721 29.212 66.9365 28.7774C66.801 28.3425 66.6607 28.0369 66.6607 28.0369C67.2046 27.223 67.2143 26.4949 67.1417 26.0828C67.0644 25.5717 66.8516 25.1364 66.4228 24.686C65.994 24.236 65.1168 23.7748 63.8842 23.4287L63.2376 23.249C63.2345 23.2224 63.2036 21.7244 63.1758 21.0813C63.1553 20.6162 63.1155 19.8904 62.8903 19.1758C62.6219 18.2082 62.1545 17.3615 61.5708 16.8199C63.1816 15.1504 64.187 13.311 64.1843 11.7335C64.1797 8.69926 60.4533 7.78109 55.8609 9.68272L54.8879 10.0957C54.8836 10.0914 53.1288 8.36977 53.1025 8.3466C47.8666 3.77968 31.4963 21.9759 36.7299 26.3952L37.8737 27.3644C37.577 28.1331 37.4604 29.0138 37.5558 29.9606C37.6778 31.1769 38.3051 32.3427 39.3222 33.2435C40.2875 34.0987 41.5568 34.6403 42.7882 34.6391C44.8251 39.3327 49.4789 42.212 54.9354 42.3742C60.7886 42.5481 65.702 39.8017 67.7608 34.8682C67.8957 34.5221 68.467 32.9619 68.467 31.5845C68.467 30.2004 67.6844 29.626 67.1861 29.626Z" fill="#161742"/>
</svg>
