<svg width="200" height="50" viewBox="0 0 200 50" fill="none" xmlns="http://www.w3.org/2000/svg">
<mask id="mask0_3408_41" style="mask-type:luminance" maskUnits="userSpaceOnUse" x="10" y="13" width="180" height="24">
<path d="M190 13H10V36.7H190V13Z" fill="white"/>
</mask>
<g mask="url(#mask0_3408_41)">
<path d="M17.4 13H29.8C30.4 13 30.9 13.5 30.9 14.1C30.9 14.3 30.8 14.5 30.7 14.7L24.8 24.9L30.7 35C30.8 35.2 30.9 35.4 30.9 35.6C30.9 36.2 30.4 36.7 29.8 36.7H17.4C17.2 36.7 17 36.7 16.9 36.6C16.7 36.5 16.6 36.4 16.5 36.2L10.2 25.4C10 25.1 10 25 10 24.9C10 24.8 10 24.6 10.1 24.5L16.5 13.6C16.6 13.4 16.7 13.3 16.9 13.2C17.1 13 17.2 13 17.4 13ZM23.6 26.9L19.2 34.5H28L23.6 26.9ZM22.4 24.8L17.4 16.1L12.3 24.8L17.4 33.5L22.4 24.8ZM19.2 15.1L23.6 22.7L28 15.1H19.2Z" fill="#161742"/>
<path fill-rule="evenodd" clip-rule="evenodd" d="M145 29.7004C145 28.7004 144.2 27.9004 143.2 27.9004C142.2 27.9004 141.4 28.7004 141.4 29.7004C141.4 30.7004 142.2 31.5004 143.2 31.5004C144.2 31.5004 145 30.7004 145 29.7004Z" fill="#161742"/>
<path fill-rule="evenodd" clip-rule="evenodd" d="M40.8 31C40 30.6 39.3 30.2 38.7 29.6C38.1 29 37.7 28.3 37.4 27.4C37.1 26.7 37 25.7 37 24.8C37 23.9 37.2 23 37.5 22.2C37.8 21.4 38.2 20.7 38.8 20C39.4 19.4 40 19 40.8 18.6C41.5 18.2 42.5 18 43.4 18C44.2 18 45 18.1 45.6 18.4C46.3 18.6 46.8 19 47.3 19.3C47.8 19.7 48.1 20.1 48.5 20.8C48.8 21.4 49 22 49.2 22.7H46C45.9 22.1 45.6 21.7 45.3 21.3C44.9 20.9 44.4 20.7 43.8 20.7C42.8 20.7 42 21.1 41.5 21.7C41 22.4 40.8 23.4 40.8 24.6C40.8 25.8 41.1 26.8 41.5 27.5C42 28.2 42.7 28.6 43.7 28.6C44.4 28.6 44.9 28.4 45.4 28C45.9 27.6 46.1 27.1 46.2 26.4H49.5C49.4 27.1 49.3 27.7 49 28.3C48.7 28.9 48.3 29.4 47.9 29.8C47.4 30.3 46.9 30.5 46.1 30.8C45.4 31.1 44.7 31.2 43.9 31.2C42.5 31.6 41.7 31.4 40.8 31Z" fill="#161742"/>
<path fill-rule="evenodd" clip-rule="evenodd" d="M54.5 20.1C55 19.5 55.5 18.9 56 18.6C56.6 18.2 57.3 18.1 58.2 18.1C58.9 18.1 59.4 18.2 60 18.5C60.6 18.8 61 19.1 61.4 19.5C61.7 20 62 20.5 62.2 21.1C62.4 21.7 62.5 22.3 62.5 23V31.2H59.1V23.4C59.1 22.7 58.9 22.2 58.5 21.7C58.1 21.2 57.6 21 56.9 21C56.2 21 55.6 21.3 55 21.8C54.5 22.4 54.3 23 54.3 24V31.2H51V13.5H54.4L54.5 20.1Z" fill="#161742"/>
<path fill-rule="evenodd" clip-rule="evenodd" d="M68.1008 31C67.3008 30.6 66.6008 30.2 66.0008 29.6C65.4008 29 65.0008 28.3 64.7008 27.4C64.4008 26.6 64.3008 25.7 64.3008 24.8C64.3008 23.9 64.5008 23 64.8008 22.2C65.1008 21.4 65.5008 20.7 66.1008 20C66.7008 19.4 67.3008 19 68.1008 18.6C68.8008 18.2 69.7008 18 70.6008 18C71.6008 18 72.5008 18.2 73.3008 18.6C74.0008 19 74.7008 19.5 75.3008 20.2C75.9008 20.9 76.2008 21.7 76.5008 22.6C76.8008 23.5 76.9008 24.6 76.9008 25.7H67.7008C67.8008 26.7 68.2008 27.5 68.7008 28C69.3008 28.6 70.0008 28.8 70.9008 28.8C71.6008 28.8 72.1008 28.7 72.5008 28.4C72.9008 28.1 73.2008 27.7 73.3008 27.3H76.5008C76.5008 28 76.4008 28.6 76.0008 29C75.7008 29.5 75.3008 29.9 74.8008 30.3C74.3008 30.7 73.8008 31 73.1008 31.2C72.4008 31.4 71.7008 31.6 70.9008 31.6C69.9008 31.6 69.0008 31.4 68.1008 31ZM68.6008 21.5C68.1008 22 67.9008 22.6 67.7008 23.5H73.3008C73.2008 22.7 73.0008 22 72.5008 21.5C72.0008 21 71.3008 20.7 70.5008 20.7C69.8008 20.7 69.0008 21 68.6008 21.5Z" fill="#161742"/>
<path fill-rule="evenodd" clip-rule="evenodd" d="M81.9 31C81.1 30.6 80.4 30.2 79.8 29.6C79.2 29 78.8 28.3 78.5 27.4C78.2 26.7 78 25.7 78 24.8C78 23.9 78.2 23 78.5 22.2C78.8 21.4 79.2 20.7 79.8 20C80.4 19.4 81 19 81.8 18.6C82.5 18.2 83.5 18 84.4 18C85.2 18 86 18.1 86.6 18.4C87.3 18.6 87.8 19 88.3 19.3C88.8 19.7 89.1 20.1 89.5 20.8C89.8 21.4 90 22 90.2 22.7H86.9C86.8 22.1 86.5 21.7 86.2 21.3C85.9 20.9 85.3 20.7 84.7 20.7C83.7 20.7 82.9 21.1 82.4 21.7C81.9 22.4 81.7 23.4 81.7 24.6C81.7 25.8 82 26.8 82.4 27.5C82.9 28.2 83.6 28.6 84.6 28.6C85.3 28.6 85.8 28.4 86.3 28C86.8 27.6 87 27.1 87.1 26.4H90.4C90.3 27.1 90.2 27.7 89.9 28.3C89.6 28.9 89.2 29.4 88.8 29.8C88.3 30.3 87.8 30.5 87 30.8C86.3 31.1 85.6 31.2 84.8 31.2C83.6 31.6 82.6 31.4 81.9 31Z" fill="#161742"/>
<path fill-rule="evenodd" clip-rule="evenodd" d="M95.4 26.9V31.2H92V13.5H95.4V23.2L99.9 18.5H103.9L99.2 23.2L104.5 31.1H100.4L96.9 25.3L95.4 26.9Z" fill="#161742"/>
<path fill-rule="evenodd" clip-rule="evenodd" d="M108.199 31C107.399 30.6 106.699 30.2 106.099 29.6C105.499 29 105.099 28.3 104.699 27.4C104.399 26.6 104.199 25.7 104.199 24.8C104.199 23.9 104.399 23 104.699 22.2C104.999 21.4 105.399 20.7 106.099 20C106.699 19.4 107.399 19 108.199 18.6C108.999 18.2 109.899 18 110.899 18C111.899 18 112.799 18.2 113.599 18.6C114.399 19 115.099 19.4 115.699 20C116.299 20.6 116.699 21.3 116.999 22.2C117.299 23 117.499 23.9 117.499 24.8C117.499 25.7 117.299 26.6 116.999 27.4C116.699 28.2 116.299 28.9 115.699 29.6C115.099 30.2 114.399 30.6 113.599 31C112.799 31.4 111.899 31.6 110.899 31.6C109.899 31.6 108.999 31.4 108.199 31ZM113.299 27.8C113.899 27.1 114.099 26 114.099 24.8C114.099 23.6 113.799 22.6 113.299 21.8C112.699 21.1 111.999 20.7 110.999 20.7C109.999 20.7 109.099 21.1 108.699 21.8C108.099 22.5 107.899 23.6 107.899 24.8C107.899 26 108.199 27 108.699 27.8C109.299 28.5 109.999 28.9 110.999 28.9C111.899 29 112.699 28.6 113.299 27.8Z" fill="#161742"/>
<path fill-rule="evenodd" clip-rule="evenodd" d="M127.299 29.7004C126.799 30.3004 126.299 30.7004 125.799 31.0004C125.199 31.3004 124.499 31.5004 123.599 31.5004C122.199 31.5004 121.099 31.1004 120.299 30.3004C119.599 29.5004 119.199 28.3004 119.199 26.9004V18.5004H122.599V26.4004C122.599 27.1004 122.799 27.7004 123.099 28.1004C123.499 28.5004 123.899 28.7004 124.699 28.7004C125.399 28.7004 126.099 28.4004 126.599 27.9004C127.099 27.3004 127.299 26.7004 127.299 25.8004V18.4004H130.699V31.0004H127.399V29.7004H127.299Z" fill="#161742"/>
<path fill-rule="evenodd" clip-rule="evenodd" d="M133.799 18.5996V14.5996H137.099V18.4996H139.299V20.6996H137.099V27.3996C137.099 27.8996 137.199 28.1996 137.499 28.3996C137.699 28.5996 138.099 28.6996 138.399 28.6996H139.099C139.199 28.6996 139.299 28.6996 139.499 28.6996V31.0996C139.299 31.0996 139.099 31.0996 138.899 31.0996C138.699 31.0996 138.499 31.0996 138.199 31.0996H137.399C136.999 31.0996 136.599 31.0996 136.199 30.9996C135.799 30.8996 135.499 30.6996 135.099 30.4996C134.699 30.2996 134.499 29.8996 134.299 29.5996C134.099 29.1996 133.999 28.7996 133.999 28.0996V20.6996H132.199V18.5996H133.799Z" fill="#161742"/>
<path fill-rule="evenodd" clip-rule="evenodd" d="M149.9 30.9996C149.2 30.5996 148.6 30.1996 148.1 29.5996C147.6 28.9996 147.3 28.2996 147 27.3996C146.7 26.5996 146.6 25.6996 146.6 24.7996C146.6 23.8996 146.7 22.8996 147 22.1996C147.3 21.3996 147.7 20.6996 148.1 19.9996C148.6 19.3996 149.2 18.9996 150 18.5996C150.7 18.1996 151.6 18.0996 152.4 18.0996C153.8 18.0996 154.9 18.4996 155.9 19.1996C156.8 19.8996 157.4 20.9996 157.6 22.2996H156.1C155.9 21.3996 155.5 20.5996 154.9 20.0996C154.2 19.5996 153.5 19.3996 152.5 19.3996C151.8 19.3996 151.1 19.5996 150.6 19.8996C150 20.1996 149.7 20.5996 149.3 20.9996C148.9 21.4996 148.7 21.9996 148.6 22.6996C148.4 23.3996 148.3 23.9996 148.3 24.7996C148.3 25.4996 148.4 26.1996 148.6 26.8996C148.8 27.5996 149.1 28.0996 149.3 28.5996C149.7 29.0996 150 29.3996 150.6 29.6996C151.2 29.9996 151.7 30.0996 152.5 30.0996C153.6 30.0996 154.5 29.7996 155.1 29.1996C155.8 28.4996 156.1 27.7996 156.3 26.7996H157.8C157.6 28.1996 157.1 29.3996 156.2 30.2996C155.3 31.0996 154 31.5996 152.5 31.5996C151.5 31.4996 150.7 31.2996 149.9 30.9996Z" fill="#161742"/>
<path fill-rule="evenodd" clip-rule="evenodd" d="M162.5 30.9996C161.8 30.5996 161.2 30.1996 160.6 29.5996C160.1 28.9996 159.7 28.2996 159.4 27.3996C159.1 26.5996 159 25.6996 159 24.7996C159 23.8996 159.1 22.8996 159.4 22.1996C159.7 21.3996 160.1 20.6996 160.6 19.9996C161.1 19.3996 161.7 18.9996 162.5 18.5996C163.2 18.1996 164.1 18.0996 164.9 18.0996C165.8 18.0996 166.7 18.2996 167.3 18.5996C168 18.9996 168.6 19.3996 169.2 19.9996C169.7 20.5996 170.1 21.2996 170.3 22.1996C170.6 22.9996 170.7 23.8996 170.7 24.7996C170.7 25.6996 170.6 26.6996 170.3 27.3996C170 28.1996 169.6 28.8996 169.2 29.5996C168.7 30.1996 168.1 30.5996 167.3 30.9996C166.6 31.3996 165.7 31.4996 164.9 31.4996C164 31.4996 163.2 31.2996 162.5 30.9996ZM166.8 29.7996C167.4 29.4996 167.8 29.0996 168.1 28.6996C168.5 28.1996 168.8 27.6996 168.9 26.9996C169.1 26.2996 169.2 25.6996 169.2 24.8996C169.2 24.1996 169.1 23.4996 168.9 22.7996C168.7 22.0996 168.4 21.5996 168.1 21.0996C167.7 20.5996 167.3 20.2996 166.8 19.9996C166.2 19.6996 165.7 19.5996 164.9 19.5996C164.2 19.5996 163.6 19.6996 163 19.9996C162.4 20.2996 162 20.6996 161.7 21.0996C161.3 21.5996 161 22.0996 160.9 22.7996C160.7 23.4996 160.6 24.0996 160.6 24.8996C160.6 25.5996 160.7 26.2996 160.9 26.9996C161.1 27.6996 161.4 28.1996 161.7 28.6996C162.1 29.1996 162.5 29.4996 163 29.7996C163.6 30.0996 164.1 30.1996 164.9 30.1996C165.6 30.1996 166.3 30.0996 166.8 29.7996Z" fill="#161742"/>
<path fill-rule="evenodd" clip-rule="evenodd" d="M174.5 18.3996V20.3996H174.6C175 19.6996 175.5 19.2996 176.2 18.7996C176.9 18.3996 177.6 18.0996 178.5 18.0996C179.2 18.0996 180 18.2996 180.6 18.6996C181.3 19.0996 181.6 19.5996 181.9 20.4996H182C182.5 19.7996 183 19.1996 183.7 18.7996C184.4 18.3996 185.2 18.1996 186.1 18.1996C186.7 18.1996 187.1 18.2996 187.6 18.4996C188.1 18.6996 188.4 18.9996 188.8 19.1996C189.2 19.5996 189.5 19.8996 189.6 20.3996C189.8 20.8996 189.9 21.3996 189.9 22.0996V31.1996H188.4V22.2996C188.4 21.3996 188.1 20.5996 187.7 20.0996C187.2 19.5996 186.6 19.3996 185.7 19.3996C185.2 19.3996 184.8 19.4996 184.4 19.6996C184 19.8996 183.7 20.0996 183.3 20.3996C183 20.6996 182.7 21.0996 182.6 21.4996C182.4 21.9996 182.3 22.3996 182.3 22.9996V31.1996H180.6V22.3996C180.6 21.4996 180.3 20.6996 179.9 20.1996C179.4 19.6996 178.8 19.4996 178 19.4996C177.5 19.4996 177.1 19.5996 176.7 19.7996C176.2 19.9996 175.9 20.2996 175.6 20.4996C175.2 20.7996 175 21.1996 174.8 21.5996C174.6 22.0996 174.5 22.4996 174.5 22.9996V31.1996H173V18.3996H174.5Z" fill="#161742"/>
</g>
</svg>
