<svg  viewBox="0 0 136 48" fill="none"
    xmlns="http://www.w3.org/2000/svg">
    <g clip-path="url(#clip0_832_2)">
        <path fill-rule="evenodd" clip-rule="evenodd" d="M17.93 5C8.29992 5 0.5 12.7999 0.5 22.43C0.5 30.1428 5.48934 36.6572 12.4178 38.9667C13.2893 39.1192 13.6161 38.5963 13.6161 38.1388C13.6161 37.7248 13.5943 36.3522 13.5943 34.8924C9.215 35.6986 8.08205 33.8249 7.73345 32.8444C7.53736 32.3433 6.68765 30.7964 5.94687 30.3824C5.33682 30.0556 4.46532 29.2495 5.92509 29.2277C7.2977 29.2059 8.27814 30.4914 8.60495 31.0143C10.1736 33.6506 12.6792 32.9098 13.6814 32.4522C13.8339 31.3193 14.2915 30.5567 14.7926 30.121C10.9144 29.6852 6.86195 28.1819 6.86195 21.5149C6.86195 19.6194 7.53736 18.0507 8.64852 16.8306C8.47422 16.3949 7.86417 14.6083 8.82282 12.2117C8.82282 12.2117 10.2826 11.7541 13.6161 13.9982C15.0105 13.6061 16.492 13.41 17.9736 13.41C19.4551 13.41 20.9367 13.6061 22.3311 13.9982C25.6646 11.7323 27.1243 12.2117 27.1243 12.2117C28.083 14.6083 27.4729 16.3949 27.2986 16.8306C28.4098 18.0507 29.0852 19.5976 29.0852 21.5149C29.0852 28.2037 25.0109 29.6852 21.1328 30.121C21.7646 30.6657 22.3093 31.7115 22.3093 33.3455C22.3093 35.6768 22.2875 37.5505 22.2875 38.1388C22.2875 38.5963 22.6143 39.141 23.4858 38.9667C26.946 37.7986 29.9527 35.5748 32.0828 32.6083C34.2129 29.6418 35.3591 26.082 35.36 22.43C35.36 12.7999 27.5601 5 17.93 5Z" fill="white"/>
        <path d="M81.7559 30.8434H81.7153C81.7336 30.8434 81.7458 30.8637 81.7641 30.8658H81.7763L81.7559 30.8454V30.8434ZM81.7641 30.8658C81.575 30.8678 81.0991 30.9675 80.5968 30.9675C79.0107 30.9675 78.4617 30.2354 78.4617 29.2797V22.9128H81.6949C81.8779 22.9128 82.0203 22.7501 82.0203 22.5264V19.0695C82.0203 18.8864 81.8576 18.7238 81.6949 18.7238H78.4617V14.4331C78.4617 14.2704 78.36 14.1687 78.177 14.1687H73.7846C73.6016 14.1687 73.4999 14.2704 73.4999 14.4331V18.8458C73.4999 18.8458 71.2834 19.3948 71.1411 19.4151C70.9784 19.4558 70.8767 19.5982 70.8767 19.7608V22.5264C70.8767 22.7501 71.0394 22.9128 71.2224 22.9128H73.4796V29.5826C73.4796 34.5444 76.9365 35.0528 79.2954 35.0528C80.3732 35.0528 81.6746 34.7071 81.8779 34.6054C82 34.5647 82.061 34.4224 82.061 34.28V31.2298C82.0638 31.1433 82.0353 31.0586 81.9808 30.9914C81.9262 30.9242 81.8493 30.8789 81.7641 30.8637V30.8658ZM129.95 26.3901C129.95 22.7094 128.465 22.2214 126.899 22.3841C125.679 22.4654 124.703 23.0754 124.703 23.0754V30.2334C124.703 30.2334 125.7 30.9248 127.184 30.9654C129.279 31.0264 129.95 30.274 129.95 26.3901ZM134.891 26.0647C134.891 33.0396 132.634 35.0324 128.689 35.0324C125.354 35.0324 123.564 33.3446 123.564 33.3446C123.564 33.3446 123.483 34.28 123.381 34.402C123.32 34.524 123.219 34.5647 123.097 34.5647H120.087C119.884 34.5647 119.701 34.402 119.701 34.219L119.742 11.6268C119.742 11.4438 119.904 11.2812 120.087 11.2812H124.419C124.602 11.2812 124.764 11.4438 124.764 11.6268V19.2931C124.764 19.2931 126.432 18.2154 128.872 18.2154L128.852 18.1747C131.292 18.1747 134.891 19.0898 134.891 26.0647ZM117.159 18.7238H112.889C112.665 18.7238 112.543 18.8864 112.543 19.1101V30.1724C112.543 30.1724 111.424 30.9654 109.899 30.9654C108.374 30.9654 107.927 30.274 107.927 28.7489V19.0898C107.927 18.9068 107.764 18.7441 107.581 18.7441H103.229C103.046 18.7441 102.884 18.9068 102.884 19.0898V29.481C102.884 33.9547 105.385 35.0731 108.822 35.0731C111.648 35.0731 113.946 33.5073 113.946 33.5073C113.946 33.5073 114.048 34.3004 114.109 34.4224C114.149 34.524 114.292 34.6054 114.434 34.6054H117.159C117.383 34.6054 117.505 34.4427 117.505 34.2597L117.545 19.0695C117.545 18.8864 117.383 18.7238 117.159 18.7238ZM68.9652 18.7034H64.6339C64.4509 18.7034 64.2882 18.8864 64.2882 19.1101V34.036C64.2882 34.4427 64.5525 34.5851 64.8982 34.5851H68.8025C69.2092 34.5851 69.3109 34.402 69.3109 34.036V19.0491C69.3109 18.8661 69.1482 18.7034 68.9652 18.7034ZM66.83 11.8302C65.2643 11.8302 64.0238 13.0706 64.0238 14.6364C64.0238 16.2022 65.2643 17.4427 66.83 17.4427C68.3552 17.4427 69.5956 16.2022 69.5956 14.6364C69.5956 13.0706 68.3552 11.8302 66.83 11.8302ZM100.362 11.3218H96.0718C95.8888 11.3218 95.7261 11.4845 95.7261 11.6675V19.9845H88.9952V11.6675C88.9952 11.4845 88.8325 11.3218 88.6495 11.3218H84.3182C84.1351 11.3218 83.9725 11.4845 83.9725 11.6675V34.2597C83.9725 34.4427 84.1555 34.6054 84.3182 34.6054H88.6495C88.8325 34.6054 88.9952 34.4427 88.9952 34.2597V24.6006H95.7261L95.6854 34.2597C95.6854 34.4427 95.8481 34.6054 96.0311 34.6054H100.362C100.545 34.6054 100.708 34.4427 100.708 34.2597V11.6675C100.708 11.4845 100.545 11.3218 100.362 11.3218ZM61.9903 21.3266V32.9989C61.9903 33.0803 61.97 33.2226 61.8683 33.2633C61.8683 33.2633 59.3264 35.0731 55.1374 35.0731C50.074 35.0731 44.0752 33.487 44.0752 23.0348C44.0752 12.5826 49.3216 10.4271 54.446 10.4474C58.8791 10.4474 60.6685 11.4438 60.9532 11.6268C61.0346 11.7285 61.0752 11.8099 61.0752 11.9115L60.2212 15.5312C60.2212 15.7142 60.0382 15.9379 59.8145 15.8769C59.0824 15.6532 57.9843 15.2058 55.4018 15.2058C52.4125 15.2058 49.1996 16.0599 49.1996 22.7908C49.1996 29.5216 52.2499 30.3147 54.446 30.3147C56.3169 30.3147 56.9879 30.091 56.9879 30.091V25.414H53.9987C53.775 25.414 53.6123 25.2513 53.6123 25.0683V21.3266C53.6123 21.1436 53.775 20.9809 53.9987 20.9809H61.604C61.8276 20.9809 61.9903 21.1436 61.9903 21.3266Z" fill="white"/>
    </g>
    <defs>
        <clipPath id="clip0_832_2">
            <rect width="135" height="48" fill="white" transform="translate(0.5)"/>
        </clipPath>
    </defs>
</svg>
