<svg viewBox="0 0 172 48" fill="none"
    xmlns="http://www.w3.org/2000/svg">
    <g clip-path="url(#clip0_832_5)">
        <path d="M36.6119 10.8223C33.8524 9.53122 30.9018 8.59289 27.817 8.05859C27.4381 8.74354 26.9955 9.66481 26.6903 10.3977C23.4111 9.90452 20.1621 9.90452 16.9431 10.3977C16.638 9.66481 16.1854 8.74354 15.8031 8.05859C12.715 8.59289 9.761 9.53467 7.00146 10.8292C1.43545 19.2401 -0.0733972 27.4422 0.681031 35.5278C4.3727 38.2846 7.95037 39.9593 11.4677 41.0552C12.3361 39.86 13.1106 38.5894 13.7779 37.2504C12.5071 36.7675 11.29 36.1716 10.1399 35.4799C10.445 35.2538 10.7434 35.0175 11.0318 34.7743C18.0463 38.0552 25.6677 38.0552 32.5984 34.7743C32.8901 35.0175 33.1885 35.2538 33.4902 35.4799C32.3368 36.175 31.1163 36.7709 29.8456 37.2538C30.5128 38.5894 31.284 39.8634 32.1558 41.0586C35.6764 39.9627 39.2574 38.2881 42.9491 35.5278C43.8343 26.1545 41.4369 18.0278 36.6119 10.8223ZM14.7335 30.5552C12.6278 30.5552 10.901 28.5894 10.901 26.1956C10.901 23.8018 12.591 21.8326 14.7335 21.8326C16.8761 21.8326 18.6029 23.7983 18.566 26.1956C18.5693 28.5894 16.8761 30.5552 14.7335 30.5552ZM28.8966 30.5552C26.791 30.5552 25.0641 28.5894 25.0641 26.1956C25.0641 23.8018 26.754 21.8326 28.8966 21.8326C31.0392 21.8326 32.766 23.7983 32.7291 26.1956C32.7291 28.5894 31.0392 30.5552 28.8966 30.5552Z" fill="white"/>
        <path d="M57.7861 16.4775H66.9396C69.1462 16.4775 71.0104 16.8302 72.5397 17.5323C74.0649 18.2343 75.2085 19.2137 75.9664 20.4672C76.7238 21.7206 77.106 23.1555 77.106 24.772C77.106 26.3541 76.7104 27.7891 75.9191 29.0733C75.1279 30.361 73.9241 31.3781 72.3048 32.1281C70.6855 32.8781 68.6799 33.2548 66.2828 33.2548H57.7861V16.4775ZM66.1887 28.9911C67.6742 28.9911 68.8178 28.611 69.6155 27.8541C70.4137 27.0939 70.8128 26.0596 70.8128 24.748C70.8128 23.5322 70.457 22.563 69.7464 21.837C69.0358 21.111 67.9593 20.7446 66.5206 20.7446H63.6572V28.9911H66.1887Z" fill="white"/>
        <path d="M90.8096 33.2337C89.5421 32.8981 88.3985 32.4117 87.3828 31.7713V27.7919C88.1507 28.398 89.1798 28.8981 90.4706 29.2919C91.7615 29.6823 93.0092 29.8775 94.2159 29.8775C94.7792 29.8775 95.2053 29.8022 95.4934 29.6514C95.782 29.5008 95.9264 29.3193 95.9264 29.1104C95.9264 28.8707 95.8492 28.672 95.6915 28.511C95.5337 28.3501 95.2286 28.2165 94.7763 28.1035L91.9596 27.4562C90.3468 27.0727 89.2031 26.5419 88.5229 25.8604C87.8421 25.1823 87.5032 24.2918 87.5032 23.1891C87.5032 22.261 87.7983 21.4563 88.3955 20.7679C88.9887 20.0796 89.8337 19.5487 90.93 19.1754C92.0268 18.7987 93.3072 18.6104 94.7793 18.6104C96.0935 18.6104 97.2973 18.7542 98.3942 19.0419C99.4905 19.3296 100.396 19.696 101.117 20.1446V23.9083C100.379 23.4597 99.5337 23.107 98.5683 22.8398C97.6059 22.5761 96.6171 22.446 95.5974 22.446C94.1253 22.446 93.3914 22.7028 93.3914 23.2131C93.3914 23.4529 93.5053 23.6309 93.7332 23.7508C93.9611 23.8706 94.3801 23.9939 94.9873 24.1241L97.3341 24.5556C98.8669 24.8261 100.01 25.3022 100.761 25.9802C101.512 26.6583 101.888 27.6618 101.888 28.9905C101.888 30.446 101.268 31.6001 100.023 32.4563C98.7793 33.3124 97.0157 33.7404 94.729 33.7404C93.3843 33.737 92.0771 33.5693 90.8096 33.2337Z" fill="white"/>
        <path d="M107.428 32.7308C106.084 32.0595 105.068 31.1486 104.39 29.9979C103.713 28.8472 103.371 27.5527 103.371 26.1143C103.371 24.676 103.723 23.3883 104.427 22.2547C105.131 21.1212 106.164 20.2308 107.525 19.5835C108.886 18.9362 110.513 18.6143 112.407 18.6143C114.754 18.6143 116.702 19.1178 118.252 20.1246V24.5116C117.705 24.128 117.068 23.8164 116.34 23.5766C115.613 23.3369 114.835 23.217 114.003 23.217C112.548 23.217 111.412 23.4876 110.59 24.0321C109.768 24.5766 109.356 25.2855 109.356 26.1657C109.356 27.0287 109.755 27.7342 110.553 28.289C111.351 28.8403 112.508 29.1178 114.027 29.1178C114.808 29.1178 115.579 29.0013 116.34 28.7719C117.098 28.539 117.752 28.2547 118.298 27.9191V32.1622C116.579 33.217 114.583 33.7444 112.313 33.7444C110.402 33.7376 108.772 33.402 107.428 32.7308Z" fill="white"/>
        <path d="M124.106 32.7307C122.751 32.0595 121.719 31.1417 121.007 29.9739C120.297 28.806 119.938 27.5047 119.938 26.0663C119.938 24.628 120.293 23.3437 121.007 22.217C121.721 21.0903 122.748 20.2067 124.096 19.5663C125.44 18.9259 127.046 18.6074 128.907 18.6074C130.768 18.6074 132.374 18.9259 133.719 19.5663C135.063 20.2067 136.09 21.0835 136.794 22.2033C137.498 23.3232 137.85 24.6074 137.85 26.0629C137.85 27.5013 137.498 28.8027 136.794 29.9704C136.09 31.1382 135.06 32.056 133.705 32.7273C132.351 33.3985 130.751 33.7341 128.904 33.7341C127.056 33.7341 125.457 33.4019 124.106 32.7307ZM131.237 28.4773C131.808 27.8951 132.096 27.1246 132.096 26.1657C132.096 25.2068 131.811 24.443 131.237 23.878C130.668 23.3095 129.889 23.0252 128.904 23.0252C127.901 23.0252 127.116 23.3095 126.543 23.878C125.973 24.4465 125.688 25.2068 125.688 26.1657C125.688 27.1246 125.973 27.8951 126.543 28.4773C127.114 29.0595 127.901 29.354 128.904 29.354C129.889 29.3506 130.668 29.0595 131.237 28.4773Z" fill="white"/>
        <path d="M151.952 19.4982V24.6763C151.356 24.2756 150.584 24.077 149.629 24.077C148.378 24.077 147.412 24.464 146.741 25.2379C146.068 26.0119 145.732 27.2174 145.732 28.8475V33.2584H139.982V19.2345H145.615V23.6934C145.927 22.0633 146.433 20.8613 147.131 20.0838C147.825 19.3099 148.723 18.9229 149.816 18.9229C150.644 18.9229 151.356 19.1147 151.952 19.4982Z" fill="white"/>
        <path d="M171.058 15.998V33.2582H165.307V30.1179C164.821 31.2994 164.084 32.2 163.091 32.8164C162.098 33.4295 160.871 33.7377 159.416 33.7377C158.115 33.7377 156.982 33.4158 156.013 32.7685C155.044 32.1213 154.297 31.2343 153.77 30.1076C153.247 28.9808 152.982 27.7069 152.982 26.2823C152.965 24.8131 153.243 23.4946 153.817 22.3267C154.387 21.1589 155.195 20.248 156.234 19.5939C157.274 18.9398 158.461 18.611 159.792 18.611C162.532 18.611 164.369 19.8267 165.307 22.2548V15.998H171.058ZM164.449 28.3816C165.036 27.7994 165.328 27.0425 165.328 26.1179C165.328 25.224 165.043 24.4945 164.473 23.9363C163.902 23.3781 163.121 23.0973 162.139 23.0973C161.17 23.0973 160.396 23.3815 159.815 23.95C159.235 24.5186 158.947 25.2548 158.947 26.1658C158.947 27.0768 159.235 27.8199 159.815 28.3952C160.396 28.9706 161.16 29.2582 162.115 29.2582C163.084 29.2549 163.862 28.9637 164.449 28.3816Z" fill="white"/>
        <path d="M81.9519 20.727C83.535 20.727 84.8189 19.5495 84.8189 18.0969C84.8189 16.6443 83.535 15.4668 81.9519 15.4668C80.3683 15.4668 79.085 16.6443 79.085 18.0969C79.085 19.5495 80.3683 20.727 81.9519 20.727Z" fill="white"/>
        <path d="M79.082 22.5391C80.8386 23.313 83.0183 23.3473 84.8153 22.5391V33.3336H79.082V22.5391Z" fill="white"/>
    </g>
    <defs>
        <clipPath id="clip0_832_5">
            <rect width="171" height="48" fill="white" transform="translate(0.5)"/>
        </clipPath>
    </defs>
</svg>
