<svg viewBox="0 0 146 48" fill="none"
    xmlns="http://www.w3.org/2000/svg">
    <g clip-path="url(#clip0_832_15)">
        <mask id="mask0_832_15" style="mask-type:luminance" maskUnits="userSpaceOnUse" x="0" y="0">
            <path d="M145.5 0H0.5V48H145.5V0Z" fill="white"/>
        </mask>
        <g mask="url(#mask0_832_15)">
            <path d="M11.3308 12.7407C17.2997 12.7407 22.1615 17.6025 22.1615 23.6196C22.1615 29.6367 17.2997 34.4985 11.3308 34.4985C5.36181 34.4985 0.5 29.6848 0.5 23.6196C0.5 17.5544 5.36181 12.7407 11.3308 12.7407ZM96.244 12.5V31.5622C96.244 33.0063 96.8216 33.3914 97.9288 33.6802L97.9769 33.9209H91.8636V31.5622C91.1415 33.2951 89.6493 34.3541 87.7238 34.3541C84.4505 34.3541 82.2844 31.3696 82.2844 26.941C82.2844 24.4379 83.0064 22.3199 84.3542 20.7314C85.6539 19.191 87.435 18.3727 89.4086 18.3727C90.3713 18.3727 91.1897 18.5652 91.8636 18.9985V16.3991C91.8636 15.8214 91.7192 15.4363 91.4303 15.1475C91.0452 14.8106 90.4195 14.6662 89.4567 14.7624H89.4086V14.5217L96.244 12.5ZM119.446 18.4208V31.5622C119.446 33.0063 120.024 33.3914 121.131 33.6802V33.9209H115.017V31.514C114.295 33.2469 112.707 34.3541 110.926 34.3541C108.808 34.3541 107.46 33.3913 106.93 31.514L106.834 31.0326C106.738 30.5513 106.69 30.0699 106.69 29.5885V22.5606C106.69 21.0202 106.353 20.5388 105.005 20.4426H104.957V20.2019L111.07 18.4208V29.4923C111.07 31.1289 111.792 32.0435 113.14 32.0435C113.958 32.0435 114.632 31.6103 115.017 30.8882V22.5606C115.017 20.9721 114.729 20.4907 113.621 20.3944H113.573V20.1537L119.446 18.4208ZM75.3045 18.3727C76.9412 18.3727 78.5297 18.9503 79.5887 19.9612C80.7921 21.1165 81.4179 22.8013 81.466 25.0156V25.0637H72.2719C72.0794 28.2407 74.053 30.8401 76.6524 30.9364C78.5297 31.0808 80.1663 29.9255 81.0809 28.0482L81.3216 28.1444C80.7921 31.6584 78.7222 34.3059 75.112 34.3059C71.0204 34.3059 68.7098 30.8882 68.6135 26.6041V25.4969C68.8061 23.6196 69.3837 21.9348 70.3946 20.6832C71.0204 19.9131 71.7424 19.3354 72.6089 18.9503C73.3309 18.5652 74.3899 18.3727 75.2564 18.3727H75.3045ZM138.989 18.4208C141.589 18.4208 143.177 20.0575 143.177 22.8494V31.8028C143.177 32.8618 143.659 33.3914 144.862 33.6802H144.91V33.9209H138.749V22.9938C138.749 21.2609 138.123 20.3944 136.823 20.3944C135.764 20.3944 135.235 21.1646 134.946 21.8385C134.994 22.1755 135.042 22.5124 135.042 22.8494V31.9472C135.042 33.0544 135.379 33.4395 136.342 33.6802H136.39V33.9209H130.662V22.9938C130.662 21.2609 129.988 20.3944 128.736 20.3944C127.725 20.3944 127.196 21.1165 126.955 21.6941V31.9954C126.955 33.1025 127.292 33.4876 128.255 33.7283H128.303V33.969H122.575V22.5124C122.575 20.9721 122.19 20.4907 120.89 20.3944H120.842V20.1537L126.955 18.469V21.0202C127.581 19.3836 129.025 18.4208 130.854 18.4208C132.924 18.4208 134.368 19.4317 134.85 21.2609C135.475 19.528 137.064 18.4208 138.989 18.4208ZM51.188 13.4627L56.9163 26.8929L62.6446 13.4627H68.8061L68.7579 13.7034L68.688 13.719C67.6265 13.9609 67.0731 14.3579 67.0731 15.677V32.0435C67.1694 33.1025 67.7471 33.4395 68.7579 33.6802H68.8061V33.9209H60.9598V33.6802H61.0079C62.0188 33.4395 62.5964 33.1025 62.6927 32.0435V16.1103L55.1352 33.8727H54.702L47.3371 16.5916V31.6584C47.3371 33.0063 47.9147 33.3914 49.0219 33.632H49.07V33.8727H44.5451V33.632H44.5933C45.7004 33.3914 46.2781 33.0063 46.2781 31.6584V15.677C46.2781 14.3292 45.7004 13.9441 44.5933 13.7034H44.5451V13.4627H51.188ZM103.705 18.4208V31.5622L103.706 31.651C103.73 33.0223 104.306 33.3974 105.39 33.6802L105.438 33.9209H99.3248V22.5606C99.3248 21.0202 98.9878 20.5388 97.64 20.4426H97.5919V20.2019L103.705 18.4208ZM28.66 13.3665C31.5963 13.3665 34.0513 17.9876 34.0513 23.6196C34.0513 29.2997 31.6445 33.8727 28.66 33.8727C25.6755 33.8727 23.2687 29.2997 23.2687 23.6196C23.2687 17.9395 25.6755 13.3665 28.66 13.3665ZM36.9395 14.4255C38.0467 14.4255 38.865 18.5652 38.865 23.6196C38.865 28.674 37.9985 32.8137 36.9395 32.8137C35.8911 32.8137 35.0314 28.7563 35.0143 23.7709L35.0141 23.6196C35.0141 18.5652 35.8805 14.4255 36.9395 14.4255ZM90.1306 19.2391C88.2052 19.2391 87.0018 21.7904 87.0018 25.7376C87.0018 27.6149 87.3387 29.2516 87.9164 30.3587C88.4459 31.4177 89.216 31.9954 90.0825 31.9954C90.949 31.9954 91.5747 31.6103 91.8636 30.8882V20.2982C91.5266 19.6242 90.9008 19.2391 90.1306 19.2391ZM75.2564 19.2873C73.5235 19.2873 72.5126 21.3572 72.3682 24.2454V24.2935H77.6151C77.7114 22.0311 77.3263 20.5388 76.6042 19.8168C76.2191 19.4798 75.7859 19.2873 75.2564 19.2873ZM101.347 12.6444C102.742 12.6444 103.801 13.7034 103.801 15.0994C103.801 16.4954 102.742 17.5544 101.347 17.5544C99.9505 17.5544 98.8915 16.4954 98.8915 15.0994C98.8915 13.7034 99.9505 12.6444 101.347 12.6444Z" fill="white"/>
        </g>
    </g>
    <defs>
        <clipPath id="clip0_832_15">
            <rect width="145" height="48" fill="white" transform="translate(0.5)"/>
        </clipPath>
    </defs>
</svg>
