<svg  viewBox="0 0 142 48" fill="none"
    xmlns="http://www.w3.org/2000/svg">
    <g clip-path="url(#clip0_832_33)">
        <path d="M140.048 18.185C140.048 17.6444 139.669 17.284 139.044 17.284L137.816 17.3066L137.838 20.0544H138.508V19.1084H138.91L139.49 20.0544H140.272L139.579 18.9958C139.723 18.9157 139.842 18.798 139.924 18.6553C140.007 18.5127 140.05 18.3502 140.048 18.185ZM138.91 18.5454H138.485V17.8471H138.977C139.065 17.8373 139.154 17.8623 139.225 17.9168C139.295 17.9714 139.342 18.0513 139.356 18.1399V18.1625C139.354 18.2181 139.341 18.2728 139.317 18.323C139.293 18.3732 139.259 18.4178 139.217 18.4538C139.175 18.4899 139.126 18.5167 139.073 18.5325C139.02 18.5482 138.964 18.5526 138.91 18.5454ZM39.8638 30.8882C38.7251 30.8882 37.9436 29.9873 37.9436 28.6584V22.5996H42.6324V18.3201H37.9548L37.9101 13.41H32.7301L32.7747 29.762C32.7747 33.073 34.9629 35.3253 38.1781 35.3253C39.875 35.3253 41.4826 35.0776 42.7552 34.4919V30.3251C41.8515 30.7482 40.8587 30.9415 39.8638 30.8882ZM52.2334 18.0498C47.4106 18.0498 43.7042 21.8338 43.7042 26.8565C43.7042 31.8342 47.4106 35.3028 52.5236 35.3028C55.4039 35.3028 58.1056 34.2667 59.7578 32.127L55.7835 30.3026C54.9797 31.0459 53.7517 31.3387 52.6576 31.3387C50.8714 31.3387 49.0852 30.4152 48.8396 28.5232H60.6956C60.8738 27.8472 60.9638 27.1506 60.9635 26.4511C60.9635 21.2932 57.2348 18.0498 52.2445 18.0498H52.2334ZM48.8396 25.2123C48.9958 22.9599 50.6034 21.9239 52.3673 21.9239C54.3545 21.9239 55.8505 23.05 55.8505 24.9871V25.2123H48.8396ZM27.8068 30.8882C26.6681 30.8882 25.8866 29.9873 25.8866 28.6584V22.5996H30.5755V18.3201H25.8978L25.8531 13.41H20.6731L20.7178 29.762C20.7178 33.073 22.9059 35.3253 26.1211 35.3253C27.818 35.3253 29.4256 35.0776 30.6983 34.4919V30.3251C29.7952 30.7502 28.8019 30.9437 27.8068 30.8882ZM9.60972 18.0498C5.1665 18.0498 0.5 21.0004 0.5 26.9466C0.5 31.9018 3.8045 35.3704 7.97979 35.3704C10.3689 35.3704 12.1774 34.4019 13.3608 32.6901L13.5171 35.0775H18.5296V27.1493C18.5296 21.113 14.1199 18.0498 9.60972 18.0498ZM9.60972 30.7981C7.35462 30.7981 5.72469 29.1088 5.72469 26.7214C5.72469 24.3339 7.33229 22.6446 9.60972 22.6446C11.7085 22.6446 13.4501 24.4915 13.4501 26.7214C13.4501 28.9512 11.7085 30.7981 9.60972 30.7981ZM138.798 16.0452C137.168 16.0678 136.119 17.1264 136.141 18.703C136.163 20.2797 137.235 21.3157 138.865 21.2932C140.45 21.2707 141.522 20.2121 141.5 18.6129C141.477 17.0138 140.406 16.0227 138.798 16.0452ZM138.865 20.8427C137.592 20.8653 136.722 20.0094 136.722 18.703C136.722 17.3967 137.548 16.5182 138.82 16.4957C140.093 16.4732 140.941 17.3291 140.964 18.658C140.964 19.9418 140.115 20.8202 138.876 20.8427H138.865ZM113.478 18.3426L109.861 28.9287L106.2 18.3426H100.573L107.316 35.055H112.362L119.105 18.3426H113.478ZM126.897 18.0498C122.075 18.0498 118.368 21.8338 118.368 26.8565C118.368 31.8342 122.075 35.3028 127.188 35.3028C130.068 35.3028 132.77 34.2667 134.422 32.127L130.447 30.3026C129.644 31.0459 128.416 31.3387 127.322 31.3387C125.535 31.3387 123.749 30.4152 123.504 28.5232H135.36C135.538 27.8472 135.628 27.1506 135.627 26.4511C135.627 21.2932 131.899 18.0498 126.897 18.0498ZM130.514 25.2123H123.504C123.66 22.9599 125.267 21.9239 127.031 21.9239C129.018 21.9239 130.514 23.05 130.514 24.9871V25.2123ZM96.5762 11C94.7454 11 93.3611 12.2388 93.3611 13.9731C93.3611 15.7074 94.7454 16.9912 96.5762 16.9912C98.4071 16.9912 99.7915 15.7299 99.7915 13.9731C99.7915 12.2163 98.4295 11 96.5762 11ZM73.0651 18.0273C72.0183 18.0103 70.9849 18.2668 70.0654 18.772C69.1459 19.2772 68.3717 20.0139 67.8181 20.9103L67.6395 18.3426H62.6381V35.055H67.8181V26.2934C67.9298 24.1987 69.6043 22.5996 71.4352 22.5996C73.4894 22.5996 74.4271 24.1537 74.4271 26.1132V35.0325H79.5848V25.3024C79.5848 21.068 77.0283 18.0273 73.0651 18.0273ZM88.8732 30.8882C87.7345 30.8882 86.953 29.9873 86.953 28.6584V22.5996H91.6418V18.3201H86.953L86.9083 13.41H81.7283L81.773 29.762C81.773 33.073 83.9611 35.3253 87.1763 35.3253C88.8732 35.3253 90.4808 35.0776 91.7535 34.4919V30.3251C90.8537 30.7484 89.8645 30.9418 88.8732 30.8882ZM93.9639 18.3426V35.055H99.1886V18.3426C98.414 18.8604 97.5054 19.1366 96.5762 19.1366C95.6471 19.1366 94.7385 18.8604 93.9639 18.3426Z" fill="white"/>
    </g>
    <defs>
        <clipPath id="clip0_832_33">
            <rect width="141" height="48" fill="white" transform="translate(0.5)"/>
        </clipPath>
    </defs>
</svg>
