<svg  viewBox="0 0 126 48" fill="none"
    xmlns="http://www.w3.org/2000/svg">
    <g clip-path="url(#clip0_832_30)">
        <path d="M0.966797 12.3829H9.96683C15.7115 12.3829 19.3498 16.9787 19.3498 23.2979C19.3498 26.7447 18.2008 29.8085 15.9029 31.7234C14.3711 33.0638 12.2646 33.8298 9.58381 33.8298H0.966797V12.3829ZM9.29658 30.0958C13.4136 30.0958 14.9455 27.6064 14.9455 23.3936C14.9455 19.1809 13.1264 16.2127 9.39233 16.2127H5.27531V30.1915H9.29658V30.0958ZM20.02 26.1703C20.02 21.5745 23.2753 18.0319 28.0625 18.0319C32.8498 18.0319 36.1051 21.5745 36.1051 26.1703C36.1051 30.7659 32.8498 34.3085 28.0625 34.3085C23.2753 34.3085 20.02 30.6702 20.02 26.1703ZM31.8923 26.1703C31.8923 23.2021 30.4562 21.0957 27.9668 21.0957C25.4774 21.0957 24.0413 23.1064 24.0413 26.1703C24.0413 29.234 25.3817 31.149 27.9668 31.149C30.5519 31.149 31.8923 29.1383 31.8923 26.1703ZM36.871 26.1703C36.871 21.5745 39.8392 18.0319 44.5306 18.0319C48.5519 18.0319 50.9455 20.3298 51.52 23.6809H47.4987C47.2115 22.3404 46.1583 21.2873 44.7221 21.2873C42.2328 21.2873 40.9881 23.2021 40.9881 26.1703C40.9881 29.0426 42.137 31.0532 44.6264 31.0532C46.254 31.0532 47.403 30.1915 47.6902 28.468H51.7114C51.4242 31.7234 48.9349 34.3085 44.8179 34.3085C39.9349 34.2128 36.871 30.6702 36.871 26.1703ZM62.4349 33.8298V32.0106H62.3391C61.2859 33.4468 60.137 34.2128 57.9348 34.2128C54.4881 34.2128 52.5732 32.0106 52.5732 28.6596V18.4149H56.5944V27.9894C56.5944 29.8085 57.3604 30.7659 59.1795 30.7659C61.0944 30.7659 62.2434 29.3298 62.2434 27.3191V18.4149H66.3604V33.7341H62.4349V33.8298ZM86.1795 12.4787H90.2966V16.3085H86.1795V12.4787ZM86.1795 18.4149H90.2966V33.7341H86.1795V18.4149ZM91.9242 34.2128H95.9455C96.2323 35.1702 97.1903 35.9362 99.0096 35.9362C101.307 35.9362 102.456 34.7873 102.456 32.7766V31.0532H102.36C101.499 32.1063 100.254 32.8723 98.3392 32.8723C94.8925 32.8723 91.5413 30.1915 91.5413 25.5C91.5413 20.9042 94.3181 18.0319 98.1474 18.0319C100.063 18.0319 101.499 18.7979 102.36 20.0426H102.456V18.4149H106.382V32.5851C106.382 34.7873 105.711 36.2234 104.562 37.2766C103.317 38.5213 101.307 39 99.0096 39C94.9884 39 92.4029 37.2766 91.9242 34.2128ZM102.743 25.4043C102.743 23.2021 101.498 21.2873 99.1055 21.2873C96.9985 21.2873 95.6578 22.9149 95.6578 25.5C95.6578 28.0851 96.9985 29.617 99.1055 29.617C101.69 29.617 102.743 27.7021 102.743 25.4043ZM112.222 20.5213C113.371 18.8937 114.807 18.0319 116.817 18.0319C119.977 18.0319 122.083 20.4255 122.083 23.7766V33.8298H117.966V24.4468C117.966 22.8192 117.009 21.6702 115.286 21.6702C113.467 21.6702 112.126 23.1064 112.126 25.2128V33.9255H108.201V18.6063H112.222V20.5213ZM76.8923 20.9042C73.7327 20.2341 72.2966 19.6595 72.2966 17.9362C72.2966 16.4043 73.8284 15.4468 76.1263 15.4468C78.2327 15.4468 79.8604 16.4043 80.2434 18.4149H84.4561C83.9775 14.2979 80.9136 12 76.1263 12C71.3391 12 67.8923 14.2021 67.8923 18.4149C67.8923 22.9149 71.4348 23.8724 75.2647 24.734C78.5199 25.5 80.5306 25.8829 80.5306 27.9894C80.5306 30 78.6157 30.7659 76.4135 30.7659C73.3498 30.7659 71.9136 29.7127 71.6264 27.1276H67.4136C67.6051 31.6277 70.8604 34.2128 76.7009 34.2128C81.4881 34.2128 85.0306 31.8191 85.0306 27.4149C84.9348 22.9149 81.2965 21.8617 76.8923 20.9042ZM123.807 21.2873C122.946 21.2873 122.179 20.5213 122.179 19.6595C122.179 18.7979 122.946 18.0319 123.807 18.0319C124.669 18.0319 125.435 18.7979 125.435 19.6595C125.435 20.5213 124.669 21.2873 123.807 21.2873ZM123.807 18.3191C123.041 18.3191 122.467 18.8937 122.467 19.6595C122.467 20.4255 123.041 21 123.807 21C124.573 21 125.147 20.4255 125.147 19.6595C125.147 18.8937 124.573 18.3191 123.807 18.3191Z" fill="white"/>
        <path d="M123.234 18.7979H123.809C124 18.7979 124.191 18.7979 124.287 18.8936C124.383 18.9893 124.479 19.0852 124.479 19.2766C124.479 19.5639 124.287 19.6596 124.191 19.7553L124.575 20.4256H124.191L123.905 19.8511H123.522V20.4256H123.234V18.7979ZM123.522 19.0852V19.5639H123.809C123.905 19.5639 124.096 19.5639 124.096 19.2766C124.096 19.2766 124.096 19.0852 124 19.0852H123.522Z" fill="white"/>
    </g>
    <defs>
        <clipPath id="clip0_832_30">
            <rect width="125" height="48" fill="white" transform="translate(0.5)"/>
        </clipPath>
    </defs>
</svg>
