<svg  viewBox="0 0 143 48" fill="none"
    xmlns="http://www.w3.org/2000/svg">
    <g clip-path="url(#clip0_832_37)">
        <mask id="mask0_832_37" style="mask-type:luminance" maskUnits="userSpaceOnUse" x="0" y="0" width="143" height="48">
            <path d="M142.5 0H0.5V48H142.5V0Z" fill="white"/>
        </mask>
        <g mask="url(#mask0_832_37)">
            <path fill-rule="evenodd" clip-rule="evenodd" d="M2.9389 35.8519C-0.313008 32.6276 -0.312956 27.4 2.93899 24.1757L11.7714 15.4183C14.5205 12.6926 18.7134 12.271 21.909 14.1536C22.8976 14.7359 22.8889 16.0717 22.0759 16.8778C21.2629 17.6839 19.9358 17.6145 18.8323 17.2945C17.4192 16.8847 15.83 17.2323 14.7156 18.3374L5.88311 27.0947C4.25714 28.7069 4.25712 31.3207 5.88307 32.9329C7.50906 34.5451 10.1454 34.5451 11.7713 32.9329L29.436 15.4184C32.6881 12.194 37.9605 12.194 41.2125 15.4183L50.045 24.1757C53.297 27.3999 53.297 32.6276 50.045 35.8519C46.7931 39.0763 41.5206 39.0763 38.2686 35.8519L35.3245 32.9329L31.6443 36.5818C28.8952 39.3074 24.7023 39.729 21.5066 37.8464C20.5182 37.2641 20.5268 35.9283 21.3399 35.1222C22.1528 34.3161 23.4799 34.3854 24.5835 34.7055C25.9966 35.1153 27.5857 34.7676 28.7001 33.6626L32.4855 29.9095C34.0534 28.3549 36.5955 28.3549 38.1635 29.9095L41.2127 32.9329C42.8387 34.545 45.4749 34.545 47.1009 32.9329C48.7269 31.3207 48.7269 28.7069 47.1009 27.0947L38.2683 18.3375C36.6424 16.7253 34.0062 16.7253 32.3802 18.3375L14.7155 35.852C11.4634 39.0764 6.19087 39.0764 2.9389 35.8519Z" fill="white"/>
            <path d="M85.7446 17.6797C83.6984 17.6797 82.1482 18.4124 81.1251 19.8778C80.226 18.4124 78.7998 17.6797 76.9086 17.6797C74.9554 17.6797 73.5292 18.3513 72.599 19.7252V18.1071H68.5996V33.3722H72.599V24.7932C72.599 22.5645 73.7461 21.3433 75.5134 21.3433C77.1566 21.3433 78.1177 22.4119 78.1177 24.2437V33.3722H82.1172V24.7932C82.1172 22.5645 83.1714 21.3433 85.0006 21.3433C86.6438 21.3433 87.6048 22.4119 87.6048 24.2437V33.3722H91.6043V23.9689C91.6043 20.1526 89.3101 17.6797 85.7446 17.6797Z" fill="white"/>
            <path d="M106.473 19.9084C105.264 18.4124 103.589 17.6797 101.419 17.6797C99.3423 17.6797 97.5752 18.4735 96.087 20.0305C94.6298 21.5875 93.8857 23.4804 93.8857 25.7397C93.8857 27.9989 94.6298 29.9223 96.087 31.4794C97.5752 33.0364 99.3423 33.7997 101.419 33.7997C103.589 33.7997 105.264 33.0669 106.473 31.5709V33.3722H110.472V18.1071H106.473V19.9084ZM99.0943 28.8537C98.2882 28.0294 97.8851 26.9914 97.8851 25.7397C97.8851 24.4879 98.2882 23.4499 99.0943 22.6561C99.9004 21.8318 100.923 21.4349 102.163 21.4349C103.403 21.4349 104.427 21.8318 105.233 22.6561C106.07 23.4499 106.473 24.4879 106.473 25.7397C106.473 26.9914 106.07 28.0294 105.233 28.8537C104.427 29.6476 103.403 30.0444 102.163 30.0444C100.923 30.0444 99.9004 29.6476 99.0943 28.8537Z" fill="white"/>
            <path d="M125.229 20.732V18.1064H113.603V21.8006H119.834L113.292 30.746V33.3715H125.539V29.6774H118.656L125.229 20.732Z" fill="white"/>
            <path d="M142.262 27.3578C142.355 26.7777 142.417 26.2587 142.417 25.7397C142.417 23.4499 141.674 21.557 140.185 20C138.728 18.4429 136.836 17.6797 134.573 17.6797C132.186 17.6797 130.202 18.4429 128.682 20C127.163 21.5265 126.388 23.4499 126.388 25.7397C126.388 28.06 127.163 29.9834 128.714 31.5098C130.264 33.0364 132.31 33.7997 134.883 33.7997C137.859 33.7997 140.123 32.7005 141.642 30.5329L138.418 28.7011C137.642 29.7086 136.465 30.2276 134.945 30.2276C132.558 30.2276 131.101 29.2812 130.574 27.3578H142.262ZM130.512 24.3047C130.977 22.3508 132.434 21.2212 134.573 21.2212C136.402 21.2212 137.952 22.2287 138.418 24.3047H130.512Z" fill="white"/>
        </g>
    </g>
    <defs>
        <clipPath id="clip0_832_37">
            <rect width="142" height="48" fill="white" transform="translate(0.5)"/>
        </clipPath>
    </defs>
</svg>
