<svg xmlns="http://www.w3.org/2000/svg" version="1.1" xmlns:xlink="http://www.w3.org/1999/xlink" width="1000" height="1000"><g clip-path="url(#SvgjsClipPath1010)"><rect width="1000" height="1000" fill="#ffffff"></rect><g transform="matrix(2.734375,0,0,2.734375,150,225.1953125)"><svg xmlns="http://www.w3.org/2000/svg" version="1.1" xmlns:xlink="http://www.w3.org/1999/xlink" width="256" height="201"><svg width="256" height="201" viewBox="0 0 256 201" fill="none" xmlns="http://www.w3.org/2000/svg">
<path d="M119.202 146.065C119.202 150.136 117.426 154.001 114.347 156.635L62.4736 201V167.564C62.4736 163.494 64.2486 159.628 67.3281 156.994L119.202 112.629V146.065ZM184.827 156.994C187.907 159.628 189.683 163.494 189.683 167.564V201L137.809 156.635C134.729 154.001 132.954 150.136 132.954 146.065V112.629L184.827 156.994ZM50.8438 150.947C48.3629 153.057 45.2207 154.215 41.9746 154.215H0.587891L51.4404 110.723C53.9256 108.597 57.0787 107.43 60.3379 107.43H102.011L50.8438 150.947ZM191.818 107.43C195.078 107.43 198.231 108.597 200.716 110.723L251.569 154.215H210.182C206.936 154.215 203.795 153.057 201.313 150.947L150.146 107.43H191.818ZM41.9668 46.7832C45.218 46.7833 48.3643 47.9445 50.8467 50.0605L101.889 93.5684H60.624C57.3779 93.5684 54.2365 92.4106 51.7559 90.3008L0.587891 46.7832H41.9668ZM200.401 90.3008C197.921 92.4107 194.779 93.5684 191.533 93.5684H150.269L201.311 50.0605C203.793 47.9444 206.939 46.7832 210.19 46.7832H251.569L200.401 90.3008ZM114.347 44.3652C117.426 46.9991 119.202 50.8639 119.202 54.9346V88.3701L67.3281 44.0049C64.2488 41.3711 62.4737 37.5063 62.4736 33.4355V0L114.347 44.3652ZM189.683 33.4355C189.683 37.5064 187.907 41.3711 184.827 44.0049L132.954 88.3701V54.9346C132.954 50.864 134.729 46.9991 137.809 44.3652L189.683 0V33.4355Z" fill="#09090B"></path>
</svg></svg></g></g><defs><clipPath id="SvgjsClipPath1010"><rect width="1000" height="1000" x="0" y="0" rx="350" ry="350"></rect></clipPath></defs></svg>