<svg width="390" height="390" viewBox="0 0 390 390" fill="none" xmlns="http://www.w3.org/2000/svg">
<path d="M133.657 298.437C126.005 298.437 118.996 296.572 112.63 292.843C106.264 289.049 101.184 283.969 97.3896 277.602C93.66 271.236 91.7952 264.227 91.7952 256.575C91.7952 248.858 93.66 241.817 97.3896 235.451C101.184 229.085 106.264 224.005 112.63 220.211C118.996 216.417 126.005 214.52 133.657 214.52H156.035V175.744H133.657C126.005 175.744 118.996 173.88 112.63 170.15C106.264 166.356 101.184 161.308 97.3896 155.006C93.66 148.64 91.7952 141.599 91.7952 133.882C91.7952 126.166 93.66 119.157 97.3896 112.855C101.184 106.489 106.264 101.441 112.63 97.7113C118.996 93.9173 126.005 92.0203 133.657 92.0203C141.374 92.0203 148.415 93.9173 154.781 97.7113C161.147 101.441 166.227 106.489 170.021 112.855C173.815 119.157 175.712 126.166 175.712 133.882V156.067H214.488V133.882C214.488 126.166 216.353 119.157 220.082 112.855C223.876 106.489 228.924 101.441 235.226 97.7113C241.592 93.9173 248.633 92.0203 256.35 92.0203C264.066 92.0203 271.075 93.9173 277.377 97.7113C283.743 101.441 288.791 106.489 292.521 112.855C296.315 119.157 298.212 126.166 298.212 133.882C298.212 141.599 296.315 148.64 292.521 155.006C288.791 161.308 283.743 166.356 277.377 170.15C271.075 173.88 264.066 175.744 256.35 175.744H234.165V214.52H256.35C264.066 214.52 271.075 216.417 277.377 220.211C283.743 224.005 288.791 229.085 292.521 235.451C296.315 241.817 298.212 248.858 298.212 256.575C298.212 264.227 296.315 271.236 292.521 277.602C288.791 283.969 283.743 289.049 277.377 292.843C271.075 296.572 264.066 298.437 256.35 298.437C248.633 298.437 241.592 296.572 235.226 292.843C228.924 289.049 223.876 283.969 220.082 277.602C216.353 271.236 214.488 264.227 214.488 256.575V234.197H175.712V256.575C175.712 264.227 173.815 271.236 170.021 277.602C166.227 283.969 161.147 289.049 154.781 292.843C148.415 296.572 141.374 298.437 133.657 298.437ZM133.657 278.76C137.773 278.76 141.502 277.763 144.846 275.77C148.254 273.776 150.955 271.108 152.949 267.764C155.006 264.356 156.035 260.626 156.035 256.575V234.197H133.657C129.606 234.197 125.876 235.226 122.468 237.284C119.124 239.277 116.456 241.978 114.462 245.386C112.469 248.73 111.472 252.459 111.472 256.575C111.472 260.626 112.469 264.356 114.462 267.764C116.456 271.108 119.124 273.776 122.468 275.77C125.876 277.763 129.606 278.76 133.657 278.76ZM133.657 156.067H156.035V133.882C156.035 129.767 155.006 126.037 152.949 122.693C150.955 119.35 148.254 116.681 144.846 114.688C141.502 112.694 137.773 111.697 133.657 111.697C129.606 111.697 125.876 112.694 122.468 114.688C119.124 116.681 116.456 119.35 114.462 122.693C112.469 126.037 111.472 129.767 111.472 133.882C111.472 137.998 112.469 141.76 114.462 145.168C116.456 148.512 119.124 151.18 122.468 153.174C125.876 155.103 129.606 156.067 133.657 156.067ZM234.165 156.067H256.35C260.465 156.067 264.195 155.103 267.539 153.174C270.883 151.18 273.551 148.512 275.545 145.168C277.538 141.76 278.535 137.998 278.535 133.882C278.535 129.767 277.538 126.037 275.545 122.693C273.551 119.35 270.883 116.681 267.539 114.688C264.195 112.694 260.465 111.697 256.35 111.697C252.234 111.697 248.473 112.694 245.064 114.688C241.721 116.681 239.052 119.35 237.059 122.693C235.129 126.037 234.165 129.767 234.165 133.882V156.067ZM256.35 278.76C260.465 278.76 264.195 277.763 267.539 275.77C270.883 273.776 273.551 271.108 275.545 267.764C277.538 264.356 278.535 260.626 278.535 256.575C278.535 252.459 277.538 248.73 275.545 245.386C273.551 241.978 270.883 239.277 267.539 237.284C264.195 235.226 260.465 234.197 256.35 234.197H234.165V256.575C234.165 260.626 235.129 264.356 237.059 267.764C239.052 271.108 241.721 273.776 245.064 275.77C248.473 277.763 252.234 278.76 256.35 278.76ZM175.712 214.52H214.488V175.744H175.712V214.52Z" fill="#FDF9F4"/>
</svg>
