<svg width="390" height="390" viewBox="0 0 390 390" fill="none" xmlns="http://www.w3.org/2000/svg">
<g clip-path="url(#clip0_3663_26)">
<path d="M115.931 76.1431H76.3164V115.757H115.931V76.1431Z" stroke="#FDF9F4" stroke-width="4.33136" stroke-miterlimit="10"/>
<path d="M155.544 76.1431H115.93V115.757H155.544V76.1431Z" stroke="#FDF9F4" stroke-width="4.33136" stroke-miterlimit="10"/>
<path d="M195.16 76.1431H155.545V115.757H195.16V76.1431Z" stroke="#FDF9F4" stroke-width="4.33136" stroke-miterlimit="10"/>
<path d="M234.756 76.1431H195.141V115.757H234.756V76.1431Z" stroke="#FDF9F4" stroke-width="4.33136" stroke-miterlimit="10"/>
<path d="M274.37 76.1431H234.755V115.757H274.37V76.1431Z" stroke="#FDF9F4" stroke-width="4.33136" stroke-miterlimit="10"/>
<path d="M313.984 76.1431H274.371V115.757H313.984V76.1431Z" stroke="#FDF9F4" stroke-width="4.33136" stroke-miterlimit="10"/>
<path d="M115.931 115.757H76.3164V155.372H115.931V115.757Z" stroke="#FDF9F4" stroke-width="4.33136" stroke-miterlimit="10"/>
<path d="M155.544 115.757H115.93V155.372H155.544V115.757Z" stroke="#FDF9F4" stroke-width="4.33136" stroke-miterlimit="10"/>
<path d="M195.16 115.757H155.545V155.372H195.16V115.757Z" stroke="#FDF9F4" stroke-width="4.33136" stroke-miterlimit="10"/>
<path d="M234.756 115.757H195.141V155.372H234.756V115.757Z" stroke="#FDF9F4" stroke-width="4.33136" stroke-miterlimit="10"/>
<path d="M274.37 115.757H234.755V155.372H274.37V115.757Z" stroke="#FDF9F4" stroke-width="4.33136" stroke-miterlimit="10"/>
<path d="M313.984 115.757H274.371V155.372H313.984V115.757Z" stroke="#FDF9F4" stroke-width="4.33136" stroke-miterlimit="10"/>
<path d="M115.931 155.353H76.3164V194.968H115.931V155.353Z" stroke="#FDF9F4" stroke-width="4.33136" stroke-miterlimit="10"/>
<path d="M155.544 155.353H115.93V194.968H155.544V155.353Z" stroke="#FDF9F4" stroke-width="4.33136" stroke-miterlimit="10"/>
<path d="M195.16 155.353H155.545V194.968H195.16V155.353Z" stroke="#FDF9F4" stroke-width="4.33136" stroke-miterlimit="10"/>
<path d="M234.756 155.353H195.141V194.968H234.756V155.353Z" stroke="#FDF9F4" stroke-width="4.33136" stroke-miterlimit="10"/>
<path d="M274.37 155.353H234.755V194.968H274.37V155.353Z" stroke="#FDF9F4" stroke-width="4.33136" stroke-miterlimit="10"/>
<path d="M313.984 155.353H274.371V194.968H313.984V155.353Z" stroke="#FDF9F4" stroke-width="4.33136" stroke-miterlimit="10"/>
<path d="M115.931 194.967H76.3164V234.581H115.931V194.967Z" stroke="#FDF9F4" stroke-width="4.33136" stroke-miterlimit="10"/>
<path d="M155.544 194.967H115.93V234.581H155.544V194.967Z" stroke="#FDF9F4" stroke-width="4.33136" stroke-miterlimit="10"/>
<path d="M195.16 194.967H155.545V234.581H195.16V194.967Z" stroke="#FDF9F4" stroke-width="4.33136" stroke-miterlimit="10"/>
<path d="M234.756 194.967H195.141V234.581H234.756V194.967Z" stroke="#FDF9F4" stroke-width="4.33136" stroke-miterlimit="10"/>
<path d="M274.37 194.967H234.755V234.581H274.37V194.967Z" stroke="#FDF9F4" stroke-width="4.33136" stroke-miterlimit="10"/>
<path d="M313.984 194.967H274.371V234.581H313.984V194.967Z" stroke="#FDF9F4" stroke-width="4.33136" stroke-miterlimit="10"/>
<path d="M115.931 234.582H76.3164V274.196H115.931V234.582Z" stroke="#FDF9F4" stroke-width="4.33136" stroke-miterlimit="10"/>
<path d="M155.544 234.582H115.93V274.196H155.544V234.582Z" stroke="#FDF9F4" stroke-width="4.33136" stroke-miterlimit="10"/>
<path d="M195.16 234.582H155.545V274.196H195.16V234.582Z" stroke="#FDF9F4" stroke-width="4.33136" stroke-miterlimit="10"/>
<path d="M234.756 234.582H195.141V274.196H234.756V234.582Z" stroke="#FDF9F4" stroke-width="4.33136" stroke-miterlimit="10"/>
<path d="M274.37 234.582H234.755V274.196H274.37V234.582Z" stroke="#FDF9F4" stroke-width="4.33136" stroke-miterlimit="10"/>
<path d="M313.984 234.582H274.371V274.196H313.984V234.582Z" stroke="#FDF9F4" stroke-width="4.33136" stroke-miterlimit="10"/>
<path d="M115.931 274.177H76.3164V313.792H115.931V274.177Z" stroke="#FDF9F4" stroke-width="4.33136" stroke-miterlimit="10"/>
<path d="M155.544 274.177H115.93V313.792H155.544V274.177Z" stroke="#FDF9F4" stroke-width="4.33136" stroke-miterlimit="10"/>
<path d="M195.16 274.177H155.545V313.792H195.16V274.177Z" stroke="#FDF9F4" stroke-width="4.33136" stroke-miterlimit="10"/>
<path d="M234.756 274.177H195.141V313.792H234.756V274.177Z" stroke="#FDF9F4" stroke-width="4.33136" stroke-miterlimit="10"/>
<path d="M274.37 274.177H234.755V313.792H274.37V274.177Z" stroke="#FDF9F4" stroke-width="4.33136" stroke-miterlimit="10"/>
<path d="M313.984 274.177H274.371V313.792H313.984V274.177Z" stroke="#FDF9F4" stroke-width="4.33136" stroke-miterlimit="10"/>
</g>
<defs>
<clipPath id="clip0_3663_26">
<rect width="242.556" height="244" fill="white" transform="translate(73.7217 73)"/>
</clipPath>
</defs>
</svg>
