<svg width="183" height="78" viewBox="0 0 183 78" fill="none" xmlns="http://www.w3.org/2000/svg">
<g clip-path="url(#clip0_3640_3)">
<path d="M78.0146 41.4838C78.0146 50.093 71.2796 56.4371 63.0141 56.4371C54.7487 56.4371 48.0137 50.093 48.0137 41.4838C48.0137 32.8138 54.7487 26.5305 63.0141 26.5305C71.2796 26.5305 78.0146 32.8138 78.0146 41.4838ZM71.4481 41.4838C71.4481 36.1038 67.5446 32.4228 63.0141 32.4228C58.4837 32.4228 54.5802 36.1038 54.5802 41.4838C54.5802 46.8098 58.4837 50.5447 63.0141 50.5447C67.5446 50.5447 71.4481 46.803 71.4481 41.4838Z" fill="white"/>
<path d="M110.375 41.4838C110.375 50.093 103.64 56.4371 95.375 56.4371C87.1096 56.4371 80.3745 50.093 80.3745 41.4838C80.3745 32.8206 87.1096 26.5305 95.375 26.5305C103.64 26.5305 110.375 32.8138 110.375 41.4838ZM103.809 41.4838C103.809 36.1038 99.9055 32.4228 95.375 32.4228C90.8445 32.4228 86.941 36.1038 86.941 41.4838C86.941 46.8098 90.8445 50.5447 95.375 50.5447C99.9055 50.5447 103.809 46.803 103.809 41.4838Z" fill="white"/>
<path d="M141.388 27.4339V54.2797C141.388 65.3227 134.876 69.833 127.176 69.833C119.929 69.833 115.567 64.9857 113.922 61.0215L119.639 58.6416C120.657 61.0754 123.152 63.9474 127.17 63.9474C132.098 63.9474 135.152 60.9069 135.152 55.1831V53.0325H134.923C133.453 54.846 130.621 56.4303 127.048 56.4303C119.572 56.4303 112.722 49.9178 112.722 41.5377C112.722 33.097 119.572 26.5305 127.048 26.5305C130.615 26.5305 133.446 28.1148 134.923 29.8744H135.152V27.4406H141.388V27.4339ZM135.617 41.5377C135.617 36.2724 132.105 32.4228 127.635 32.4228C123.104 32.4228 119.309 36.2724 119.309 41.5377C119.309 46.7491 123.104 50.5447 127.635 50.5447C132.105 50.5447 135.617 46.7491 135.617 41.5377Z" fill="white"/>
<path d="M151.669 11.6986V55.5202H145.264V11.6986H151.669Z" fill="white"/>
<path d="M176.627 46.4054L181.724 49.8033C180.079 52.2371 176.115 56.4305 169.265 56.4305C160.771 56.4305 154.427 49.864 154.427 41.4772C154.427 32.5848 160.825 26.5239 168.531 26.5239C176.29 26.5239 180.086 32.6994 181.326 36.0366L182.007 37.7355L162.018 46.0144C163.548 49.0145 165.928 50.5449 169.265 50.5449C172.609 50.5449 174.929 48.8999 176.627 46.4054ZM160.939 41.0255L174.302 35.477C173.567 33.6095 171.355 32.3084 168.753 32.3084C165.416 32.3084 160.771 35.2545 160.939 41.0255V41.0255Z" fill="white"/>
<path d="M23.7702 37.5933V31.2493H45.1484C45.3574 32.3549 45.4652 33.6629 45.4652 35.0786C45.4652 39.8383 44.1641 45.7239 39.9707 49.9173C35.8919 54.1646 30.6805 56.4299 23.7769 56.4299C10.981 56.4299 0.22113 46.0071 0.22113 33.2112C0.22113 20.4152 10.981 9.99245 23.7769 9.99245C30.8558 9.99245 35.8987 12.7701 39.6875 16.3904L35.211 20.8669C32.4941 18.3186 28.813 16.3365 23.7702 16.3365C14.4261 16.3365 7.11798 23.867 7.11798 33.2112C7.11798 42.5553 14.4261 50.0858 23.7702 50.0858C29.831 50.0858 33.2828 47.6521 35.4941 45.4408C37.2875 43.6474 38.4673 41.0856 38.9325 37.5866L23.7702 37.5933V37.5933Z" fill="white"/>
</g>
<defs>
<clipPath id="clip0_3640_3">
<rect width="182.755" height="77.6303" fill="white"/>
</clipPath>
</defs>
</svg>
