<svg width="390" height="390" viewBox="0 0 390 390" fill="none" xmlns="http://www.w3.org/2000/svg">
<g clip-path="url(#clip0_3663_5)">
<mask id="mask0_3663_5" style="mask-type:luminance" maskUnits="userSpaceOnUse" x="69" y="69" width="251" height="250">
<path d="M319.5 69H69.5V319H319.5V69Z" fill="white"/>
</mask>
<g mask="url(#mask0_3663_5)">
<path fill-rule="evenodd" clip-rule="evenodd" d="M133.393 69H70.8929V131.5C70.8929 163.327 94.6832 189.598 125.451 193.5C94.2519 197.002 70 223.472 70 255.607L70 318.107H132.5C164.327 318.107 190.598 294.316 194.5 263.549C198.002 294.749 224.472 319 256.607 319H319.107V256.5C319.107 224.673 295.316 198.401 264.549 194.5C295.749 190.998 320 164.527 320 132.393V69.8929L257.5 69.8929C225.673 69.8929 199.401 93.6832 195.5 124.451C191.998 93.2519 165.527 69 133.393 69Z" fill="#FDF9F4"/>
</g>
</g>
<defs>
<clipPath id="clip0_3663_5">
<rect width="250" height="250" fill="white" transform="translate(69.5 69)"/>
</clipPath>
</defs>
</svg>
