<svg width="183" height="61" viewBox="0 0 183 61" fill="none" xmlns="http://www.w3.org/2000/svg">
<g clip-path="url(#clip0_3640_11)">
<path d="M13.6692 16.0796C21.2024 16.0796 27.3383 22.2155 27.3383 29.8095C27.3383 37.4035 21.2024 43.5394 13.6692 43.5394C6.13592 43.5394 -2.48749e-05 37.4643 -2.48749e-05 29.8095C-2.48749e-05 22.1548 6.13592 16.0796 13.6692 16.0796ZM120.836 15.7758V39.8336C120.836 41.6561 121.565 42.1422 122.962 42.5067L123.023 42.8104H115.307V39.8336C114.396 42.0207 112.513 43.3572 110.082 43.3572C105.951 43.3572 103.217 39.5906 103.217 34.0014C103.217 30.8423 104.129 28.1692 105.83 26.1644C107.47 24.2203 109.718 23.1876 112.209 23.1876C113.424 23.1876 114.457 23.4306 115.307 23.9773V20.6967C115.307 19.9677 115.125 19.4817 114.76 19.1172C114.274 18.6919 113.485 18.5097 112.27 18.6312H112.209V18.3274L120.836 15.7758ZM150.118 23.2483V39.8336C150.118 41.6561 150.847 42.1422 152.244 42.5067V42.8104H144.529V39.7728C143.618 41.9599 141.613 43.3572 139.365 43.3572C136.692 43.3572 134.991 42.1422 134.322 39.7728L134.201 39.1653C134.079 38.5578 134.019 37.9503 134.019 37.3428V28.473C134.019 26.5289 133.593 25.9214 131.892 25.7999H131.832V25.4961L139.547 23.2483V37.2213C139.547 39.2868 140.458 40.4411 142.159 40.4411C143.192 40.4411 144.043 39.8943 144.529 38.9831V28.473C144.529 26.4682 144.164 25.8606 142.767 25.7391H142.706V25.4354L150.118 23.2483ZM94.4085 23.1876C96.474 23.1876 98.4788 23.9166 99.8154 25.1924C101.334 26.6504 102.124 28.7767 102.185 31.5713V31.6321H90.5811C90.3381 35.6417 92.8289 38.9223 96.1095 39.0438C98.4788 39.2261 100.544 37.768 101.699 35.3987L102.002 35.5202C101.334 39.9551 98.7218 43.2964 94.1654 43.2964C89.0015 43.2964 86.0854 38.9831 85.9639 33.5761V32.1788C86.2069 29.8095 86.936 27.6832 88.2118 26.1036C89.0015 25.1316 89.9128 24.4026 91.0063 23.9166C91.9176 23.4306 93.2542 23.1876 94.3477 23.1876H94.4085ZM174.783 23.2483C178.064 23.2483 180.069 25.3139 180.069 28.8375V40.1373C180.069 41.4739 180.676 42.1422 182.195 42.5067H182.256V42.8104H174.479V29.0197C174.479 26.8327 173.69 25.7391 172.049 25.7391C170.713 25.7391 170.045 26.7112 169.68 27.5617C169.741 27.987 169.802 28.4122 169.802 28.8375V40.3196C169.802 41.7169 170.227 42.2029 171.442 42.5067H171.503V42.8104H164.273V29.0197C164.273 26.8327 163.423 25.7391 161.843 25.7391C160.567 25.7391 159.899 26.6504 159.595 27.3794V40.3804C159.595 41.7776 160.021 42.2637 161.236 42.5674H161.296V42.8712H154.067V28.4122C154.067 26.4682 153.581 25.8606 151.941 25.7391H151.88V25.4354L159.595 23.3091V26.5289C160.385 24.4633 162.208 23.2483 164.516 23.2483C167.129 23.2483 168.951 24.5241 169.559 26.8327C170.348 24.6456 172.353 23.2483 174.783 23.2483ZM63.9717 16.9909L71.2012 33.9406L78.4307 16.9909H86.2069L86.1462 17.2946L86.0579 17.3143C84.7182 17.6196 84.0199 18.1206 84.0199 19.7855V40.4411C84.1414 41.7776 84.8704 42.2029 86.1462 42.5067H86.2069V42.8104H76.3044V42.5067H76.3651C77.6409 42.2029 78.3699 41.7776 78.4915 40.4411V20.3322L68.9534 42.7497H68.4066L59.1116 20.9397V39.9551C59.1116 41.6561 59.8406 42.1422 61.2379 42.4459H61.2987V42.7497H55.588V42.4459H55.6487C57.046 42.1422 57.775 41.6561 57.775 39.9551V19.7855C57.775 18.0844 57.046 17.5984 55.6487 17.2946H55.588V16.9909H63.9717ZM130.252 23.2483V39.8336L130.253 39.9458C130.283 41.6763 131.01 42.1497 132.378 42.5067L132.439 42.8104H124.724V28.473C124.724 26.5289 124.298 25.9214 122.597 25.7999H122.537V25.4961L130.252 23.2483ZM35.5398 16.8694C39.2457 16.8694 42.3441 22.7015 42.3441 29.8095C42.3441 36.9782 39.3065 42.7497 35.5398 42.7497C31.7732 42.7497 28.7356 36.9782 28.7356 29.8095C28.7356 22.6408 31.7732 16.8694 35.5398 16.8694ZM45.9892 18.2059C47.3865 18.2059 48.4193 23.4306 48.4193 29.8095C48.4193 36.1885 47.3257 41.4131 45.9892 41.4131C44.666 41.4131 43.581 36.2924 43.5594 30.0005L43.5591 29.8095C43.5591 23.4306 44.6526 18.2059 45.9892 18.2059ZM113.12 24.2811C110.69 24.2811 109.171 27.5009 109.171 32.4826C109.171 34.8519 109.596 36.9175 110.325 38.3148C110.994 39.6513 111.966 40.3804 113.059 40.3804C114.153 40.3804 114.943 39.8943 115.307 38.9831V25.6176C114.882 24.7671 114.092 24.2811 113.12 24.2811ZM94.3477 24.3418C92.1606 24.3418 90.8848 26.9542 90.7026 30.5993V30.66H97.3245C97.4461 27.8047 96.96 25.9214 96.0488 25.0101C95.5627 24.5849 95.016 24.3418 94.3477 24.3418ZM127.275 15.9581C129.037 15.9581 130.374 17.2946 130.374 19.0564C130.374 20.8182 129.037 22.1548 127.275 22.1548C125.513 22.1548 124.177 20.8182 124.177 19.0564C124.177 17.2946 125.513 15.9581 127.275 15.9581Z" fill="white"/>
</g>
<defs>
<clipPath id="clip0_3640_11">
<rect width="183" height="60.5793" fill="white"/>
</clipPath>
</defs>
</svg>
