<svg width="390" height="390" viewBox="0 0 390 390" fill="none" xmlns="http://www.w3.org/2000/svg">
<g clip-path="url(#clip0_3663_126)">
<path d="M175.873 302.554H138.874C110.782 302.554 88 279.773 88 251.681V214.682H106.671V251.681C106.671 269.324 121.059 283.712 138.702 283.712H175.701V302.554H175.873Z" fill="#FDF9F4"/>
<path d="M251.413 302.554H214.415V283.884H251.413C269.056 283.884 283.445 269.496 283.445 251.852V214.682H302.116V251.681C302.287 279.602 279.335 302.554 251.413 302.554Z" fill="#FDF9F4"/>
<path d="M302.287 176.141H283.617V139.142C283.617 121.499 269.227 107.111 251.585 107.111H214.415V88.4399H251.413C279.506 88.4399 302.287 111.222 302.287 139.314V176.141Z" fill="#FDF9F4"/>
<path d="M106.844 176.142H88.1738V139.143C88.1738 111.051 110.955 88.269 139.047 88.269H176.046V106.94H139.047C121.404 106.94 107.016 121.328 107.016 138.971V176.142H106.844Z" fill="#FDF9F4"/>
</g>
<defs>
<clipPath id="clip0_3663_126">
<rect width="214.286" height="216" fill="white" transform="translate(88 87)"/>
</clipPath>
</defs>
</svg>
