<svg width="183" height="58" viewBox="0 0 183 58" fill="none" xmlns="http://www.w3.org/2000/svg">
<path d="M63.3983 11.7661H76.6919C79.3132 11.7661 81.5912 12.2029 83.5259 13.0767C85.4607 13.9504 86.9273 15.2143 87.9259 16.8682C88.9557 18.4909 89.4706 20.41 89.4706 22.6256C89.4706 24.8412 88.9557 26.7759 87.9259 28.4298C86.9273 30.0525 85.4607 31.3164 83.5259 32.2213C81.5912 33.0951 79.3132 33.532 76.6919 33.532H70.5132V45H63.3983V11.7661ZM76.2706 27.5405C78.1742 27.5405 79.6252 27.1192 80.6238 26.2767C81.6536 25.4341 82.1685 24.2171 82.1685 22.6256C82.1685 21.0341 81.6536 19.8327 80.6238 19.0214C79.6252 18.1788 78.1742 17.7575 76.2706 17.7575H70.5132V27.5405H76.2706ZM104.844 45.5617C102.285 45.5617 100.039 45.0312 98.1038 43.9702C96.2003 42.878 94.718 41.3489 93.657 39.383C92.6272 37.3858 92.1123 35.0766 92.1123 32.4554C92.1123 29.8341 92.6272 27.5405 93.657 25.5745C94.718 23.5774 96.2003 22.0483 98.1038 20.9873C100.039 19.8951 102.285 19.349 104.844 19.349C107.372 19.349 109.587 19.8951 111.491 20.9873C113.426 22.0483 114.924 23.5774 115.985 25.5745C117.046 27.5405 117.576 29.8341 117.576 32.4554C117.576 35.0766 117.046 37.3858 115.985 39.383C114.924 41.3489 113.426 42.878 111.491 43.9702C109.587 45.0312 107.372 45.5617 104.844 45.5617ZM104.844 40.1787C106.592 40.1787 107.934 39.5078 108.87 38.166C109.837 36.7929 110.321 34.8894 110.321 32.4554C110.321 30.0213 109.837 28.1334 108.87 26.7915C107.934 25.4185 106.592 24.732 104.844 24.732C103.097 24.732 101.739 25.4185 100.772 26.7915C99.8045 28.1334 99.3208 30.0213 99.3208 32.4554C99.3208 34.9206 99.8045 36.8241 100.772 38.166C101.739 39.5078 103.097 40.1787 104.844 40.1787ZM128.819 45C126.697 45 125.074 44.4695 123.951 43.4085C122.827 42.3475 122.266 40.6936 122.266 38.4468V11.7661H129.287V37.6979C129.287 38.4468 129.459 38.9773 129.802 39.2894C130.145 39.6014 130.644 39.7575 131.3 39.7575H132.985V45H128.819ZM145.069 45.5617C142.417 45.5617 140.279 44.9532 138.657 43.7362C137.065 42.5192 136.269 40.8497 136.269 38.7277C136.269 36.5433 136.94 34.8426 138.282 33.6256C139.624 32.4085 141.699 31.5192 144.508 30.9575L152.606 29.366C152.606 27.7433 152.231 26.5263 151.482 25.715C150.764 24.8724 149.703 24.4511 148.299 24.4511C146.989 24.4511 145.959 24.7632 145.21 25.3873C144.461 25.9802 143.962 26.8696 143.712 28.0554L136.691 27.7277C137.159 24.9816 138.391 22.9065 140.389 21.5022C142.386 20.0667 145.023 19.349 148.299 19.349C152.044 19.349 154.868 20.2384 156.771 22.0171C158.675 23.7958 159.627 26.4015 159.627 29.8341V38.4C159.627 39.0865 159.736 39.5546 159.954 39.8043C160.173 40.0539 160.532 40.1787 161.031 40.1787H161.733V45C161.484 45.0624 161.109 45.1248 160.61 45.1872C160.142 45.2496 159.674 45.2809 159.206 45.2809C157.489 45.2809 156.116 44.844 155.086 43.9702C154.088 43.0965 153.589 41.5986 153.589 39.4766L154.197 39.9447C153.729 41.661 152.699 43.034 151.108 44.0638C149.516 45.0624 147.503 45.5617 145.069 45.5617ZM146.755 40.7404C147.909 40.7404 148.923 40.522 149.797 40.0851C150.702 39.617 151.389 38.9461 151.857 38.0724C152.356 37.1986 152.606 36.1688 152.606 34.983V33.766L146.895 34.983C145.74 35.2014 144.882 35.5759 144.32 36.1064C143.759 36.6057 143.478 37.261 143.478 38.0724C143.478 38.9461 143.743 39.617 144.274 40.0851C144.835 40.522 145.662 40.7404 146.755 40.7404ZM166.011 19.9107H172.658L172.892 27.2128L172.377 27.0724C172.783 24.5447 173.501 22.7192 174.531 21.5958C175.56 20.4724 176.98 19.9107 178.79 19.9107H181.084V25.715H178.79C177.448 25.715 176.356 25.9022 175.513 26.2767C174.671 26.6199 174.047 27.166 173.641 27.9149C173.235 28.6639 173.033 29.6625 173.033 30.9107V45H166.011V19.9107Z" fill="white"/>
<g clip-path="url(#clip0_3640_38)">
<mask id="mask0_3640_38" style="mask-type:luminance" maskUnits="userSpaceOnUse" x="0" y="2" width="54" height="54">
<path d="M53.5415 2.39738H0V55.9389H53.5415V2.39738Z" fill="white"/>
</mask>
<g mask="url(#mask0_3640_38)">
<path fill-rule="evenodd" clip-rule="evenodd" d="M11.8556 51.345C24.0715 59.6141 40.6781 56.4147 48.9473 44.1988C57.2167 31.9828 54.0173 15.3762 41.8013 7.10698C29.5852 -1.16225 12.9786 2.03721 4.70939 14.2532C-3.55988 26.4691 -0.360398 43.0759 11.8556 51.345ZM8.5587 23.2197C5.50362 32.606 6.52216 41.999 10.5736 48.1527C3.21984 41.1901 1.2985 29.2229 6.5934 18.8735C9.97928 12.2555 15.6281 7.64332 21.8628 5.67203C16.1679 8.94916 11.1643 15.2142 8.5587 23.2197ZM31.2945 52.9293C37.7248 51.0498 43.5847 46.3701 47.0603 39.5769C52.3102 29.3154 50.4661 17.4635 43.2663 10.4763C47.1558 16.6327 48.0933 25.8739 45.0875 35.1089C42.4075 43.3425 37.1908 49.735 31.2945 52.9293ZM32.7722 49.9117C37.1123 46.1975 40.6944 39.9842 42.2864 32.5216C44.8023 20.7252 41.5038 9.75002 34.822 6.0876C38.366 10.856 40.16 20.1179 39.0539 30.4769C38.2081 38.3994 35.8396 45.3364 32.7722 49.9117ZM11.3718 25.9278C8.83711 37.8115 12.2034 48.8616 18.9847 52.4417C15.3479 47.7308 13.4919 38.3619 14.6125 27.8672C15.4445 20.0756 17.7491 13.2372 20.7429 8.66118C16.4672 12.3888 12.946 18.5471 11.3718 25.9278ZM35.6647 29.0898C35.8564 41.2101 32.0517 51.0984 27.1673 51.1753C22.2827 51.2526 18.1679 41.4896 17.9764 29.3693C17.7849 17.2487 21.5894 7.36057 26.4739 7.2834C31.3584 7.20623 35.4734 16.9692 35.6647 29.0898Z" fill="white"/>
</g>
</g>
<defs>
<clipPath id="clip0_3640_38">
<rect width="53.5415" height="53.5415" fill="white" transform="translate(0 2.39738)"/>
</clipPath>
</defs>
</svg>
