<svg width="390" height="390" viewBox="0 0 390 390" fill="none" xmlns="http://www.w3.org/2000/svg">
<g clip-path="url(#clip0_3663_70)">
<mask id="mask0_3663_70" style="mask-type:luminance" maskUnits="userSpaceOnUse" x="95" y="95" width="200" height="200">
<path d="M295 95H95V295H295V95Z" fill="white"/>
</mask>
<g mask="url(#mask0_3663_70)">
<path d="M165.503 118.022C171.861 118.022 177.014 112.868 177.014 106.511C177.014 100.154 171.861 95 165.503 95C159.146 95 153.993 100.154 153.993 106.511C153.993 112.868 159.146 118.022 165.503 118.022Z" fill="#FDF9F4"/>
<path d="M194.92 118.022C201.277 118.022 206.431 112.868 206.431 106.511C206.431 100.154 201.277 95 194.92 95C188.563 95 183.409 100.154 183.409 106.511C183.409 112.868 188.563 118.022 194.92 118.022Z" fill="#FDF9F4"/>
<path d="M224.497 118.022C230.854 118.022 236.007 112.868 236.007 106.511C236.007 100.154 230.854 95 224.497 95C218.139 95 212.986 100.154 212.986 106.511C212.986 112.868 218.139 118.022 224.497 118.022Z" fill="#FDF9F4"/>
<path d="M165.503 147.598C171.861 147.598 177.014 142.444 177.014 136.087C177.014 129.73 171.861 124.576 165.503 124.576C159.146 124.576 153.993 129.73 153.993 136.087C153.993 142.444 159.146 147.598 165.503 147.598Z" fill="#FDF9F4"/>
<path d="M136.087 147.598C142.444 147.598 147.598 142.444 147.598 136.087C147.598 129.73 142.444 124.576 136.087 124.576C129.73 124.576 124.576 129.73 124.576 136.087C124.576 142.444 129.73 147.598 136.087 147.598Z" fill="#FDF9F4"/>
<path d="M194.92 147.598C201.277 147.598 206.431 142.444 206.431 136.087C206.431 129.73 201.277 124.576 194.92 124.576C188.563 124.576 183.409 129.73 183.409 136.087C183.409 142.444 188.563 147.598 194.92 147.598Z" fill="#FDF9F4"/>
<path d="M224.497 147.598C230.854 147.598 236.007 142.444 236.007 136.087C236.007 129.73 230.854 124.576 224.497 124.576C218.139 124.576 212.986 129.73 212.986 136.087C212.986 142.444 218.139 147.598 224.497 147.598Z" fill="#FDF9F4"/>
<path d="M253.913 147.598C260.27 147.598 265.424 142.444 265.424 136.087C265.424 129.73 260.27 124.576 253.913 124.576C247.556 124.576 242.402 129.73 242.402 136.087C242.402 142.444 247.556 147.598 253.913 147.598Z" fill="#FDF9F4"/>
<path d="M224.497 295C230.854 295 236.007 289.847 236.007 283.49C236.007 277.132 230.854 271.979 224.497 271.979C218.139 271.979 212.986 277.132 212.986 283.49C212.986 289.847 218.139 295 224.497 295Z" fill="#FDF9F4"/>
<path d="M194.92 295C201.277 295 206.431 289.847 206.431 283.49C206.431 277.132 201.277 271.979 194.92 271.979C188.563 271.979 183.409 277.132 183.409 283.49C183.409 289.847 188.563 295 194.92 295Z" fill="#FDF9F4"/>
<path d="M165.503 295C171.861 295 177.014 289.847 177.014 283.49C177.014 277.132 171.861 271.979 165.503 271.979C159.146 271.979 153.993 277.132 153.993 283.49C153.993 289.847 159.146 295 165.503 295Z" fill="#FDF9F4"/>
<path d="M224.497 265.424C230.854 265.424 236.007 260.27 236.007 253.913C236.007 247.556 230.854 242.402 224.497 242.402C218.139 242.402 212.986 247.556 212.986 253.913C212.986 260.27 218.139 265.424 224.497 265.424Z" fill="#FDF9F4"/>
<path d="M253.913 265.424C260.27 265.424 265.424 260.27 265.424 253.913C265.424 247.556 260.27 242.402 253.913 242.402C247.556 242.402 242.402 247.556 242.402 253.913C242.402 260.27 247.556 265.424 253.913 265.424Z" fill="#FDF9F4"/>
<path d="M194.92 265.424C201.277 265.424 206.431 260.27 206.431 253.913C206.431 247.556 201.277 242.402 194.92 242.402C188.563 242.402 183.409 247.556 183.409 253.913C183.409 260.27 188.563 265.424 194.92 265.424Z" fill="#FDF9F4"/>
<path d="M165.503 265.424C171.861 265.424 177.014 260.27 177.014 253.913C177.014 247.556 171.861 242.402 165.503 242.402C159.146 242.402 153.993 247.556 153.993 253.913C153.993 260.27 159.146 265.424 165.503 265.424Z" fill="#FDF9F4"/>
<path d="M136.087 265.424C142.444 265.424 147.598 260.27 147.598 253.913C147.598 247.556 142.444 242.402 136.087 242.402C129.73 242.402 124.576 247.556 124.576 253.913C124.576 260.27 129.73 265.424 136.087 265.424Z" fill="#FDF9F4"/>
<path d="M165.503 177.014C171.861 177.014 177.014 171.861 177.014 165.503C177.014 159.146 171.861 153.993 165.503 153.993C159.146 153.993 153.993 159.146 153.993 165.503C153.993 171.861 159.146 177.014 165.503 177.014Z" fill="#FDF9F4"/>
<path d="M136.087 177.014C142.444 177.014 147.598 171.861 147.598 165.503C147.598 159.146 142.444 153.993 136.087 153.993C129.73 153.993 124.576 159.146 124.576 165.503C124.576 171.861 129.73 177.014 136.087 177.014Z" fill="#FDF9F4"/>
<path d="M106.511 177.014C112.868 177.014 118.022 171.861 118.022 165.503C118.022 159.146 112.868 153.993 106.511 153.993C100.154 153.993 95 159.146 95 165.503C95 171.861 100.154 177.014 106.511 177.014Z" fill="#FDF9F4"/>
<path d="M194.92 177.014C201.277 177.014 206.431 171.861 206.431 165.503C206.431 159.146 201.277 153.993 194.92 153.993C188.563 153.993 183.409 159.146 183.409 165.503C183.409 171.861 188.563 177.014 194.92 177.014Z" fill="#FDF9F4"/>
<path d="M224.497 177.014C230.854 177.014 236.007 171.861 236.007 165.503C236.007 159.146 230.854 153.993 224.497 153.993C218.139 153.993 212.986 159.146 212.986 165.503C212.986 171.861 218.139 177.014 224.497 177.014Z" fill="#FDF9F4"/>
<path d="M253.913 177.014C260.27 177.014 265.424 171.861 265.424 165.503C265.424 159.146 260.27 153.993 253.913 153.993C247.556 153.993 242.402 159.146 242.402 165.503C242.402 171.861 247.556 177.014 253.913 177.014Z" fill="#FDF9F4"/>
<path d="M283.489 177.014C289.846 177.014 295 171.861 295 165.503C295 159.146 289.846 153.993 283.489 153.993C277.132 153.993 271.978 159.146 271.978 165.503C271.978 171.861 277.132 177.014 283.489 177.014Z" fill="#FDF9F4"/>
<path d="M165.503 206.431C171.861 206.431 177.014 201.277 177.014 194.92C177.014 188.563 171.861 183.409 165.503 183.409C159.146 183.409 153.993 188.563 153.993 194.92C153.993 201.277 159.146 206.431 165.503 206.431Z" fill="#FDF9F4"/>
<path d="M136.087 206.431C142.444 206.431 147.598 201.277 147.598 194.92C147.598 188.563 142.444 183.409 136.087 183.409C129.73 183.409 124.576 188.563 124.576 194.92C124.576 201.277 129.73 206.431 136.087 206.431Z" fill="#FDF9F4"/>
<path d="M106.511 206.431C112.868 206.431 118.022 201.277 118.022 194.92C118.022 188.563 112.868 183.409 106.511 183.409C100.154 183.409 95 188.563 95 194.92C95 201.277 100.154 206.431 106.511 206.431Z" fill="#FDF9F4"/>
<path d="M194.92 206.431C201.277 206.431 206.431 201.277 206.431 194.92C206.431 188.563 201.277 183.409 194.92 183.409C188.563 183.409 183.409 188.563 183.409 194.92C183.409 201.277 188.563 206.431 194.92 206.431Z" fill="#FDF9F4"/>
<path d="M224.497 206.431C230.854 206.431 236.007 201.277 236.007 194.92C236.007 188.563 230.854 183.409 224.497 183.409C218.139 183.409 212.986 188.563 212.986 194.92C212.986 201.277 218.139 206.431 224.497 206.431Z" fill="#FDF9F4"/>
<path d="M253.913 206.431C260.27 206.431 265.424 201.277 265.424 194.92C265.424 188.563 260.27 183.409 253.913 183.409C247.556 183.409 242.402 188.563 242.402 194.92C242.402 201.277 247.556 206.431 253.913 206.431Z" fill="#FDF9F4"/>
<path d="M283.489 206.431C289.846 206.431 295 201.277 295 194.92C295 188.563 289.846 183.409 283.489 183.409C277.132 183.409 271.978 188.563 271.978 194.92C271.978 201.277 277.132 206.431 283.489 206.431Z" fill="#FDF9F4"/>
<path d="M165.503 236.007C171.861 236.007 177.014 230.853 177.014 224.496C177.014 218.139 171.861 212.985 165.503 212.985C159.146 212.985 153.993 218.139 153.993 224.496C153.993 230.853 159.146 236.007 165.503 236.007Z" fill="#FDF9F4"/>
<path d="M136.087 236.007C142.444 236.007 147.598 230.853 147.598 224.496C147.598 218.139 142.444 212.985 136.087 212.985C129.73 212.985 124.576 218.139 124.576 224.496C124.576 230.853 129.73 236.007 136.087 236.007Z" fill="#FDF9F4"/>
<path d="M106.511 236.007C112.868 236.007 118.022 230.853 118.022 224.496C118.022 218.139 112.868 212.985 106.511 212.985C100.154 212.985 95 218.139 95 224.496C95 230.853 100.154 236.007 106.511 236.007Z" fill="#FDF9F4"/>
<path d="M194.92 236.007C201.277 236.007 206.431 230.853 206.431 224.496C206.431 218.139 201.277 212.985 194.92 212.985C188.563 212.985 183.409 218.139 183.409 224.496C183.409 230.853 188.563 236.007 194.92 236.007Z" fill="#FDF9F4"/>
<path d="M224.497 236.007C230.854 236.007 236.007 230.853 236.007 224.496C236.007 218.139 230.854 212.985 224.497 212.985C218.139 212.985 212.986 218.139 212.986 224.496C212.986 230.853 218.139 236.007 224.497 236.007Z" fill="#FDF9F4"/>
<path d="M253.913 236.007C260.27 236.007 265.424 230.853 265.424 224.496C265.424 218.139 260.27 212.985 253.913 212.985C247.556 212.985 242.402 218.139 242.402 224.496C242.402 230.853 247.556 236.007 253.913 236.007Z" fill="#FDF9F4"/>
<path d="M283.489 236.007C289.846 236.007 295 230.853 295 224.496C295 218.139 289.846 212.985 283.489 212.985C277.132 212.985 271.978 218.139 271.978 224.496C271.978 230.853 277.132 236.007 283.489 236.007Z" fill="#FDF9F4"/>
</g>
</g>
<defs>
<clipPath id="clip0_3663_70">
<rect width="200" height="200" fill="white" transform="translate(95 95)"/>
</clipPath>
</defs>
</svg>
