<svg width="181" height="34" viewBox="0 0 181 34" fill="none" xmlns="http://www.w3.org/2000/svg">
<path d="M11.3577 33.3433C7.95191 33.3433 5.23032 32.6135 3.19293 31.1539C1.18594 29.6638 0.121635 27.6264 1.16101e-08 25.0417H7.02444C7.29812 27.3528 8.72734 28.5083 11.3121 28.5083C12.4372 28.5083 13.3191 28.3106 13.9577 27.9153C14.6267 27.4896 14.9611 26.9118 14.9611 26.182C14.9611 25.9387 14.9307 25.7259 14.8699 25.5434C14.8091 25.361 14.7027 25.1937 14.5506 25.0417C14.3986 24.8896 14.2465 24.7528 14.0945 24.6312C13.9729 24.5095 13.7752 24.4031 13.5015 24.3119C13.2278 24.1902 12.9846 24.099 12.7717 24.0382C12.5893 23.9774 12.3004 23.9166 11.9051 23.8557C11.5402 23.7645 11.2513 23.7037 11.0384 23.6733C10.8255 23.6125 10.4911 23.5516 10.0349 23.4908C9.57878 23.3996 9.24429 23.3388 9.03143 23.3084C8.05834 23.1563 7.2373 23.0043 6.56831 22.8522C5.89932 22.6698 5.1543 22.3961 4.33326 22.0312C3.54263 21.6663 2.88884 21.2558 2.37189 20.7996C1.88535 20.3131 1.47483 19.6745 1.14033 18.8839C0.805834 18.0628 0.638586 17.1202 0.638586 16.0559C0.638586 13.684 1.59646 11.8442 3.51222 10.5367C5.42798 9.22908 7.83028 8.57529 10.7191 8.57529C13.9729 8.57529 16.4968 9.24429 18.2909 10.5823C20.085 11.8899 21.0733 13.7144 21.2558 16.0559H14.4138C14.1705 14.2313 12.9238 13.3191 10.6735 13.3191C9.70042 13.3191 8.90979 13.5015 8.30161 13.8664C7.72385 14.2313 7.43496 14.7635 7.43496 15.4629C7.43496 15.6453 7.46537 15.8126 7.52619 15.9646C7.58701 16.1167 7.67823 16.2535 7.79987 16.3752C7.95191 16.4968 8.08875 16.6032 8.21039 16.6945C8.36243 16.7857 8.56009 16.8769 8.80336 16.9681C9.04663 17.0594 9.25949 17.1354 9.44194 17.1962C9.65481 17.257 9.92849 17.3178 10.263 17.3787C10.6279 17.4395 10.9168 17.5003 11.1296 17.5611C11.3729 17.5915 11.6922 17.6523 12.0875 17.7436C12.4828 17.8044 12.8021 17.85 13.0454 17.8804C14.0793 18.0628 14.9307 18.2301 15.5997 18.3821C16.2687 18.5342 17.0442 18.8079 17.926 19.2032C18.8383 19.5681 19.5529 20.009 20.0698 20.526C20.5868 21.0125 21.0277 21.6967 21.3926 22.5786C21.7879 23.43 21.9856 24.4335 21.9856 25.589C21.9856 28.0826 20.9973 29.9983 19.0207 31.3363C17.0746 32.6743 14.5202 33.3433 11.3577 33.3433ZM29.0218 32.6135L21.8605 9.25949H29.4323L31.9867 18.9295L33.0358 23.4452H33.127C33.4919 21.6511 33.8416 20.1002 34.1761 18.7927L36.6392 9.25949H42.9338L45.4882 18.7927L46.5829 23.4908H46.6741C47.0694 21.6967 47.4343 20.1763 47.7688 18.9295L50.3688 9.25949H57.7125L50.5513 32.6135H43.5724L40.8356 22.0312L39.8321 17.8348H39.7409C39.376 19.416 39.0263 20.8148 38.6918 22.0312L35.9094 32.6135H29.0218ZM59.4551 32.6135V9.25949H66.8901V32.6135H59.4551ZM59.4551 6.02095V-1.63695e-06H66.8901V6.02095H59.4551ZM80.4012 33.3433C76.9954 33.3433 74.2738 32.6135 72.2364 31.1539C70.2294 29.6638 69.1651 27.6264 69.0435 25.0417H76.0679C76.3416 27.3528 77.7708 28.5083 80.3556 28.5083C81.4807 28.5083 82.3626 28.3106 83.0012 27.9153C83.6702 27.4896 84.0047 26.9118 84.0047 26.182C84.0047 25.9387 83.9742 25.7259 83.9134 25.5434C83.8526 25.361 83.7462 25.1937 83.5941 25.0417C83.4421 24.8896 83.29 24.7528 83.138 24.6312C83.0164 24.5095 82.8187 24.4031 82.545 24.3119C82.2713 24.1902 82.0281 24.099 81.8152 24.0382C81.6328 23.9774 81.3439 23.9166 80.9486 23.8557C80.5837 23.7645 80.2948 23.7037 80.0819 23.6733C79.869 23.6125 79.5346 23.5516 79.0784 23.4908C78.6223 23.3996 78.2878 23.3388 78.0749 23.3084C77.1018 23.1563 76.2808 23.0043 75.6118 22.8522C74.9428 22.6698 74.1978 22.3961 73.3768 22.0312C72.5861 21.6663 71.9323 21.2558 71.4154 20.7996C70.9289 20.3131 70.5183 19.6745 70.1838 18.8839C69.8493 18.0628 69.6821 17.1202 69.6821 16.0559C69.6821 13.684 70.64 11.8442 72.5557 10.5367C74.4715 9.22908 76.8738 8.57529 79.7626 8.57529C83.0164 8.57529 85.5403 9.24429 87.3344 10.5823C89.1285 11.8899 90.1168 13.7144 90.2993 16.0559H83.4573C83.214 14.2313 81.9673 13.3191 79.717 13.3191C78.7439 13.3191 77.9533 13.5015 77.3451 13.8664C76.7673 14.2313 76.4785 14.7635 76.4785 15.4629C76.4785 15.6453 76.5089 15.8126 76.5697 15.9646C76.6305 16.1167 76.7217 16.2535 76.8434 16.3752C76.9954 16.4968 77.1323 16.6032 77.2539 16.6945C77.4059 16.7857 77.6036 16.8769 77.8469 16.9681C78.0901 17.0594 78.303 17.1354 78.4854 17.1962C78.6983 17.257 78.972 17.3178 79.3065 17.3787C79.6714 17.4395 79.9603 17.5003 80.1731 17.5611C80.4164 17.5915 80.7357 17.6523 81.131 17.7436C81.5263 17.8044 81.8456 17.85 82.0889 17.8804C83.1228 18.0628 83.9742 18.2301 84.6432 18.3821C85.3122 18.5342 86.0877 18.8079 86.9695 19.2032C87.8818 19.5681 88.5964 20.009 89.1133 20.526C89.6303 21.0125 90.0712 21.6967 90.4361 22.5786C90.8314 23.43 91.0291 24.4335 91.0291 25.589C91.0291 28.0826 90.0408 29.9983 88.0642 31.3363C86.1181 32.6743 83.5637 33.3433 80.4012 33.3433ZM103.609 33.3433C100.203 33.3433 97.4814 32.6135 95.444 31.1539C93.437 29.6638 92.3727 27.6264 92.251 25.0417H99.2755C99.5492 27.3528 100.978 28.5083 103.563 28.5083C104.688 28.5083 105.57 28.3106 106.209 27.9153C106.878 27.4896 107.212 26.9118 107.212 26.182C107.212 25.9387 107.182 25.7259 107.121 25.5434C107.06 25.361 106.954 25.1937 106.802 25.0417C106.65 24.8896 106.498 24.7528 106.346 24.6312C106.224 24.5095 106.026 24.4031 105.753 24.3119C105.479 24.1902 105.236 24.099 105.023 24.0382C104.84 23.9774 104.551 23.9166 104.156 23.8557C103.791 23.7645 103.502 23.7037 103.289 23.6733C103.077 23.6125 102.742 23.5516 102.286 23.4908C101.83 23.3996 101.495 23.3388 101.282 23.3084C100.309 23.1563 99.4883 23.0043 98.8193 22.8522C98.1503 22.6698 97.4053 22.3961 96.5843 22.0312C95.7937 21.6663 95.1399 21.2558 94.6229 20.7996C94.1364 20.3131 93.7259 19.6745 93.3914 18.8839C93.0569 18.0628 92.8896 17.1202 92.8896 16.0559C92.8896 13.684 93.8475 11.8442 95.7633 10.5367C97.679 9.22908 100.081 8.57529 102.97 8.57529C106.224 8.57529 108.748 9.24429 110.542 10.5823C112.336 11.8899 113.324 13.7144 113.507 16.0559H106.665C106.422 14.2313 105.175 13.3191 102.925 13.3191C101.951 13.3191 101.161 13.5015 100.553 13.8664C99.9749 14.2313 99.686 14.7635 99.686 15.4629C99.686 15.6453 99.7164 15.8126 99.7772 15.9646C99.838 16.1167 99.9293 16.2535 100.051 16.3752C100.203 16.4968 100.34 16.6032 100.461 16.6945C100.613 16.7857 100.811 16.8769 101.054 16.9681C101.298 17.0594 101.511 17.1354 101.693 17.1962C101.906 17.257 102.18 17.3178 102.514 17.3787C102.879 17.4395 103.168 17.5003 103.381 17.5611C103.624 17.5915 103.943 17.6523 104.339 17.7436C104.734 17.8044 105.053 17.85 105.296 17.8804C106.33 18.0628 107.182 18.2301 107.851 18.3821C108.52 18.5342 109.295 18.8079 110.177 19.2032C111.089 19.5681 111.804 20.009 112.321 20.526C112.838 21.0125 113.279 21.6967 113.644 22.5786C114.039 23.43 114.237 24.4335 114.237 25.589C114.237 28.0826 113.248 29.9983 111.272 31.3363C109.326 32.6743 106.771 33.3433 103.609 33.3433ZM125.241 32.8872C122.869 32.8872 121.03 32.4158 119.722 31.4731C118.445 30.5001 117.806 28.8276 117.806 26.4557V13.912H114.705V9.25949H117.806V1.87014H125.059V9.25949H129.301V13.912H125.059V24.8592C125.059 25.7107 125.272 26.3036 125.697 26.6381C126.153 26.9726 126.807 27.1399 127.659 27.1399C127.902 27.1399 128.221 27.1399 128.617 27.1399C129.012 27.1095 129.24 27.0943 129.301 27.0943V32.5223C128.449 32.7655 127.096 32.8872 125.241 32.8872ZM143.154 33.2977C139.383 33.2977 136.357 32.1421 134.077 29.8311C131.826 27.4896 130.701 24.5095 130.701 20.8909C130.701 17.3634 131.811 14.429 134.031 12.0875C136.281 9.74603 139.17 8.57529 142.698 8.57529C145.89 8.57529 148.551 9.54837 150.68 11.4945C153.477 14.0489 154.846 17.8348 154.785 22.8522H137.999C138.243 24.4639 138.805 25.7259 139.687 26.6381C140.569 27.52 141.755 27.9609 143.245 27.9609C145.161 27.9609 146.453 27.1855 147.122 25.6347H154.375C153.827 27.8849 152.52 29.7246 150.452 31.1539C148.414 32.5831 145.982 33.2977 143.154 33.2977ZM138.045 18.4278H147.259C147.137 17.0289 146.666 15.919 145.845 15.098C145.054 14.2769 144.051 13.8664 142.834 13.8664C140.189 13.8664 138.592 15.3869 138.045 18.4278ZM166.442 33.3433C163.402 33.3433 160.938 32.2334 159.053 30.0135C157.168 27.7937 156.225 24.768 156.225 20.9365C156.225 17.2874 157.168 14.3226 159.053 12.0419C160.969 9.73083 163.432 8.57529 166.442 8.57529C169.24 8.57529 171.414 9.68521 172.965 11.9051H173.102V-1.63695e-06H180.537V32.6135H173.421V29.4662H173.33C171.81 32.0509 169.514 33.3433 166.442 33.3433ZM168.358 27.4592C169.879 27.4592 171.08 26.8662 171.962 25.6803C172.843 24.4639 173.284 22.8827 173.284 20.9365C173.284 18.8991 172.874 17.2722 172.053 16.0559C171.232 14.8091 170.031 14.1857 168.449 14.1857C166.99 14.1857 165.834 14.7939 164.983 16.0103C164.162 17.2266 163.751 18.8383 163.751 20.8453C163.751 22.8827 164.162 24.4943 164.983 25.6803C165.804 26.8662 166.929 27.4592 168.358 27.4592Z" fill="white"/>
</svg>
