<svg width="390" height="390" viewBox="0 0 390 390" fill="none" xmlns="http://www.w3.org/2000/svg">
<path fill-rule="evenodd" clip-rule="evenodd" d="M135.715 79.2036C104.504 79.2036 79.2031 104.505 79.2031 135.715C79.2031 166.926 104.504 192.228 135.715 192.228H192.227V135.715C192.227 104.505 166.926 79.2036 135.715 79.2036ZM136.068 112.288C122.934 112.288 112.288 122.935 112.288 136.068C112.288 149.201 122.934 159.848 136.068 159.848H159.847V136.068C159.847 122.935 149.201 112.288 136.068 112.288Z" fill="#FDF9F4"/>
<path fill-rule="evenodd" clip-rule="evenodd" d="M252.217 79.2036C283.427 79.2036 308.729 104.505 308.729 135.715C308.729 166.926 283.427 192.228 252.217 192.228H195.705V135.715C195.705 104.505 221.006 79.2036 252.217 79.2036ZM251.865 112.288C264.998 112.288 275.644 122.935 275.644 136.068C275.644 149.201 264.998 159.848 251.865 159.848H228.085V136.068C228.085 122.935 238.731 112.288 251.865 112.288Z" fill="#FDF9F4"/>
<path fill-rule="evenodd" clip-rule="evenodd" d="M135.715 308.024C104.504 308.024 79.2031 282.722 79.2031 251.512C79.2031 220.301 104.504 195 135.715 195H192.227V251.512C192.227 282.722 166.926 308.024 135.715 308.024ZM136.068 274.939C122.934 274.939 112.288 264.292 112.288 251.159C112.288 238.026 122.934 227.38 136.068 227.38H159.847V251.159C159.847 264.292 149.201 274.939 136.068 274.939Z" fill="#FDF9F4"/>
<path fill-rule="evenodd" clip-rule="evenodd" d="M252.217 308.024C283.427 308.024 308.729 282.722 308.729 251.512C308.729 220.301 283.427 195 252.217 195H195.705V251.512C195.705 282.722 221.006 308.024 252.217 308.024ZM251.865 274.939C264.998 274.939 275.644 264.292 275.644 251.159C275.644 238.026 264.998 227.38 251.865 227.38H228.085V251.159C228.085 264.292 238.731 274.939 251.865 274.939Z" fill="#FDF9F4"/>
</svg>
