<svg preserveAspectRatio="none" width="100%" height="100%" overflow="visible" style="display: block;" viewBox="0 0 93.9691 93.6277" fill="none" xmlns="http://www.w3.org/2000/svg">
<g id="logogram">
<path id="Vector" d="M57.105 92.3132C57.7543 93.4518 59.153 93.9309 60.3675 93.43L70.566 89.2264C71.7808 88.7258 72.431 87.4024 72.0832 86.1394L67.3865 69.0915C67.2208 68.4904 66.8439 67.9687 66.3243 67.6217L53.1417 58.8169C52.3693 58.3011 51.3186 58.7342 51.1377 59.643L48.0509 75.154C47.9292 75.7653 48.0321 76.3999 48.3412 76.9417L57.105 92.3132Z" fill="var(--fill-0, #09090B)"/>
<path id="Vector_2" d="M86.4309 71.8565C87.6982 72.2042 89.0272 71.5575 89.5305 70.3476L93.7587 60.1899C94.2623 58.9803 93.7829 57.5862 92.6405 56.9383L77.221 48.1925C76.6774 47.8841 76.0406 47.7809 75.427 47.9017L59.8566 50.9634C58.9444 51.1427 58.5089 52.1894 59.0259 52.9592L67.8511 66.1021C68.1989 66.62 68.722 66.9961 69.325 67.1616L86.4309 71.8565Z" fill="var(--fill-0, #09090B)"/>
<path id="Vector_3" d="M92.6497 36.7301C93.7925 36.0831 94.2733 34.6895 93.7707 33.4794L89.5517 23.318C89.0493 22.1078 87.721 21.4598 86.4535 21.8064L69.3433 26.486C68.7401 26.651 68.2165 27.0266 67.8682 27.5443L59.0315 40.6792C58.5136 41.4488 58.9484 42.4955 59.8604 42.6758L75.428 45.7515C76.0415 45.8726 76.6784 45.77 77.2222 45.4621L92.6497 36.7301Z" fill="var(--fill-0, #09090B)"/>
<path id="Vector_4" d="M72.1184 7.51076C72.4674 6.2481 71.8184 4.92405 70.6041 4.4223L60.4093 0.209562C59.1953 -0.292178 57.7961 0.185441 57.1459 1.32364L48.3682 16.6872C48.0587 17.2289 47.955 17.8634 48.0763 18.4748L51.1492 33.9885C51.3292 34.8974 52.3796 35.3315 53.1525 34.8162L66.3431 26.0233C66.8629 25.6765 67.2403 25.1553 67.4065 24.5545L72.1184 7.51076Z" fill="var(--fill-0, #09090B)"/>
<path id="Vector_5" d="M36.864 1.31461C36.2147 0.175829 34.816 -0.303035 33.6015 0.197623L23.403 4.40127C22.1884 4.90194 21.538 6.22541 21.8859 7.4884L26.5825 24.5362C26.7482 25.1373 27.1251 25.6589 27.6447 26.006L40.8275 34.8108C41.5999 35.3266 42.6504 34.8937 42.8313 33.9847L45.9183 18.4738C46.0398 17.8625 45.9369 17.2279 45.6278 16.686L36.864 1.31461Z" fill="var(--fill-0, #09090B)"/>
<path id="Vector_6" d="M7.53815 21.7713C6.27087 21.4235 4.94199 22.0703 4.43843 23.2801L0.210324 33.4378C-0.293245 34.6476 0.186117 36.0415 1.32847 36.6896L16.7481 45.4352C17.2917 45.7435 17.9285 45.8468 18.5422 45.726L34.1124 42.6643C35.0246 42.4849 35.4603 41.4385 34.9431 40.6684L26.1181 27.5258C25.7701 27.0076 25.247 26.6316 24.644 26.466L7.53815 21.7713Z" fill="var(--fill-0, #09090B)"/>
<path id="Vector_7" d="M1.3194 56.8976C0.17647 57.5445 -0.30414 58.9382 0.198344 60.1482L4.41733 70.3097C4.9198 71.52 6.24812 72.1679 7.51571 71.8214L24.6257 67.1417C25.2289 66.9766 25.7525 66.6011 26.1008 66.0834L34.9377 52.9487C35.4554 52.1791 35.0209 51.1322 34.1086 50.9519L18.5412 47.8764C17.9276 47.7551 17.2907 47.8577 16.7469 48.1656L1.3194 56.8976Z" fill="var(--fill-0, #09090B)"/>
<path id="Vector_8" d="M21.8507 86.1169C21.5016 87.3797 22.1508 88.7038 23.365 89.2053L33.5597 93.4181C34.7739 93.9199 36.1731 93.4422 36.8233 92.304L45.6008 76.9405C45.9103 76.3989 46.014 75.7644 45.8927 75.1528L42.8198 59.6392C42.6398 58.7302 41.5896 58.2964 40.8167 58.8115L27.6261 67.6046C27.1061 67.9512 26.7287 68.4724 26.5625 69.0732L21.8507 86.1169Z" fill="var(--fill-0, #09090B)"/>
</g>
</svg>
