<svg width="200" height="72" viewBox="0 0 200 72" fill="none" xmlns="http://www.w3.org/2000/svg">
<path d="M19.926 30.9958C19.8698 32.3083 19.8418 33.9702 19.8418 35.981C19.8418 37.9918 19.8698 39.6674 19.926 41.0079C19.982 42.3206 20.0941 43.3679 20.2624 44.1499C20.4587 44.9318 20.7252 45.4764 21.0618 45.7837C21.4264 46.0908 21.9032 46.2445 22.4923 46.2445C23.0812 46.2445 23.5439 46.0908 23.8806 45.7837C24.2452 45.4764 24.5116 44.9318 24.6799 44.1499C24.8763 43.3679 25.0024 42.3206 25.0586 41.0079C25.1147 39.6674 25.1427 37.9918 25.1427 35.981C25.1427 33.9702 25.1147 32.3083 25.0586 30.9958C25.0024 29.6552 24.8763 28.5939 24.6799 27.812C24.5116 27.03 24.2452 26.4854 23.8806 26.1782C23.5439 25.8709 23.0812 25.7173 22.4923 25.7173C21.9032 25.7173 21.4264 25.8709 21.0618 26.1782C20.7252 26.4854 20.4587 27.03 20.2624 27.812C20.0941 28.5939 19.982 29.6552 19.926 30.9958Z" fill="#09090B"/>
<path fill-rule="evenodd" clip-rule="evenodd" d="M21.4165 4.86118C11.2722 5.07734 3.20879 13.4128 3.37156 23.5149L3.57156 35.927L3.37156 48.3392C3.20879 58.4414 11.2722 66.7769 21.4165 66.9929L33.8836 67.2585L46.3506 66.9929C56.4949 66.7769 64.5585 58.4414 64.3957 48.3392L64.1957 35.927L64.3957 23.5149C64.5585 13.4128 56.4949 5.07734 46.3506 4.86118L33.8836 4.5957L21.4165 4.86118ZM34.3143 51.7324L29.6023 55.796L25.3111 51.1878C24.9745 51.2437 24.6379 51.2857 24.3014 51.3136C23.9928 51.3694 23.6422 51.3974 23.2496 51.3974H22.4923C20.5009 51.3974 18.818 51.1321 17.4437 50.6014C16.0694 50.0708 14.9616 49.191 14.1202 47.9622C13.2788 46.7054 12.6757 45.0995 12.3111 43.1447C11.9465 41.1617 11.7642 38.7738 11.7642 35.9811C11.7642 33.1883 11.9465 30.8144 12.3111 28.8594C12.6757 26.8765 13.2788 25.2707 14.1202 24.0418C14.9616 22.785 16.0694 21.8774 17.4437 21.3189C18.818 20.7323 20.5009 20.4391 22.4923 20.4391C24.4837 20.4391 26.1665 20.7323 27.5408 21.3189C28.9151 21.8774 30.0231 22.785 30.8645 24.0418C31.7059 25.2707 32.3089 26.8765 32.6736 28.8594C33.0382 30.8144 33.2205 33.1883 33.2205 35.9811C33.2205 38.8576 33.0242 41.2874 32.6314 43.2703C32.2388 45.2532 31.5937 46.873 30.6962 48.1298L34.3143 51.7324ZM47.5946 31.7918V30.1162C47.5946 28.4125 47.4263 27.2535 47.0897 26.6392C46.7533 26.0247 46.2063 25.7174 45.4489 25.7174C44.86 25.7174 44.3833 25.8711 44.0186 26.1784C43.682 26.4855 43.4156 27.0301 43.2193 27.8122C43.0509 28.5941 42.9388 29.6554 42.8826 30.996C42.8265 32.3085 42.7985 33.9703 42.7985 35.9811C42.7985 37.9919 42.8265 39.6675 42.8826 41.0081C42.9388 42.3208 43.0509 43.368 43.2193 44.1501C43.4156 44.9319 43.682 45.4765 44.0186 45.7838C44.3833 46.091 44.86 46.2446 45.4489 46.2446C45.9257 46.2446 46.3185 46.133 46.6269 45.9095C46.9356 45.6581 47.1739 45.2532 47.3422 44.6946C47.5105 44.1361 47.6226 43.3959 47.6788 42.4743C47.7629 41.5248 47.8049 40.3379 47.8049 38.9135H55.3777V41.1339C55.3777 43.2285 55.0973 44.946 54.5363 46.2865C53.9754 47.627 53.2322 48.6884 52.3066 49.4702C51.3809 50.2244 50.3153 50.727 49.1091 50.9784C47.9313 51.2577 46.7111 51.3974 45.4489 51.3974C43.2613 51.3974 41.4663 51.1321 40.0639 50.6014C38.6616 50.0708 37.5677 49.191 36.7823 47.9622C35.9969 46.7054 35.45 45.0995 35.1416 43.1447C34.8611 41.1617 34.7208 38.7738 34.7208 35.9811C34.7208 33.1324 34.8891 30.7167 35.2257 28.7338C35.5903 26.7509 36.1934 25.145 37.0348 23.9162C37.8762 22.6873 38.984 21.8075 40.3583 21.2769C41.7326 20.7183 43.4296 20.4391 45.4489 20.4391C47.216 20.4391 48.7165 20.6626 49.9506 21.1094C51.1846 21.5563 52.1803 22.1986 52.9377 23.0364C53.7229 23.8464 54.2839 24.8378 54.6205 26.0108C54.9851 27.1558 55.1674 28.4545 55.1674 29.9068V31.7918H47.5946Z" fill="#09090B"/>
<path fill-rule="evenodd" clip-rule="evenodd" d="M101.162 25.9449L108.021 33.0323L114.88 25.9449H126.796L113.97 38.0948L126.796 50.2446H114.88L108.021 43.1391L101.162 50.2446H89.2274L102.054 38.0948L89.2274 25.9449H101.162ZM100.501 38.0948L86.5508 24.8804H101.618L108.021 31.4966L114.424 24.8804H128.953V24.8623H153.578C159.208 24.805 163.974 29.4936 163.898 35.1193C163.896 37.1428 163.347 39.008 162.247 40.6682C161.419 41.9248 160.37 42.9587 159.113 43.7449L164.364 50.4579V46.1043C164.364 42.6933 166.924 40.5188 169.868 39.0766C172.842 37.6207 176.594 36.7111 179.719 35.9751L179.724 35.9741L179.759 35.9652C181.685 35.4935 183.325 35.092 184.493 34.6589C185.084 34.4394 185.471 34.2407 185.693 34.0719C185.721 34.0504 185.744 34.0314 185.764 34.015C185.696 33.9532 185.558 33.8608 185.285 33.7543C184.65 33.5066 183.565 33.32 181.922 33.3196C180.167 33.3376 178.674 33.4798 177.656 33.8355C177.154 34.0109 176.851 34.2107 176.681 34.3982C176.536 34.5592 176.45 34.7502 176.458 35.0499L176.484 36.14H164.745V35.0754C164.745 32.89 165.176 31.0627 166.038 29.5656C166.904 28.0617 168.165 26.9636 169.704 26.1761C172.722 24.6308 176.881 24.2476 181.518 24.2476C186.265 24.2476 190.207 24.7931 192.998 26.1975C194.41 26.9093 195.558 27.8564 196.347 29.0883C197.138 30.3233 197.525 31.7771 197.525 33.4302C197.525 36.4892 195.671 38.4377 193.399 39.7076C191.193 40.9407 188.416 41.6409 186.11 42.2011H197.125V51.2731H165.001L165.014 51.2912H152.147L147.544 45.3609H140.628V51.2912H129.453L129.473 51.3093H114.423L108.021 44.677L101.619 51.3093H86.5508L100.501 38.0948ZM128.953 50.8163V25.3732L115.523 38.0948L128.953 50.8163ZM148.071 44.2963L152.674 50.2265H162.825L157.494 43.4103C157.828 43.2563 158.147 43.086 158.453 42.8997C159.619 42.1886 160.588 41.2438 161.351 40.0836C162.334 38.601 162.825 36.9376 162.825 35.1116C162.899 30.0852 158.624 25.8726 153.584 25.9268H130.024V50.2265H139.556V44.2963H148.071ZM180.499 43.2657C180.833 42.8593 181.438 42.5137 182.241 42.2011C183.187 41.8323 184.405 41.5093 185.774 41.1866C190.468 40.0474 196.454 38.4925 196.454 33.4302C196.454 27.4998 190.924 25.3121 181.518 25.3121C172.673 25.3121 166.401 26.7469 165.856 34.0108C165.83 34.3527 165.816 34.7073 165.816 35.0754H175.387C175.385 35.0353 175.385 34.9958 175.387 34.9569C175.439 32.797 178.433 32.2904 181.918 32.2549C185.319 32.2549 186.884 33.0142 186.884 34.0449C186.884 35.317 183.865 36.0565 180.074 36.9847L179.971 37.0099C173.676 38.4925 165.434 40.5537 165.434 46.1043V50.2085H196.053V43.2657H180.499ZM185.824 34.0967C185.824 34.0967 185.818 34.09 185.814 34.0743C185.824 34.0884 185.824 34.0967 185.824 34.0967ZM152.204 35.1116C152.204 34.5425 151.754 34.097 151.182 34.097H140.628V36.1081H151.182C151.49 36.1081 151.705 36.0151 151.898 35.8233C152.118 35.6049 152.204 35.3864 152.204 35.1116ZM153.274 35.1116C153.274 33.9544 152.347 33.0323 151.182 33.0323H139.556V37.1726H151.182C151.764 37.1726 152.256 36.9738 152.656 36.5761C153.074 36.1602 153.274 35.6721 153.274 35.1116Z" fill="#09090B"/>
<path d="M90.1094 67.7757H94.6754V61.5504L99.2498 67.7757H101.533L106.107 61.5504V67.7757H110.673V56.1064H104.966L100.391 61.9411L95.8255 56.1064H90.1094V67.7757Z" fill="#09090B"/>
<path d="M120.292 55.8198C115.883 55.8286 112.276 57.0961 112.293 61.5155V62.3663C112.276 66.777 115.883 68.0534 120.292 68.062C124.692 68.0534 128.299 66.777 128.282 62.3663V61.5155C128.282 57.1048 124.701 55.8198 120.292 55.8198ZM123.716 62.0798C123.742 63.99 122.156 64.3373 120.292 64.3633C118.419 64.3373 116.833 63.99 116.859 62.0798V61.7934C116.833 59.8918 118.419 59.5445 120.292 59.5185C122.156 59.5445 123.742 59.8918 123.716 61.7934V62.0798Z" fill="#09090B"/>
<path d="M141.073 61.9582C141.073 63.1302 140.403 64.094 139.218 64.094H134.217V59.8222H139.218C140.403 59.8222 141.073 60.7772 141.073 61.9582ZM129.65 56.1236V67.7926H140.072C143.287 67.8361 145.675 65.1272 145.649 61.9582C145.675 58.7716 143.287 56.0801 140.072 56.1236H129.65Z" fill="#09090B"/>
<path d="M158.361 62.0887C158.387 64.0074 156.802 64.3374 154.936 64.3635C153.064 64.3374 151.487 64.0074 151.504 62.0887V56.1064H146.938V62.3752C146.921 66.7859 150.545 68.0535 154.936 68.0621C159.328 68.0535 162.953 66.7859 162.936 62.3752V56.1064H158.361V62.0887Z" fill="#09090B"/>
<path d="M164.992 56.1064V67.7757H178.7V64.077H169.558V56.1064H164.992Z" fill="#09090B"/>
<path d="M180.258 67.7926H193.966V64.7972H184.824V63.3038H193.966V60.6036H184.824V59.1102H193.966V56.1235H180.258V67.7926Z" fill="#09090B"/>
<path d="M92.738 11.651V9.19177H99.5056C99.8334 9.19177 100.119 9.30988 100.351 9.55683C100.595 9.7932 100.711 10.083 100.711 10.4267C100.711 10.7597 100.595 11.0495 100.351 11.2966C100.119 11.5328 99.8334 11.651 99.5056 11.651H92.738ZM87.1973 4.9715V19.4043H92.738V15.882H100.891C103.82 15.925 106.305 13.4013 106.263 10.4267C106.305 7.44141 103.82 4.93918 100.891 4.9715H87.1973Z" fill="#09090B"/>
<path d="M117.291 4.5957C111.941 4.60643 107.563 6.17434 107.584 11.6404V12.6928C107.563 18.1481 111.941 19.7266 117.291 19.7373C122.631 19.7266 127.009 18.1481 126.988 12.6928V11.6404C126.988 6.18506 122.641 4.5957 117.291 4.5957ZM121.446 12.3383C121.478 14.7008 119.554 15.1304 117.291 15.1627C115.018 15.1304 113.093 14.7008 113.125 12.3383V11.984C113.093 9.63218 115.018 9.20263 117.291 9.17046C119.554 9.20263 121.478 9.63218 121.446 11.984V12.3383Z" fill="#09090B"/>
<path d="M148.59 14.1103L145.301 4.97168H139.062L135.764 14.1103L132.475 4.97168H126.236L132.475 19.4045H139.062L142.182 12.1881L145.301 19.4045H151.889L158.129 4.97168H151.889L148.59 14.1103Z" fill="#09090B"/>
<path d="M158.553 19.4045H175.185V15.6997H164.093V13.8525H175.185V10.5128H164.093V8.66574H175.185V4.97168H158.553V19.4045Z" fill="#09090B"/>
<path d="M178.135 4.96076V19.3937H183.675V15.8714H188.624L191.299 19.3937H197.199L194.101 15.3451C195.032 14.9049 195.782 14.2391 196.342 13.3693C196.915 12.4887 197.199 11.5008 197.199 10.4161C197.242 7.43066 194.756 4.92859 191.829 4.96076H178.135ZM190.432 9.18118C191.109 9.18118 191.649 9.72884 191.649 10.4161C191.649 10.7489 191.532 11.0389 191.289 11.2859C191.056 11.5223 190.77 11.6404 190.432 11.6404H183.675V9.18118H190.432Z" fill="#09090B"/>
</svg>
