<svg width="150" height="122" viewBox="0 0 150 122" fill="none" xmlns="http://www.w3.org/2000/svg">
<path d="M49.7545 41.9292C49.7545 41.6193 49.7545 37.1108 49.7545 37.1108H47.0837C47.0837 37.1108 47.0837 41.5494 47.0837 41.6895C47.0837 42.5091 46.3264 43.0589 45.0508 43.0589C43.7154 43.0589 42.9879 42.5291 42.9879 41.6793C42.9879 41.5394 42.9879 37.1108 42.9879 37.1108H40.2871C40.2871 37.1108 40.2871 41.3194 40.2871 41.6793C40.2871 44.0585 42.2304 45.0683 44.9412 45.0683C47.8412 45.0683 49.7545 44.0486 49.7545 41.9292Z" fill="#09090B"/>
<path d="M58.7495 44.9583V42.869H53.986V37.1108H51.2852V44.9583H58.7495Z" fill="#09090B"/>
<path d="M66.7754 39.0803V37.1108H57.4375V39.0803H60.7361V44.9583H63.4667V39.0803H66.7754Z" fill="#09090B"/>
<path d="M70.3675 44.9583V37.1108H67.627V44.9583H70.3675Z" fill="#09090B"/>
<path d="M82.9403 44.9583V37.1108H79.5618L77.4292 41.8194L75.3963 37.1108H71.9082V44.9583H74.4495V40.7198L76.2831 44.9583H78.5554L80.4089 40.7198V44.9583H82.9403Z" fill="#09090B"/>
<path d="M87.1727 43.5087H91.3982L92.086 44.9583H94.966L91.0196 37.1108H87.8007L83.625 44.9583H86.4452L87.1727 43.5087ZM90.5512 41.7493H88.0498L89.0364 39.8599L89.3353 39.1403L89.6145 39.8499L90.5512 41.7493Z" fill="#09090B"/>
<path d="M103.437 39.0803V37.1108H94.0996V39.0803H97.3982V44.9583H100.129V39.0803H103.437Z" fill="#09090B"/>
<path d="M112.519 44.9583V43.0089H106.91V41.9892H112.29V40.0799H106.91V39.0702H112.45V37.1108H104.279V44.9583H112.519Z" fill="#09090B"/>
<path d="M60.6548 49.1299H58.0736C58.0736 49.1299 56.3893 54.0682 56.3893 54.1882C56.3893 54.0682 54.8147 49.1299 54.8147 49.1299H52.0144C52.0144 49.1299 50.4497 54.0682 50.4497 54.1882C50.4497 54.0682 48.7555 49.1299 48.7555 49.1299H45.8555L48.7855 56.9773H51.7055C51.7055 56.9773 53.2801 52.2889 53.29 52.1589C53.2999 52.2889 54.8646 56.9773 54.8646 56.9773H57.7945L60.6548 49.1299Z" fill="#09090B"/>
<path d="M64.1859 56.9773V49.1299H61.4453V56.9773H64.1859Z" fill="#09090B"/>
<path d="M74.8473 56.9773V49.1299H72.2961V53.3985L68.539 49.1299H65.7285V56.9773H68.2998V52.6087L72.1765 56.9773H74.8473Z" fill="#09090B"/>
<path d="M85.5229 56.9773V49.1299H82.9717V53.3985L79.2146 49.1299H76.4043V56.9773H78.9754V52.6087L82.8521 56.9773H85.5229Z" fill="#09090B"/>
<path d="M95.3218 56.9773V55.028H89.7112V54.0083H95.0925V52.099H89.7112V51.0892H95.252V49.1299H87.0801V56.9773H95.3218Z" fill="#09090B"/>
<path d="M105.858 51.519C105.858 50.8094 105.688 50.2995 105.329 49.9296C104.861 49.4298 104.054 49.1299 102.818 49.1299H96.5898V56.9773H99.2507V54.2083H101.672L103.616 56.9773H106.586L104.224 53.7783C104.751 53.6984 105.181 53.3785 105.459 52.9987C105.708 52.6488 105.858 52.1288 105.858 51.519ZM103.268 51.7689C103.268 51.8991 103.247 52.0589 103.176 52.1789C103.077 52.3787 102.818 52.4589 102.39 52.4589H99.2607V51.0292H102.339C102.759 51.0292 103.039 51.0992 103.176 51.3592C103.247 51.4591 103.268 51.6191 103.268 51.7689Z" fill="#09090B"/>
<path d="M50.8788 64.6979C50.8788 64.5696 50.8788 60.8633 50.8788 60.8633H49.9458C49.9458 60.8633 49.9458 64.5544 49.9458 64.6376C49.9458 65.5282 49.1104 66.034 47.9064 66.034C46.4842 66.034 45.7843 65.4905 45.7843 64.63C45.7843 64.5469 45.7843 60.8633 45.7843 60.8633H44.8438C44.8438 60.8633 44.8438 64.4564 44.8438 64.5997C44.8438 66.1699 46.0628 66.8643 47.8689 66.8643C49.735 66.8643 50.8788 66.1245 50.8788 64.6979Z" fill="#09090B"/>
<path d="M57.5741 66.7888V65.9208H53.503V60.8633H52.5625V66.7888H57.5741Z" fill="#09090B"/>
<path d="M62.9187 61.7238V60.8633H56.6426V61.7238H59.3065V66.7888H60.2547V61.7238H62.9187Z" fill="#09090B"/>
<path d="M69.6077 62.539C69.6077 62.1162 69.5173 61.8067 69.3594 61.5577C69.0809 61.1425 68.5465 60.8633 67.6587 60.8633H63.8359V66.7888H64.7615V64.2903H67.4554L69.1034 66.7888H70.187L68.4036 64.1317C68.8551 64.079 69.2088 63.8222 69.3969 63.4901C69.5325 63.2636 69.6077 62.9316 69.6077 62.539ZM68.6745 62.6144C68.6745 62.7805 68.637 62.9845 68.5693 63.1203C68.4488 63.3391 68.1703 63.4523 67.7189 63.4598H64.769C64.769 63.4448 64.769 61.7087 64.769 61.7087H67.5458C68.1101 61.7087 68.4111 61.8446 68.5693 62.1012C68.637 62.222 68.6745 62.4257 68.6745 62.6144Z" fill="#09090B"/>
<path d="M72.2846 65.3244H75.9645L76.7169 66.7888H77.7254L74.7302 60.8633H73.6241L70.5312 66.7888H71.517L72.2846 65.3244ZM75.5731 64.4865H72.691L73.8874 62.2144L74.1509 61.6634L74.4142 62.2144L75.5731 64.4865Z" fill="#09090B"/>
<path d="M87.2703 66.2227C87.5037 65.9509 87.6091 65.566 87.6091 65.1508C87.6091 64.7583 87.4962 64.3657 87.2628 64.1241C87.0295 63.8978 86.6533 63.7091 86.2394 63.6713C86.4802 63.6335 86.6683 63.4826 86.7962 63.324C86.9995 63.09 87.1197 62.7126 87.1197 62.3352C87.1197 61.9351 86.9995 61.5727 86.7435 61.3236C86.4652 61.0445 85.9911 60.8633 85.3288 60.8633H81.3555V66.7888H85.6224C86.42 66.7888 86.9768 66.5851 87.2703 66.2227ZM86.149 62.5239C86.149 62.788 86.0663 63.0221 85.9234 63.1579C85.7803 63.3165 85.5395 63.3844 85.2836 63.3844H82.2735V61.6784H85.1105C85.4568 61.6784 85.7201 61.7464 85.9007 61.9125C86.0588 62.0634 86.149 62.2823 86.149 62.5239ZM86.45 65.6489C86.2619 65.8604 85.9384 65.9661 85.4643 65.9661H82.2735V64.2073H85.487C85.9234 64.2073 86.2244 64.2978 86.405 64.4714C86.5704 64.63 86.6383 64.8338 86.6383 65.0678C86.6383 65.3094 86.5856 65.5131 86.45 65.6489Z" fill="#09090B"/>
<path d="M94.4401 66.7888V65.9208H89.8499V64.2299H94.2595V63.3694H89.8499V61.7238H94.3874V60.8633H88.9316V66.7888H94.4401Z" fill="#09090B"/>
<path d="M101.791 65.0377C101.791 64.0715 101.153 63.5733 99.58 63.3921C99.3159 63.3545 98.7438 63.2941 98.4353 63.2563C96.9755 63.0827 96.5315 62.8865 96.5315 62.3808C96.5315 61.8901 97.0207 61.6107 98.4955 61.6107C99.6388 61.6107 100.227 61.8373 100.521 62.2447C100.604 62.358 100.648 62.494 100.671 62.5996H101.678C101.65 62.4259 101.581 62.1843 101.475 61.9881C101.07 61.2862 100.235 60.7803 98.4955 60.7803C96.4186 60.7728 95.5608 61.5278 95.5608 62.4637C95.5608 63.3997 96.2305 63.8753 97.9689 64.0792C98.2699 64.1168 98.804 64.1772 99.0676 64.2075C100.415 64.3734 100.837 64.5774 100.837 65.1435C100.837 65.6644 100.354 66.0418 98.8115 66.0418C97.5475 66.0418 96.8701 65.8153 96.5992 65.3775C96.5165 65.2567 96.4638 65.068 96.4563 64.9397H95.4629C95.4856 65.2114 95.5608 65.5058 95.6962 65.7398C96.0876 66.457 97.0057 66.8722 98.7815 66.8722C100.904 66.8722 101.791 66.1851 101.791 65.0377Z" fill="#09090B"/>
<path d="M108.539 61.7238V60.8633H102.264V61.7238H104.927V66.7888H105.876V61.7238H108.539Z" fill="#09090B"/>
<path d="M42.1802 71.9394C42.1802 71.3355 42.0598 70.9278 41.8565 70.6183C41.5707 70.1728 41.0137 69.939 40.0429 69.939H36.3105V75.8645H37.2436V73.932C37.2436 73.932 39.8775 73.932 40.0054 73.932C40.916 73.9245 41.5405 73.7132 41.8717 73.2301C42.0823 72.9357 42.1802 72.513 42.1802 71.9394ZM41.232 71.9394C41.232 72.2411 41.2018 72.4676 41.1041 72.6187C40.931 72.8979 40.5772 73.0715 39.8473 73.0715C39.7796 73.0715 37.2436 73.0715 37.2436 73.0715V70.7844H39.8775C40.5622 70.7844 40.916 70.9428 41.1041 71.2523C41.1943 71.3881 41.232 71.6374 41.232 71.9394Z" fill="#09090B"/>
<path d="M48.9909 75.8645V74.9965H44.4005V73.3056H48.8103V72.4451H44.4005V70.7995H48.9382V69.939H43.4824V75.8645H48.9909Z" fill="#09090B"/>
<path d="M56.1702 71.6146C56.1702 71.1919 56.08 70.8824 55.9219 70.6334C55.6434 70.2181 55.1092 69.939 54.2212 69.939H50.3984V75.8645H51.324V73.3659H54.0181L55.6661 75.8645H56.7497L54.9661 73.2074C55.4178 73.1547 55.7715 72.8979 55.9596 72.5658C56.095 72.3393 56.1702 72.0073 56.1702 71.6146ZM55.2372 71.6901C55.2372 71.8562 55.1994 72.0601 55.1317 72.196C55.0113 72.4148 54.7328 72.528 54.2814 72.5355H51.3315C51.3315 72.5205 51.3315 70.7844 51.3315 70.7844H54.1083C54.6726 70.7844 54.9736 70.9203 55.1317 71.1769C55.1994 71.2976 55.2372 71.5014 55.2372 71.6901Z" fill="#09090B"/>
<path d="M63.1472 70.7995V69.939H57.8945V75.8645H58.8276V73.3434H62.9516V72.4601H58.8276V70.7995H63.1472Z" fill="#09090B"/>
<path d="M67.4296 69.833C66.1728 69.833 65.3075 70.1425 64.6902 70.7917C64.1711 71.2974 63.9453 71.9995 63.9453 72.8826C63.9453 73.8488 64.2388 74.5735 64.7806 75.0642C65.3602 75.6455 66.248 75.9472 67.4296 75.9472C68.6486 75.9472 69.5967 75.6455 70.1612 75.0339C70.6503 74.5357 70.9061 73.8263 70.9061 72.8751C70.9061 71.9542 70.6878 71.2521 70.1687 70.7539C69.5742 70.135 68.6861 69.833 67.4296 69.833ZM67.4296 75.102C66.6017 75.102 66.0147 74.9208 65.5708 74.5585C65.1194 74.1886 64.9011 73.6223 64.9011 72.8976C64.9011 72.2183 65.0892 71.6522 65.4504 71.3125C65.8643 70.92 66.4963 70.686 67.4221 70.686C68.3776 70.686 68.9721 70.9125 69.4161 71.3049C69.7925 71.6372 69.9579 72.2258 69.9579 72.8901C69.9579 73.5619 69.785 74.1357 69.4011 74.4828C68.9571 74.898 68.3326 75.102 67.4296 75.102Z" fill="#09090B"/>
<path d="M77.9671 71.6146C77.9671 71.1919 77.8767 70.8824 77.7188 70.6334C77.4402 70.2181 76.9059 69.939 76.0181 69.939H72.1953V75.8645H73.1209V73.3659H75.8148L77.4629 75.8645H78.5464L76.763 73.2074C77.2144 73.1547 77.5682 72.8979 77.7563 72.5658C77.8919 72.3393 77.9671 72.0073 77.9671 71.6146ZM77.0338 71.6901C77.0338 71.8562 76.9963 72.0601 76.9286 72.196C76.8082 72.4148 76.5297 72.528 76.0783 72.5355H73.1284C73.1284 72.5205 73.1284 70.7844 73.1284 70.7844H75.9052C76.4695 70.7844 76.7705 70.9203 76.9286 71.1769C76.9963 71.2976 77.0338 71.5014 77.0338 71.6901Z" fill="#09090B"/>
<path d="M86.9663 75.8645V69.939H85.7472L83.3166 74.8153L80.931 69.939H79.6895V75.8645H80.585V71.3052L82.8123 75.8645H83.7905L86.0707 71.3052V75.8645H86.9663Z" fill="#09090B"/>
<path d="M89.6089 74.4001H93.2887L94.0411 75.8645H95.0496L92.0545 69.939H90.9483L87.8555 75.8645H88.8412L89.6089 74.4001ZM92.8973 73.5622H90.0153L91.2116 71.2901L91.4751 70.7391L91.7384 71.2901L92.8973 73.5622Z" fill="#09090B"/>
<path d="M101.83 75.8645V69.939H100.934V74.5435L97.0221 69.939H95.9609V75.8645H96.8715V71.2297L100.815 75.8645H101.83Z" fill="#09090B"/>
<path d="M109.949 73.6526H108.97C108.939 73.9243 108.834 74.1961 108.646 74.3999C108.24 74.8755 107.594 75.0792 106.6 75.0792C105.765 75.0792 104.869 74.8452 104.439 74.2337C104.214 73.947 104.071 73.5243 104.071 72.8901C104.071 72.324 104.17 71.9013 104.387 71.6144C104.748 71.0333 105.508 70.7313 106.578 70.7313C107.616 70.7313 108.271 71.018 108.617 71.4182C108.812 71.6295 108.925 71.8787 108.962 72.173H109.941C109.91 71.8409 109.805 71.4483 109.58 71.1162C109.098 70.3991 108.21 69.833 106.584 69.833C105.035 69.833 104.109 70.3312 103.596 71.0784C103.266 71.5087 103.1 72.1126 103.1 72.8826C103.1 73.7431 103.304 74.3773 103.657 74.8226C104.17 75.5247 105.155 75.9472 106.645 75.9472C108.173 75.9472 109.083 75.4869 109.535 74.7547C109.791 74.3999 109.919 73.9771 109.949 73.6526Z" fill="#09090B"/>
<path d="M116.681 75.8645V74.9965H112.09V73.3056H116.501V72.4451H112.09V70.7995H116.629V69.939H111.172V75.8645H116.681Z" fill="#09090B"/>
<path d="M47.8611 81.751L48.9865 85.2255H52.6285L49.6822 87.3729L50.8076 90.8473L47.8611 88.7001L44.9146 90.8473L46.0402 87.3729L43.0938 85.2255H46.7357L47.8611 81.751Z" fill="#09090B"/>
<path d="M60.8549 81.751L62.0032 85.2253H65.7196L62.7131 87.3727L63.8614 90.8473L60.8549 88.6999L57.8484 90.8473L58.9967 87.3727L55.9902 85.2253H59.7066L60.8549 81.751Z" fill="#09090B"/>
<path d="M73.7436 81.751L74.8921 85.2253H78.6082L75.6017 87.3727L76.7503 90.8473L73.7436 88.6999L70.7371 90.8473L71.8854 87.3727L68.8789 85.2253H72.5953L73.7436 81.751Z" fill="#09090B"/>
<path d="M86.6342 81.751L87.7825 85.2253H91.4989L88.4924 87.3727L89.6407 90.8473L86.6342 88.6999L83.6277 90.8473L84.776 87.3727L81.7695 85.2253H85.4859L86.6342 81.751Z" fill="#09090B"/>
<path d="M99.6269 81.751L100.752 85.2253H104.395L101.447 87.3727L102.572 90.8473L99.6269 88.6999L96.6803 90.8473L97.8059 87.3727L94.8594 85.2253H98.5013L99.6269 81.751Z" fill="#09090B"/>
<path d="M54.1748 23.1318L55.0257 25.7589H57.7794L55.5517 27.3825L56.4027 30.0094L54.1748 28.386L51.9471 30.0094L52.798 27.3825L50.5703 25.7589H53.324L54.1748 23.1318Z" fill="#09090B"/>
<path d="M63.9986 23.1279L64.8669 25.755H67.6766L65.4035 27.3786L66.2717 30.0055L63.9986 28.3819L61.7252 30.0055L62.5936 27.3786L60.3203 25.755H63.1302L63.9986 23.1279Z" fill="#09090B"/>
<path d="M73.7427 23.1279L74.6109 25.755H77.4207L75.1476 27.3786L76.0158 30.0055L73.7427 28.3819L71.4694 30.0055L72.3378 27.3786L70.0645 25.755H72.8743L73.7427 23.1279Z" fill="#09090B"/>
<path d="M83.4907 23.1279L84.3589 25.755H87.1688L84.8957 27.3786L85.7639 30.0055L83.4907 28.3819L81.2174 30.0055L82.0858 27.3786L79.8125 25.755H82.6224L83.4907 23.1279Z" fill="#09090B"/>
<path d="M93.3115 23.1279L94.1624 25.755H96.9162L94.6885 27.3786L95.5394 30.0055L93.3115 28.3819L91.0838 30.0055L91.9347 27.3786L89.707 25.755H92.4605L93.3115 23.1279Z" fill="#09090B"/>
<path fill-rule="evenodd" clip-rule="evenodd" d="M14.9513 70.415C11.1961 46.8468 22.1558 23.529 44.0965 13.5156L44.299 13.9621C22.579 23.8746 11.7099 46.9644 15.4342 70.3375C19.5545 96.196 40.3506 111.704 65.8171 112.452L65.8027 112.942C40.1377 112.189 19.114 96.5403 14.9513 70.415Z" fill="#09090B"/>
<path d="M39.3405 19.5306C35.2858 19.6233 30.5404 21.9169 27.7402 25.2483C29.9858 27.34 33.5987 26.5667 36.1988 26.1389C39.9097 25.5285 43.8559 24.3459 47.3576 22.6719C45.9178 19.5975 42.0393 19.4689 39.3405 19.5306Z" fill="#09090B"/>
<path d="M36.1514 14.5132C33.7498 18.2659 30.8877 21.9956 27.7729 25.2801C25.167 22.8263 26.74 18.7427 27.8035 16.2033C29.7302 11.6018 34.3496 7.6338 39.179 5.60352C40.5045 8.62851 37.6255 12.2098 36.1514 14.5132Z" fill="#09090B"/>
<path d="M27.6073 30.0539C23.8107 31.4077 20.5482 35.2186 18.9102 39.0445C21.6402 40.3178 24.7437 38.479 27.0142 37.2548C30.1318 35.5736 33.3124 33.254 35.815 30.5696C33.5538 28.1763 30.1204 29.158 27.6073 30.0539Z" fill="#09090B"/>
<path d="M23.005 26.3041C22.1739 30.5843 20.7805 35.0206 18.9505 39.0641C15.7564 37.5529 15.878 33.2247 16.0148 30.4704C16.2483 25.7691 18.8703 20.408 22.5208 17.001C24.7555 19.4044 23.5345 23.5776 23.005 26.3041Z" fill="#09090B"/>
<path d="M20.3026 43.6405C17.139 46.1439 15.2215 50.7834 14.7773 54.9263C17.77 55.2709 20.1621 52.539 21.9421 50.6646C24.3654 48.1126 26.6594 44.9117 28.1162 41.563C25.2634 40.0018 22.3633 42.0097 20.3026 43.6405Z" fill="#09090B"/>
<path d="M14.8203 41.527C15.3844 45.8492 15.3856 50.5253 14.8213 54.9319C11.3409 54.5031 10.1865 50.3112 9.50458 47.6815C8.32729 43.1423 9.11661 37.279 11.41 32.8662C14.276 34.4577 14.4599 38.7643 14.8203 41.527Z" fill="#09090B"/>
<path d="M17.8187 58.4703C15.3153 62.1488 14.435 67.9135 15.5608 72.5471C18.8689 71.7614 20.5088 68.0044 21.8255 65.3511C23.5754 61.8247 25.0546 57.7107 25.584 53.6743C21.996 52.9252 19.4677 56.047 17.8187 58.4703Z" fill="#09090B"/>
<path d="M11.2464 58.0985C13.1968 62.6281 14.7189 67.6137 15.6096 72.536C11.8156 73.3536 9.08497 69.3573 7.49862 66.7074C4.67436 61.9905 3.85159 55.4515 4.88619 49.8086C8.35869 50.507 10.0579 55.3393 11.2464 58.0985Z" fill="#09090B"/>
<path d="M19.5709 74.4753C18.2267 78.9376 19.161 85.0041 21.8825 89.1992C24.8732 87.246 25.2871 82.9471 25.7109 79.8648C26.2698 75.7973 26.5329 71.2915 25.8386 67.0737C22.0134 67.5636 20.4686 71.4942 19.5709 74.4753Z" fill="#09090B"/>
<path d="M12.9233 76.3855C16.2793 80.2482 19.375 84.6524 21.928 89.1702C18.4654 91.3386 14.4023 88.3762 11.938 86.2799C7.56631 82.5611 4.72766 76.2405 4.05469 70.2816C7.6928 69.7912 10.8989 74.0551 12.9233 76.3855Z" fill="#09090B"/>
<path d="M26.6238 89.6635C26.9122 94.8576 30.2834 100.308 34.772 103.41C36.9397 100.433 35.581 95.8719 34.8415 92.6879C33.8461 88.401 32.4683 83.937 30.4208 79.9761C26.8504 81.8687 26.4338 86.2428 26.6238 89.6635Z" fill="#09090B"/>
<path d="M20.5868 94.0508C25.4498 96.7614 30.2989 99.96 34.8074 103.364C32.1074 106.93 26.7106 105.508 23.3652 104.362C17.4698 102.341 12.214 97.0162 9.46875 91.0998C12.9494 89.3013 17.7141 92.4495 20.5868 94.0508Z" fill="#09090B"/>
<path d="M40.4738 102.353C43.3926 107.696 50.0438 111.181 56.3074 112.021C56.9815 108.136 52.7915 104.29 50.5082 101.774C47.2575 98.192 43.8701 94.4746 40.0723 91.3774C37.227 94.6914 38.7312 99.1625 40.4738 102.353Z" fill="#09090B"/>
<path d="M36.3044 109.124C42.939 109.816 49.6862 110.813 56.317 111.961C55.6839 116.862 47.9304 117.653 44.4104 117.943C37.1932 118.536 29.1646 115.626 23.5742 110.727C26.3508 107.449 32.7702 108.756 36.3044 109.124Z" fill="#09090B"/>
<path d="M49.0839 9.40209C44.6295 10.6768 39.4156 13.095 36.8398 17.559C41.5152 17.0478 46.1103 15.3791 50.604 14.1076C55.6375 12.6833 60.9375 11.618 65.8109 9.65199C60.4738 7.51007 54.1823 7.94297 49.0839 9.40209Z" fill="#09090B"/>
<path fill-rule="evenodd" clip-rule="evenodd" d="M135.26 70.3375C138.983 46.9644 128.114 23.8751 106.395 13.9621L106.597 13.5156C128.538 23.5292 139.498 46.8468 135.742 70.415C131.58 96.5403 110.556 112.189 84.8911 112.942L84.877 112.452C110.343 111.704 131.139 96.196 135.26 70.3375Z" fill="#09090B"/>
<path d="M111.355 19.5306C115.409 19.6233 120.154 21.9169 122.955 25.2483C120.71 27.34 117.095 26.5667 114.497 26.1389C110.785 25.5285 106.839 24.3459 103.338 22.6719C104.777 19.5975 108.655 19.4689 111.355 19.5306Z" fill="#09090B"/>
<path d="M114.544 14.5132C116.946 18.2659 119.808 21.9956 122.922 25.2801C125.528 22.8263 123.955 18.7427 122.891 16.2033C120.966 11.6018 116.346 7.6338 111.516 5.60352C110.19 8.62851 113.07 12.2098 114.544 14.5132Z" fill="#09090B"/>
<path d="M123.088 30.0539C126.885 31.4077 130.146 35.2186 131.784 39.0445C129.054 40.3178 125.95 38.479 123.68 37.2548C120.563 35.5736 117.382 33.254 114.881 30.5696C117.141 28.1763 120.575 29.158 123.088 30.0539Z" fill="#09090B"/>
<path d="M127.691 26.3041C128.522 30.5843 129.915 35.0206 131.745 39.0641C134.94 37.5529 134.818 33.2247 134.68 30.4704C134.447 25.7691 131.826 20.408 128.175 17.001C125.94 19.4044 127.162 23.5776 127.691 26.3041Z" fill="#09090B"/>
<path d="M130.392 43.6405C133.556 46.1439 135.474 50.7834 135.918 54.9263C132.926 55.2709 130.534 52.539 128.754 50.6646C126.33 48.1126 124.035 44.9117 122.58 41.563C125.432 40.0018 128.333 42.0097 130.392 43.6405Z" fill="#09090B"/>
<path d="M135.876 41.527C135.31 45.8488 135.31 50.5253 135.874 54.9319C139.354 54.5031 140.509 50.3112 141.19 47.6815C142.368 43.1423 141.578 37.279 139.285 32.8662C136.419 34.4577 136.234 38.7643 135.876 41.527Z" fill="#09090B"/>
<path d="M132.875 58.4703C135.378 62.1488 136.258 67.9135 135.133 72.5471C131.825 71.7614 130.185 68.0046 128.867 65.3511C127.118 61.8247 125.638 57.7107 125.109 53.6743C128.697 52.9252 131.227 56.047 132.875 58.4703Z" fill="#09090B"/>
<path d="M139.448 58.0985C137.498 62.6281 135.976 67.6137 135.086 72.536C138.879 73.3536 141.609 69.3573 143.196 66.7074C146.02 61.9905 146.843 55.4515 145.809 49.8086C142.337 50.507 140.636 55.3393 139.448 58.0985Z" fill="#09090B"/>
<path d="M131.125 74.4753C132.469 78.9376 131.537 85.0041 128.814 89.1992C125.825 87.246 125.409 82.9471 124.985 79.8648C124.428 75.7973 124.164 71.2915 124.858 67.0737C128.683 67.5636 130.227 71.4942 131.125 74.4753Z" fill="#09090B"/>
<path d="M137.772 76.3855C134.417 80.2484 131.322 84.6524 128.768 89.1702C132.23 91.3386 136.294 88.3762 138.759 86.2799C143.129 82.5611 145.969 76.2405 146.642 70.2816C143.003 69.7912 139.797 74.0551 137.772 76.3855Z" fill="#09090B"/>
<path d="M124.071 89.6635C123.783 94.8576 120.412 100.308 115.924 103.41C113.756 100.433 115.116 95.8721 115.854 92.6879C116.849 88.401 118.227 83.937 120.274 79.9761C123.846 81.8687 124.262 86.2428 124.071 89.6635Z" fill="#09090B"/>
<path d="M130.108 94.0508C125.245 96.7614 120.397 99.96 115.889 103.364C118.589 106.93 123.985 105.508 127.329 104.362C133.226 102.341 138.482 97.0162 141.226 91.0998C137.746 89.3013 132.981 92.4495 130.108 94.0508Z" fill="#09090B"/>
<path d="M110.221 102.353C107.302 107.696 100.651 111.181 94.387 112.021C93.7128 108.136 97.9026 104.29 100.187 101.774C103.436 98.192 106.824 94.4746 110.622 91.3774C113.468 94.6914 111.962 99.1625 110.221 102.353Z" fill="#09090B"/>
<path d="M114.389 109.124C107.755 109.816 101.009 110.813 94.377 111.961C95.0102 116.862 102.764 117.653 106.283 117.943C113.502 118.536 121.531 115.626 127.119 110.727C124.344 107.449 117.925 108.756 114.389 109.124Z" fill="#09090B"/>
<path d="M101.61 9.40209C106.063 10.6768 111.279 13.095 113.853 17.559C109.179 17.0478 104.584 15.3791 100.09 14.1076C95.0563 12.6833 89.7562 11.618 84.8828 9.65199C90.2202 7.51007 96.5115 7.94297 101.61 9.40209Z" fill="#09090B"/>
<path d="M78.2433 7.09193L75.9578 2.0332L73.7153 6.99779L68.5 3.75422L71.8513 10.8186H80.1856L83.4159 3.75422L78.2433 7.09193Z" fill="#09090B"/>
<path d="M80.1327 11.9165H71.7852V13.1522H80.1327V11.9165Z" fill="#09090B"/>
<path d="M76.555 107.506L77.9001 111.658H82.2528L78.7314 114.225L80.0763 118.377L76.555 115.811L73.0336 118.377L74.3788 114.225L70.8574 111.658H75.2101L76.555 107.506Z" fill="#09090B"/>
</svg>
