<svg width="188" height="79" viewBox="0 0 188 79" fill="none" xmlns="http://www.w3.org/2000/svg">
<path d="M94.2944 26.0629C95.0675 26.0521 95.7249 25.9081 95.7141 25.1163V24.9976C95.7249 24.2094 95.0675 24.0654 94.2944 24.0547C93.5178 24.0654 92.8604 24.2094 92.8712 24.9976V25.1163C92.8604 25.9081 93.5178 26.0521 94.2944 26.0629Z" fill="#09090B"/>
<path d="M66.0303 24.472C66.0303 24.2416 65.8462 24.0581 65.6149 24.0581H63.3066V24.8823H65.6149C65.7306 24.8823 65.828 24.8426 65.9076 24.7635C65.9906 24.6807 66.0303 24.5836 66.0303 24.472Z" fill="#09090B"/>
<path d="M79.0257 24.0474L79.6904 25.4762H78.3574L79.0257 24.0474Z" fill="#09090B"/>
<path d="M108.682 24.0474L109.347 25.4762H108.014L108.682 24.0474Z" fill="#09090B"/>
<path d="M61.4607 54.1346L60.4782 52.0225L59.4902 54.1346H61.4607Z" fill="#09090B"/>
<path d="M84.6459 53.5285C84.6459 54.2467 84.2347 54.8373 83.5085 54.8373H80.4434V52.2197H83.5085C84.2347 52.2197 84.6459 52.805 84.6459 53.5285Z" fill="#09090B"/>
<path d="M92.4118 52.0225L93.3944 54.1346H91.4238L92.4118 52.0225Z" fill="#09090B"/>
<path d="M104.352 52.0386C104.693 52.0386 104.966 52.31 104.966 52.6504C104.966 52.8153 104.907 52.9591 104.784 53.0814C104.667 53.1985 104.523 53.257 104.352 53.257H100.939V52.0386H104.352Z" fill="#09090B"/>
<path d="M115.639 53.5285C115.639 54.2467 115.228 54.8373 114.501 54.8373H111.436V52.2197H114.501C115.228 52.2197 115.639 52.805 115.639 53.5285Z" fill="#09090B"/>
<path d="M48.4857 40.1974L44.9245 32.0054H38.8145V45.6587H43.266V38.2842L46.4781 45.6587H50.4584L53.7055 38.2842V45.6587H58.1396V32.0054H52.2215L48.4857 40.1974Z" fill="#09090B"/>
<path d="M76.3082 45.6587V42.2671H66.4798V40.493H75.9068V37.1711H66.4798V35.4143H76.1861V32.0054H61.8711V45.6587H76.3082Z" fill="#09090B"/>
<path d="M80.0633 43.2409C81.425 44.9977 83.8514 45.8673 86.7669 45.8673C88.9562 45.8673 90.561 45.4243 91.679 44.7217C91.8714 44.6007 92.0494 44.4721 92.2135 44.3367L92.3357 45.6586H96.089V37.5709H86.9763V40.5103H91.847C91.8255 40.6495 91.751 40.8679 91.644 41.0759C91.5772 41.2059 91.4977 41.3318 91.4105 41.4321C90.9043 42.0234 89.56 42.5452 87.8143 42.5452C85.9987 42.5452 84.829 42.0757 84.2006 41.3452C83.7816 40.8059 83.5372 40.0407 83.5372 38.8927C83.5372 37.6927 83.7816 36.8752 84.253 36.3361C84.9338 35.5708 86.086 35.2403 87.7794 35.2403C89.2982 35.2403 90.3456 35.5881 90.8344 36.023C91.1487 36.2838 91.3931 36.6491 91.4454 36.8926H95.9668C95.9604 36.7321 95.9373 36.5359 95.8984 36.327C95.8319 35.9701 95.7195 35.5758 95.5653 35.2577C94.4829 33.0661 91.9691 31.7617 87.6921 31.7617C83.9737 31.7617 81.4773 32.8922 80.0982 34.5968C79.1905 35.762 78.7715 37.223 78.7715 38.858C78.7715 40.6668 79.2603 42.2148 80.0633 43.2409Z" fill="#09090B"/>
<path d="M84.1055 38.8925C84.1055 37.7576 84.3384 37.1013 84.6801 36.7092C85.1941 36.1329 86.1319 35.8057 87.7799 35.8057C89.2453 35.8057 90.1221 36.1469 90.4568 36.4447L90.4641 36.451L90.4715 36.4573C90.5866 36.5529 90.6919 36.6706 90.7714 36.7854C90.8501 36.8988 90.8815 36.9775 90.8893 37.0051H86.4092V41.0757H90.9696C90.8063 41.2596 90.4558 41.4891 89.8988 41.6735C89.3444 41.8569 88.6329 41.9794 87.8148 41.9794C86.0898 41.9794 85.1196 41.5346 84.6415 40.9874C84.3289 40.5792 84.1055 39.953 84.1055 38.8925Z" fill="#09090B"/>
<path d="M107.949 37.0361L106.648 39.5101H109.178L107.949 37.0361Z" fill="#09090B"/>
<path fill-rule="evenodd" clip-rule="evenodd" d="M111.576 43.1367L112.78 45.6587H117.826L110.912 32.0054H105.274L97.959 45.6587H102.899L104.174 43.1367H111.576ZM105.71 40.0756L107.438 36.7884L107.962 35.5362L108.451 36.771L110.092 40.0756H105.71Z" fill="#09090B"/>
<path fill-rule="evenodd" clip-rule="evenodd" d="M148.004 69.2996H147.996C147.899 69.2996 147.802 69.299 147.705 69.298V69.2996H40.9257C31.5032 69.2996 23.0983 64.9585 17.616 58.1744H33.3484V56.1877H16.1419C13.575 52.411 11.855 48.0164 11.2534 43.2745H33.3484V41.2879H11.0686C11.0334 40.6963 11.0156 40.1001 11.0156 39.4999C11.0156 35.5669 11.7803 31.8121 13.1697 28.3746H33.3484V26.388H14.0591C16.1728 22.0968 19.2917 18.3861 23.1102 15.5608H130.187C131.523 14.5731 132.943 13.6935 134.436 12.9351C134.033 13.1395 133.637 13.3525 133.245 13.5741H26.1677C30.5222 11.1083 35.5588 9.7002 40.9255 9.7002H147.705V9.7016C147.804 9.70062 147.904 9.7002 148.004 9.7002C164.522 9.7002 177.914 23.0419 177.914 39.4999C177.914 55.9577 164.522 69.2996 148.004 69.2996ZM159.125 53.4762C160.464 49.4567 161.264 44.6824 161.264 39.4999C161.264 34.6685 160.568 30.1919 159.39 26.3507C159.246 25.8817 159.095 25.4222 158.937 24.9727C158.674 24.2239 158.391 23.503 158.092 22.8121C157.688 21.8792 157.253 21.001 156.791 20.1835C154.61 16.3261 152.121 14.2487 149.798 13.5493V22.8121H155.906C156.423 23.9106 156.895 25.1067 157.312 26.388H149.798V37.7118H159.237C159.258 38.3011 159.27 38.8973 159.27 39.4999C159.27 40.1024 159.258 40.6986 159.237 41.2878H149.798V52.6117H157.311C156.895 53.893 156.423 55.0891 155.906 56.1876H149.798V65.4506C152.121 64.7513 154.61 62.6737 156.791 58.8163C157.253 57.9987 157.689 57.1206 158.092 56.1876C158.464 55.3288 158.809 54.4235 159.125 53.4762ZM163.139 26.388C164.096 29.8398 164.689 33.6672 164.823 37.7118H174.264C173.986 33.6063 172.76 29.7599 170.803 26.388H163.139ZM168.308 22.8121H161.966C160.815 19.8071 159.362 17.1932 157.684 15.1068C161.853 16.7504 165.499 19.4238 168.308 22.8121ZM146.21 13.5489V22.8121H137.915C138.319 21.8792 138.754 21.001 139.217 20.1835C141.397 16.3255 143.887 14.2478 146.21 13.5489ZM138.323 15.1067C136.645 17.1931 135.193 19.8069 134.042 22.8121H127.699C130.507 19.4237 134.155 16.7502 138.323 15.1067ZM132.868 26.388H121.383V28.3746H124.162C122.812 31.2417 121.967 34.392 121.743 37.7118H131.184C131.319 33.6672 131.91 29.8398 132.868 26.388ZM146.21 26.388H136.606C135.581 29.742 134.925 33.5786 134.776 37.7118H146.21V26.388ZM164.823 41.2878C164.689 45.3324 164.096 49.1598 163.139 52.6117H170.803C172.76 49.2398 173.986 45.3933 174.264 41.2878H164.823ZM136.606 52.6117C135.581 49.2578 134.925 45.421 134.776 41.2878H146.21V52.6117H136.606ZM132.868 52.6117C131.91 49.1598 131.319 45.3324 131.184 41.2878H121.743C122.02 45.3933 123.246 49.2398 125.204 52.6117H132.868ZM161.966 56.1876C160.815 59.1926 159.362 61.8064 157.685 63.8928C161.853 62.2492 165.499 59.5758 168.308 56.1876H161.966ZM137.915 56.1876H146.21V65.451C143.887 64.7521 141.397 62.6744 139.217 58.8163C138.754 57.9987 138.319 57.1206 137.915 56.1876ZM134.042 56.1876L121.383 56.1877V58.1743H129.525C132.021 60.6266 135.006 62.5857 138.323 63.893C136.645 61.8067 135.193 59.1928 134.042 56.1876ZM94.2945 22.5212C92.4667 22.5248 90.9711 23.0503 90.9784 24.8822V25.2349C90.9711 27.0632 92.4667 27.5923 94.2945 27.5958C96.1188 27.5923 97.6143 27.0632 97.607 25.2349V24.8822C97.607 23.0538 96.1223 22.5212 94.2945 22.5212ZM37.5083 22.64V27.4771H39.4012V22.64H37.5083ZM45.1412 25.2025L43.0099 22.64H40.4054V27.4771H42.2983V24.5224L44.9064 27.4771H47.0377V22.64H45.1412V25.2025ZM51.8385 24.1804V27.4843H49.9457V24.1804H47.6952V22.6472H54.089V24.1804H51.8385ZM54.7249 27.4843H60.4071V26.2426H56.6177V25.6236H60.4071V24.5043H56.6177V23.8853H60.4071V22.6472H54.7249V27.4843ZM61.4149 27.4806V22.6436H66.0929C67.0935 22.6329 67.9424 23.4714 67.928 24.4719C67.928 24.8354 67.8304 25.1665 67.6354 25.4617C67.4439 25.7531 67.1875 25.9763 66.8695 26.1239L67.928 27.4806H65.9123L64.9984 26.3002H63.3078V27.4806H61.4149ZM73.2526 25.2025L71.1213 22.64H68.5168V27.4771H70.4097V24.5224L73.0178 27.4771H75.1491V22.64H73.2526V25.2025ZM77.4249 27.4843H75.2936L77.8981 22.6472H80.1486L82.7531 27.4843H80.6218L80.2389 26.6565H77.8078L77.4249 27.4843ZM85.6429 27.4843V24.1804H87.8934V22.6472H81.4996V24.1804H83.7501V27.4843H85.6429ZM88.5292 27.4771V22.64H90.4221V27.4771H88.5292ZM100.779 22.64L102.91 25.2025V22.64H104.807V27.4771H102.675L100.067 24.5224V27.4771H98.1742V22.64H100.779ZM104.951 27.4843H107.082L107.465 26.6565H109.896L110.28 27.4843H112.41L109.807 22.6472H107.556L104.951 27.4843ZM112.559 27.4771V22.64H114.452V25.9438H118.241V27.4771H112.559ZM42.4129 51.6022C41.5425 51.6022 40.4745 51.73 40.4745 52.2991C40.4745 52.6131 41.3449 52.6557 42.4716 52.7088L42.484 52.7094C44.4858 52.8105 47.2883 52.9519 47.283 54.7411C47.283 56.7842 44.9334 57.2684 42.4129 57.2684C39.8978 57.263 37.8099 56.9598 37.5428 54.7411H40.4745C40.7948 55.2945 41.5371 55.4381 42.4129 55.4381C43.2833 55.4381 44.3514 55.2945 44.3514 54.7411C44.3514 54.4273 43.4809 54.3794 42.3542 54.3262L42.3417 54.3256C40.3399 54.2246 37.5374 54.0831 37.5428 52.2991C37.5428 50.2562 39.8924 49.7667 42.4129 49.7667C44.928 49.7826 47.016 50.0646 47.283 52.2991H44.3514C44.0309 51.7352 43.2887 51.6022 42.4129 51.6022ZM53.4934 52.2194V57.1034H50.6953V52.2194H47.3684V49.953H56.8202V52.2194H53.4934ZM54.9618 57.1034H58.1124L58.6785 55.8797H62.2724L62.8384 57.1034H65.989L62.1388 49.953H58.812L54.9618 57.1034ZM70.0581 49.9423L73.2087 53.7303V49.9423H76.0122V57.0928H72.8616L69.0061 52.7248V57.0928H66.208V49.9423H70.0581ZM77.6462 49.953V57.1034H84.0329C86.0033 57.13 87.4665 55.4701 87.4504 53.5281C87.4665 51.5756 86.0033 49.9263 84.0329 49.953H77.6462ZM90.0457 57.1034H86.8951L90.7453 49.953H94.0721L97.9221 57.1034H94.7715L94.2055 55.8797H90.6118L90.0457 57.1034ZM98.1411 49.9476V57.0981H100.939V55.353H103.438L104.789 57.0981H107.769L106.204 55.0923C106.674 54.8742 107.054 54.5444 107.337 54.1133C107.625 53.6772 107.769 53.1876 107.769 52.6503C107.79 51.1712 106.536 49.9317 105.056 49.9476H98.1411ZM108.64 57.1034V49.953H115.026C116.997 49.9263 118.46 51.5756 118.444 53.5281C118.46 55.4701 116.997 57.13 115.026 57.1034H108.64ZM58.7082 46.224H53.1386V40.9812L50.8302 46.224H46.1065L43.8346 41.0081V46.224H38.2476V31.4394H45.2981L48.499 38.8025L51.8568 31.4394H58.7082V46.224ZM76.8766 46.224H61.3041V31.4394H76.7545V35.9796H67.0482V36.6051H76.4752V41.0583H67.0482V41.7012H76.8766V46.224ZM96.6576 46.224H91.8187L91.7375 45.3462C90.5244 46.0326 88.8823 46.4328 86.7676 46.4328C83.7594 46.4328 81.1268 45.5364 79.6156 43.5877C78.7165 42.4383 78.2045 40.758 78.2045 38.8578C78.2045 37.1265 78.6491 35.5352 79.6505 34.2498L79.6537 34.2456L79.657 34.2416C81.1781 32.3614 83.8661 31.1959 87.6929 31.1959C92.0667 31.1959 94.8543 32.5351 96.0754 35.0078L96.0764 35.0097L96.0773 35.0116C96.3612 35.5975 96.5148 36.3716 96.5348 36.8698L96.5403 37.0051H96.6576V46.224ZM104.524 43.702L103.25 46.224H97.0133L104.934 31.4394H111.263L118.749 46.224H112.422L111.218 43.702H104.524ZM37.4362 64.4323H118.691V62.4455H37.4362V64.4323Z" fill="#09090B"/>
<path fill-rule="evenodd" clip-rule="evenodd" d="M40.9244 2.54834H148.003C168.486 2.54834 185.091 19.0921 185.091 39.5C185.091 59.9078 168.486 76.4516 148.003 76.4516H40.9244C20.4409 76.4516 3.83594 59.9078 3.83594 39.5C3.83594 19.0921 20.4409 2.54834 40.9244 2.54834ZM40.9244 6.12436C22.4233 6.12436 7.4252 21.0671 7.4252 39.5C7.4252 57.9328 22.4233 72.8757 40.9244 72.8757H148.003C166.503 72.8757 181.501 57.9328 181.501 39.5C181.501 21.0671 166.503 6.12436 148.003 6.12436H40.9244Z" fill="#09090B"/>
</svg>
